%TF.GenerationSoftware,KiCad,Pcbnew,9.0.2*%
%TF.CreationDate,2025-06-17T11:51:54-07:00*%
%TF.ProjectId,Revision01,52657669-7369-46f6-9e30-312e6b696361,A*%
%TF.SameCoordinates,PX692bd40PY908ed60*%
%TF.FileFunction,Legend,Top*%
%TF.FilePolarity,Positive*%
%FSLAX46Y46*%
G04 Gerber Fmt 4.6, Leading zero omitted, Abs format (unit mm)*
G04 Created by KiCad (PCBNEW 9.0.2) date 2025-06-17 11:51:54*
%MOMM*%
%LPD*%
G01*
G04 APERTURE LIST*
%ADD10C,0.250000*%
%ADD11C,0.150000*%
%ADD12C,0.152400*%
%ADD13C,0.127000*%
%ADD14C,0.200000*%
%ADD15C,0.120000*%
G04 APERTURE END LIST*
D10*
X14726377Y85287762D02*
X14631139Y85335381D01*
X14631139Y85335381D02*
X14488282Y85335381D01*
X14488282Y85335381D02*
X14345425Y85287762D01*
X14345425Y85287762D02*
X14250187Y85192524D01*
X14250187Y85192524D02*
X14202568Y85097286D01*
X14202568Y85097286D02*
X14154949Y84906810D01*
X14154949Y84906810D02*
X14154949Y84763953D01*
X14154949Y84763953D02*
X14202568Y84573477D01*
X14202568Y84573477D02*
X14250187Y84478239D01*
X14250187Y84478239D02*
X14345425Y84383000D01*
X14345425Y84383000D02*
X14488282Y84335381D01*
X14488282Y84335381D02*
X14583520Y84335381D01*
X14583520Y84335381D02*
X14726377Y84383000D01*
X14726377Y84383000D02*
X14773996Y84430620D01*
X14773996Y84430620D02*
X14773996Y84763953D01*
X14773996Y84763953D02*
X14583520Y84763953D01*
X77373996Y18530620D02*
X77326377Y18483000D01*
X77326377Y18483000D02*
X77183520Y18435381D01*
X77183520Y18435381D02*
X77088282Y18435381D01*
X77088282Y18435381D02*
X76945425Y18483000D01*
X76945425Y18483000D02*
X76850187Y18578239D01*
X76850187Y18578239D02*
X76802568Y18673477D01*
X76802568Y18673477D02*
X76754949Y18863953D01*
X76754949Y18863953D02*
X76754949Y19006810D01*
X76754949Y19006810D02*
X76802568Y19197286D01*
X76802568Y19197286D02*
X76850187Y19292524D01*
X76850187Y19292524D02*
X76945425Y19387762D01*
X76945425Y19387762D02*
X77088282Y19435381D01*
X77088282Y19435381D02*
X77183520Y19435381D01*
X77183520Y19435381D02*
X77326377Y19387762D01*
X77326377Y19387762D02*
X77373996Y19340143D01*
X77754949Y18483000D02*
X77897806Y18435381D01*
X77897806Y18435381D02*
X78135901Y18435381D01*
X78135901Y18435381D02*
X78231139Y18483000D01*
X78231139Y18483000D02*
X78278758Y18530620D01*
X78278758Y18530620D02*
X78326377Y18625858D01*
X78326377Y18625858D02*
X78326377Y18721096D01*
X78326377Y18721096D02*
X78278758Y18816334D01*
X78278758Y18816334D02*
X78231139Y18863953D01*
X78231139Y18863953D02*
X78135901Y18911572D01*
X78135901Y18911572D02*
X77945425Y18959191D01*
X77945425Y18959191D02*
X77850187Y19006810D01*
X77850187Y19006810D02*
X77802568Y19054429D01*
X77802568Y19054429D02*
X77754949Y19149667D01*
X77754949Y19149667D02*
X77754949Y19244905D01*
X77754949Y19244905D02*
X77802568Y19340143D01*
X77802568Y19340143D02*
X77850187Y19387762D01*
X77850187Y19387762D02*
X77945425Y19435381D01*
X77945425Y19435381D02*
X78183520Y19435381D01*
X78183520Y19435381D02*
X78326377Y19387762D01*
X78516854Y18340143D02*
X79278758Y18340143D01*
X80040663Y19387762D02*
X79945425Y19435381D01*
X79945425Y19435381D02*
X79802568Y19435381D01*
X79802568Y19435381D02*
X79659711Y19387762D01*
X79659711Y19387762D02*
X79564473Y19292524D01*
X79564473Y19292524D02*
X79516854Y19197286D01*
X79516854Y19197286D02*
X79469235Y19006810D01*
X79469235Y19006810D02*
X79469235Y18863953D01*
X79469235Y18863953D02*
X79516854Y18673477D01*
X79516854Y18673477D02*
X79564473Y18578239D01*
X79564473Y18578239D02*
X79659711Y18483000D01*
X79659711Y18483000D02*
X79802568Y18435381D01*
X79802568Y18435381D02*
X79897806Y18435381D01*
X79897806Y18435381D02*
X80040663Y18483000D01*
X80040663Y18483000D02*
X80088282Y18530620D01*
X80088282Y18530620D02*
X80088282Y18863953D01*
X80088282Y18863953D02*
X79897806Y18863953D01*
X80516854Y18435381D02*
X80516854Y19435381D01*
X80516854Y19435381D02*
X80897806Y19435381D01*
X80897806Y19435381D02*
X80993044Y19387762D01*
X80993044Y19387762D02*
X81040663Y19340143D01*
X81040663Y19340143D02*
X81088282Y19244905D01*
X81088282Y19244905D02*
X81088282Y19102048D01*
X81088282Y19102048D02*
X81040663Y19006810D01*
X81040663Y19006810D02*
X80993044Y18959191D01*
X80993044Y18959191D02*
X80897806Y18911572D01*
X80897806Y18911572D02*
X80516854Y18911572D01*
X81516854Y18435381D02*
X81516854Y19435381D01*
X82183520Y19435381D02*
X82373996Y19435381D01*
X82373996Y19435381D02*
X82469234Y19387762D01*
X82469234Y19387762D02*
X82564472Y19292524D01*
X82564472Y19292524D02*
X82612091Y19102048D01*
X82612091Y19102048D02*
X82612091Y18768715D01*
X82612091Y18768715D02*
X82564472Y18578239D01*
X82564472Y18578239D02*
X82469234Y18483000D01*
X82469234Y18483000D02*
X82373996Y18435381D01*
X82373996Y18435381D02*
X82183520Y18435381D01*
X82183520Y18435381D02*
X82088282Y18483000D01*
X82088282Y18483000D02*
X81993044Y18578239D01*
X81993044Y18578239D02*
X81945425Y18768715D01*
X81945425Y18768715D02*
X81945425Y19102048D01*
X81945425Y19102048D02*
X81993044Y19292524D01*
X81993044Y19292524D02*
X82088282Y19387762D01*
X82088282Y19387762D02*
X82183520Y19435381D01*
X76654949Y10583000D02*
X76797806Y10535381D01*
X76797806Y10535381D02*
X77035901Y10535381D01*
X77035901Y10535381D02*
X77131139Y10583000D01*
X77131139Y10583000D02*
X77178758Y10630620D01*
X77178758Y10630620D02*
X77226377Y10725858D01*
X77226377Y10725858D02*
X77226377Y10821096D01*
X77226377Y10821096D02*
X77178758Y10916334D01*
X77178758Y10916334D02*
X77131139Y10963953D01*
X77131139Y10963953D02*
X77035901Y11011572D01*
X77035901Y11011572D02*
X76845425Y11059191D01*
X76845425Y11059191D02*
X76750187Y11106810D01*
X76750187Y11106810D02*
X76702568Y11154429D01*
X76702568Y11154429D02*
X76654949Y11249667D01*
X76654949Y11249667D02*
X76654949Y11344905D01*
X76654949Y11344905D02*
X76702568Y11440143D01*
X76702568Y11440143D02*
X76750187Y11487762D01*
X76750187Y11487762D02*
X76845425Y11535381D01*
X76845425Y11535381D02*
X77083520Y11535381D01*
X77083520Y11535381D02*
X77226377Y11487762D01*
X78226377Y10630620D02*
X78178758Y10583000D01*
X78178758Y10583000D02*
X78035901Y10535381D01*
X78035901Y10535381D02*
X77940663Y10535381D01*
X77940663Y10535381D02*
X77797806Y10583000D01*
X77797806Y10583000D02*
X77702568Y10678239D01*
X77702568Y10678239D02*
X77654949Y10773477D01*
X77654949Y10773477D02*
X77607330Y10963953D01*
X77607330Y10963953D02*
X77607330Y11106810D01*
X77607330Y11106810D02*
X77654949Y11297286D01*
X77654949Y11297286D02*
X77702568Y11392524D01*
X77702568Y11392524D02*
X77797806Y11487762D01*
X77797806Y11487762D02*
X77940663Y11535381D01*
X77940663Y11535381D02*
X78035901Y11535381D01*
X78035901Y11535381D02*
X78178758Y11487762D01*
X78178758Y11487762D02*
X78226377Y11440143D01*
X78654949Y10535381D02*
X78654949Y11535381D01*
X79226377Y10535381D02*
X78797806Y11106810D01*
X79226377Y11535381D02*
X78654949Y10963953D01*
X76802568Y13135381D02*
X76802568Y14135381D01*
X76802568Y14135381D02*
X77135901Y13421096D01*
X77135901Y13421096D02*
X77469234Y14135381D01*
X77469234Y14135381D02*
X77469234Y13135381D01*
X77945425Y13135381D02*
X77945425Y14135381D01*
X78373996Y13183000D02*
X78516853Y13135381D01*
X78516853Y13135381D02*
X78754948Y13135381D01*
X78754948Y13135381D02*
X78850186Y13183000D01*
X78850186Y13183000D02*
X78897805Y13230620D01*
X78897805Y13230620D02*
X78945424Y13325858D01*
X78945424Y13325858D02*
X78945424Y13421096D01*
X78945424Y13421096D02*
X78897805Y13516334D01*
X78897805Y13516334D02*
X78850186Y13563953D01*
X78850186Y13563953D02*
X78754948Y13611572D01*
X78754948Y13611572D02*
X78564472Y13659191D01*
X78564472Y13659191D02*
X78469234Y13706810D01*
X78469234Y13706810D02*
X78421615Y13754429D01*
X78421615Y13754429D02*
X78373996Y13849667D01*
X78373996Y13849667D02*
X78373996Y13944905D01*
X78373996Y13944905D02*
X78421615Y14040143D01*
X78421615Y14040143D02*
X78469234Y14087762D01*
X78469234Y14087762D02*
X78564472Y14135381D01*
X78564472Y14135381D02*
X78802567Y14135381D01*
X78802567Y14135381D02*
X78945424Y14087762D01*
X79564472Y14135381D02*
X79754948Y14135381D01*
X79754948Y14135381D02*
X79850186Y14087762D01*
X79850186Y14087762D02*
X79945424Y13992524D01*
X79945424Y13992524D02*
X79993043Y13802048D01*
X79993043Y13802048D02*
X79993043Y13468715D01*
X79993043Y13468715D02*
X79945424Y13278239D01*
X79945424Y13278239D02*
X79850186Y13183000D01*
X79850186Y13183000D02*
X79754948Y13135381D01*
X79754948Y13135381D02*
X79564472Y13135381D01*
X79564472Y13135381D02*
X79469234Y13183000D01*
X79469234Y13183000D02*
X79373996Y13278239D01*
X79373996Y13278239D02*
X79326377Y13468715D01*
X79326377Y13468715D02*
X79326377Y13802048D01*
X79326377Y13802048D02*
X79373996Y13992524D01*
X79373996Y13992524D02*
X79469234Y14087762D01*
X79469234Y14087762D02*
X79564472Y14135381D01*
X76802568Y15835381D02*
X76802568Y16835381D01*
X76802568Y16835381D02*
X77135901Y16121096D01*
X77135901Y16121096D02*
X77469234Y16835381D01*
X77469234Y16835381D02*
X77469234Y15835381D01*
X78135901Y16835381D02*
X78326377Y16835381D01*
X78326377Y16835381D02*
X78421615Y16787762D01*
X78421615Y16787762D02*
X78516853Y16692524D01*
X78516853Y16692524D02*
X78564472Y16502048D01*
X78564472Y16502048D02*
X78564472Y16168715D01*
X78564472Y16168715D02*
X78516853Y15978239D01*
X78516853Y15978239D02*
X78421615Y15883000D01*
X78421615Y15883000D02*
X78326377Y15835381D01*
X78326377Y15835381D02*
X78135901Y15835381D01*
X78135901Y15835381D02*
X78040663Y15883000D01*
X78040663Y15883000D02*
X77945425Y15978239D01*
X77945425Y15978239D02*
X77897806Y16168715D01*
X77897806Y16168715D02*
X77897806Y16502048D01*
X77897806Y16502048D02*
X77945425Y16692524D01*
X77945425Y16692524D02*
X78040663Y16787762D01*
X78040663Y16787762D02*
X78135901Y16835381D01*
X78945425Y15883000D02*
X79088282Y15835381D01*
X79088282Y15835381D02*
X79326377Y15835381D01*
X79326377Y15835381D02*
X79421615Y15883000D01*
X79421615Y15883000D02*
X79469234Y15930620D01*
X79469234Y15930620D02*
X79516853Y16025858D01*
X79516853Y16025858D02*
X79516853Y16121096D01*
X79516853Y16121096D02*
X79469234Y16216334D01*
X79469234Y16216334D02*
X79421615Y16263953D01*
X79421615Y16263953D02*
X79326377Y16311572D01*
X79326377Y16311572D02*
X79135901Y16359191D01*
X79135901Y16359191D02*
X79040663Y16406810D01*
X79040663Y16406810D02*
X78993044Y16454429D01*
X78993044Y16454429D02*
X78945425Y16549667D01*
X78945425Y16549667D02*
X78945425Y16644905D01*
X78945425Y16644905D02*
X78993044Y16740143D01*
X78993044Y16740143D02*
X79040663Y16787762D01*
X79040663Y16787762D02*
X79135901Y16835381D01*
X79135901Y16835381D02*
X79373996Y16835381D01*
X79373996Y16835381D02*
X79516853Y16787762D01*
X79945425Y15835381D02*
X79945425Y16835381D01*
D11*
X39789160Y23181615D02*
X39789160Y23981615D01*
X40246303Y23181615D02*
X39903445Y23638758D01*
X40246303Y23981615D02*
X39789160Y23524472D01*
X40893922Y23219710D02*
X40817731Y23181615D01*
X40817731Y23181615D02*
X40665350Y23181615D01*
X40665350Y23181615D02*
X40589160Y23219710D01*
X40589160Y23219710D02*
X40551064Y23295901D01*
X40551064Y23295901D02*
X40551064Y23600663D01*
X40551064Y23600663D02*
X40589160Y23676853D01*
X40589160Y23676853D02*
X40665350Y23714949D01*
X40665350Y23714949D02*
X40817731Y23714949D01*
X40817731Y23714949D02*
X40893922Y23676853D01*
X40893922Y23676853D02*
X40932017Y23600663D01*
X40932017Y23600663D02*
X40932017Y23524472D01*
X40932017Y23524472D02*
X40551064Y23448282D01*
X41579636Y23219710D02*
X41503445Y23181615D01*
X41503445Y23181615D02*
X41351064Y23181615D01*
X41351064Y23181615D02*
X41274874Y23219710D01*
X41274874Y23219710D02*
X41236778Y23295901D01*
X41236778Y23295901D02*
X41236778Y23600663D01*
X41236778Y23600663D02*
X41274874Y23676853D01*
X41274874Y23676853D02*
X41351064Y23714949D01*
X41351064Y23714949D02*
X41503445Y23714949D01*
X41503445Y23714949D02*
X41579636Y23676853D01*
X41579636Y23676853D02*
X41617731Y23600663D01*
X41617731Y23600663D02*
X41617731Y23524472D01*
X41617731Y23524472D02*
X41236778Y23448282D01*
X41960588Y23714949D02*
X41960588Y22914949D01*
X41960588Y23676853D02*
X42036778Y23714949D01*
X42036778Y23714949D02*
X42189159Y23714949D01*
X42189159Y23714949D02*
X42265350Y23676853D01*
X42265350Y23676853D02*
X42303445Y23638758D01*
X42303445Y23638758D02*
X42341540Y23562568D01*
X42341540Y23562568D02*
X42341540Y23333996D01*
X42341540Y23333996D02*
X42303445Y23257806D01*
X42303445Y23257806D02*
X42265350Y23219710D01*
X42265350Y23219710D02*
X42189159Y23181615D01*
X42189159Y23181615D02*
X42036778Y23181615D01*
X42036778Y23181615D02*
X41960588Y23219710D01*
X43636779Y23181615D02*
X43636779Y23600663D01*
X43636779Y23600663D02*
X43598684Y23676853D01*
X43598684Y23676853D02*
X43522493Y23714949D01*
X43522493Y23714949D02*
X43370112Y23714949D01*
X43370112Y23714949D02*
X43293922Y23676853D01*
X43636779Y23219710D02*
X43560588Y23181615D01*
X43560588Y23181615D02*
X43370112Y23181615D01*
X43370112Y23181615D02*
X43293922Y23219710D01*
X43293922Y23219710D02*
X43255826Y23295901D01*
X43255826Y23295901D02*
X43255826Y23372091D01*
X43255826Y23372091D02*
X43293922Y23448282D01*
X43293922Y23448282D02*
X43370112Y23486377D01*
X43370112Y23486377D02*
X43560588Y23486377D01*
X43560588Y23486377D02*
X43636779Y23524472D01*
X44017732Y23714949D02*
X44017732Y23181615D01*
X44017732Y23638758D02*
X44055827Y23676853D01*
X44055827Y23676853D02*
X44132017Y23714949D01*
X44132017Y23714949D02*
X44246303Y23714949D01*
X44246303Y23714949D02*
X44322494Y23676853D01*
X44322494Y23676853D02*
X44360589Y23600663D01*
X44360589Y23600663D02*
X44360589Y23181615D01*
X44627256Y23714949D02*
X44932018Y23714949D01*
X44741542Y23981615D02*
X44741542Y23295901D01*
X44741542Y23295901D02*
X44779637Y23219710D01*
X44779637Y23219710D02*
X44855827Y23181615D01*
X44855827Y23181615D02*
X44932018Y23181615D01*
X45503447Y23219710D02*
X45427256Y23181615D01*
X45427256Y23181615D02*
X45274875Y23181615D01*
X45274875Y23181615D02*
X45198685Y23219710D01*
X45198685Y23219710D02*
X45160589Y23295901D01*
X45160589Y23295901D02*
X45160589Y23600663D01*
X45160589Y23600663D02*
X45198685Y23676853D01*
X45198685Y23676853D02*
X45274875Y23714949D01*
X45274875Y23714949D02*
X45427256Y23714949D01*
X45427256Y23714949D02*
X45503447Y23676853D01*
X45503447Y23676853D02*
X45541542Y23600663D01*
X45541542Y23600663D02*
X45541542Y23524472D01*
X45541542Y23524472D02*
X45160589Y23448282D01*
X45884399Y23714949D02*
X45884399Y23181615D01*
X45884399Y23638758D02*
X45922494Y23676853D01*
X45922494Y23676853D02*
X45998684Y23714949D01*
X45998684Y23714949D02*
X46112970Y23714949D01*
X46112970Y23714949D02*
X46189161Y23676853D01*
X46189161Y23676853D02*
X46227256Y23600663D01*
X46227256Y23600663D02*
X46227256Y23181615D01*
X46608209Y23714949D02*
X46608209Y23181615D01*
X46608209Y23638758D02*
X46646304Y23676853D01*
X46646304Y23676853D02*
X46722494Y23714949D01*
X46722494Y23714949D02*
X46836780Y23714949D01*
X46836780Y23714949D02*
X46912971Y23676853D01*
X46912971Y23676853D02*
X46951066Y23600663D01*
X46951066Y23600663D02*
X46951066Y23181615D01*
X47674876Y23181615D02*
X47674876Y23600663D01*
X47674876Y23600663D02*
X47636781Y23676853D01*
X47636781Y23676853D02*
X47560590Y23714949D01*
X47560590Y23714949D02*
X47408209Y23714949D01*
X47408209Y23714949D02*
X47332019Y23676853D01*
X47674876Y23219710D02*
X47598685Y23181615D01*
X47598685Y23181615D02*
X47408209Y23181615D01*
X47408209Y23181615D02*
X47332019Y23219710D01*
X47332019Y23219710D02*
X47293923Y23295901D01*
X47293923Y23295901D02*
X47293923Y23372091D01*
X47293923Y23372091D02*
X47332019Y23448282D01*
X47332019Y23448282D02*
X47408209Y23486377D01*
X47408209Y23486377D02*
X47598685Y23486377D01*
X47598685Y23486377D02*
X47674876Y23524472D01*
X49008210Y23181615D02*
X49008210Y23600663D01*
X49008210Y23600663D02*
X48970115Y23676853D01*
X48970115Y23676853D02*
X48893924Y23714949D01*
X48893924Y23714949D02*
X48741543Y23714949D01*
X48741543Y23714949D02*
X48665353Y23676853D01*
X49008210Y23219710D02*
X48932019Y23181615D01*
X48932019Y23181615D02*
X48741543Y23181615D01*
X48741543Y23181615D02*
X48665353Y23219710D01*
X48665353Y23219710D02*
X48627257Y23295901D01*
X48627257Y23295901D02*
X48627257Y23372091D01*
X48627257Y23372091D02*
X48665353Y23448282D01*
X48665353Y23448282D02*
X48741543Y23486377D01*
X48741543Y23486377D02*
X48932019Y23486377D01*
X48932019Y23486377D02*
X49008210Y23524472D01*
X49312972Y23714949D02*
X49465353Y23181615D01*
X49465353Y23181615D02*
X49617734Y23562568D01*
X49617734Y23562568D02*
X49770115Y23181615D01*
X49770115Y23181615D02*
X49922496Y23714949D01*
X50570115Y23181615D02*
X50570115Y23600663D01*
X50570115Y23600663D02*
X50532020Y23676853D01*
X50532020Y23676853D02*
X50455829Y23714949D01*
X50455829Y23714949D02*
X50303448Y23714949D01*
X50303448Y23714949D02*
X50227258Y23676853D01*
X50570115Y23219710D02*
X50493924Y23181615D01*
X50493924Y23181615D02*
X50303448Y23181615D01*
X50303448Y23181615D02*
X50227258Y23219710D01*
X50227258Y23219710D02*
X50189162Y23295901D01*
X50189162Y23295901D02*
X50189162Y23372091D01*
X50189162Y23372091D02*
X50227258Y23448282D01*
X50227258Y23448282D02*
X50303448Y23486377D01*
X50303448Y23486377D02*
X50493924Y23486377D01*
X50493924Y23486377D02*
X50570115Y23524472D01*
X50874877Y23714949D02*
X51065353Y23181615D01*
X51255830Y23714949D02*
X51065353Y23181615D01*
X51065353Y23181615D02*
X50989163Y22991139D01*
X50989163Y22991139D02*
X50951068Y22953044D01*
X50951068Y22953044D02*
X50874877Y22914949D01*
X52055830Y23714949D02*
X52360592Y23714949D01*
X52170116Y23181615D02*
X52170116Y23867330D01*
X52170116Y23867330D02*
X52208211Y23943520D01*
X52208211Y23943520D02*
X52284401Y23981615D01*
X52284401Y23981615D02*
X52360592Y23981615D01*
X52627259Y23181615D02*
X52627259Y23714949D01*
X52627259Y23562568D02*
X52665354Y23638758D01*
X52665354Y23638758D02*
X52703449Y23676853D01*
X52703449Y23676853D02*
X52779640Y23714949D01*
X52779640Y23714949D02*
X52855830Y23714949D01*
X53236782Y23181615D02*
X53160592Y23219710D01*
X53160592Y23219710D02*
X53122497Y23257806D01*
X53122497Y23257806D02*
X53084401Y23333996D01*
X53084401Y23333996D02*
X53084401Y23562568D01*
X53084401Y23562568D02*
X53122497Y23638758D01*
X53122497Y23638758D02*
X53160592Y23676853D01*
X53160592Y23676853D02*
X53236782Y23714949D01*
X53236782Y23714949D02*
X53351068Y23714949D01*
X53351068Y23714949D02*
X53427259Y23676853D01*
X53427259Y23676853D02*
X53465354Y23638758D01*
X53465354Y23638758D02*
X53503449Y23562568D01*
X53503449Y23562568D02*
X53503449Y23333996D01*
X53503449Y23333996D02*
X53465354Y23257806D01*
X53465354Y23257806D02*
X53427259Y23219710D01*
X53427259Y23219710D02*
X53351068Y23181615D01*
X53351068Y23181615D02*
X53236782Y23181615D01*
X53846307Y23181615D02*
X53846307Y23714949D01*
X53846307Y23638758D02*
X53884402Y23676853D01*
X53884402Y23676853D02*
X53960592Y23714949D01*
X53960592Y23714949D02*
X54074878Y23714949D01*
X54074878Y23714949D02*
X54151069Y23676853D01*
X54151069Y23676853D02*
X54189164Y23600663D01*
X54189164Y23600663D02*
X54189164Y23181615D01*
X54189164Y23600663D02*
X54227259Y23676853D01*
X54227259Y23676853D02*
X54303450Y23714949D01*
X54303450Y23714949D02*
X54417735Y23714949D01*
X54417735Y23714949D02*
X54493926Y23676853D01*
X54493926Y23676853D02*
X54532021Y23600663D01*
X54532021Y23600663D02*
X54532021Y23181615D01*
X55522498Y23181615D02*
X55522498Y23714949D01*
X55522498Y23638758D02*
X55560593Y23676853D01*
X55560593Y23676853D02*
X55636783Y23714949D01*
X55636783Y23714949D02*
X55751069Y23714949D01*
X55751069Y23714949D02*
X55827260Y23676853D01*
X55827260Y23676853D02*
X55865355Y23600663D01*
X55865355Y23600663D02*
X55865355Y23181615D01*
X55865355Y23600663D02*
X55903450Y23676853D01*
X55903450Y23676853D02*
X55979641Y23714949D01*
X55979641Y23714949D02*
X56093926Y23714949D01*
X56093926Y23714949D02*
X56170117Y23676853D01*
X56170117Y23676853D02*
X56208212Y23600663D01*
X56208212Y23600663D02*
X56208212Y23181615D01*
X56893927Y23219710D02*
X56817736Y23181615D01*
X56817736Y23181615D02*
X56665355Y23181615D01*
X56665355Y23181615D02*
X56589165Y23219710D01*
X56589165Y23219710D02*
X56551069Y23295901D01*
X56551069Y23295901D02*
X56551069Y23600663D01*
X56551069Y23600663D02*
X56589165Y23676853D01*
X56589165Y23676853D02*
X56665355Y23714949D01*
X56665355Y23714949D02*
X56817736Y23714949D01*
X56817736Y23714949D02*
X56893927Y23676853D01*
X56893927Y23676853D02*
X56932022Y23600663D01*
X56932022Y23600663D02*
X56932022Y23524472D01*
X56932022Y23524472D02*
X56551069Y23448282D01*
X57160593Y23714949D02*
X57465355Y23714949D01*
X57274879Y23981615D02*
X57274879Y23295901D01*
X57274879Y23295901D02*
X57312974Y23219710D01*
X57312974Y23219710D02*
X57389164Y23181615D01*
X57389164Y23181615D02*
X57465355Y23181615D01*
X58074879Y23181615D02*
X58074879Y23600663D01*
X58074879Y23600663D02*
X58036784Y23676853D01*
X58036784Y23676853D02*
X57960593Y23714949D01*
X57960593Y23714949D02*
X57808212Y23714949D01*
X57808212Y23714949D02*
X57732022Y23676853D01*
X58074879Y23219710D02*
X57998688Y23181615D01*
X57998688Y23181615D02*
X57808212Y23181615D01*
X57808212Y23181615D02*
X57732022Y23219710D01*
X57732022Y23219710D02*
X57693926Y23295901D01*
X57693926Y23295901D02*
X57693926Y23372091D01*
X57693926Y23372091D02*
X57732022Y23448282D01*
X57732022Y23448282D02*
X57808212Y23486377D01*
X57808212Y23486377D02*
X57998688Y23486377D01*
X57998688Y23486377D02*
X58074879Y23524472D01*
X58570117Y23181615D02*
X58493927Y23219710D01*
X58493927Y23219710D02*
X58455832Y23295901D01*
X58455832Y23295901D02*
X58455832Y23981615D01*
X39789160Y21893660D02*
X39789160Y22693660D01*
X39789160Y22388898D02*
X39865350Y22426994D01*
X39865350Y22426994D02*
X40017731Y22426994D01*
X40017731Y22426994D02*
X40093922Y22388898D01*
X40093922Y22388898D02*
X40132017Y22350803D01*
X40132017Y22350803D02*
X40170112Y22274613D01*
X40170112Y22274613D02*
X40170112Y22046041D01*
X40170112Y22046041D02*
X40132017Y21969851D01*
X40132017Y21969851D02*
X40093922Y21931755D01*
X40093922Y21931755D02*
X40017731Y21893660D01*
X40017731Y21893660D02*
X39865350Y21893660D01*
X39865350Y21893660D02*
X39789160Y21931755D01*
X40436779Y22426994D02*
X40627255Y21893660D01*
X40817732Y22426994D02*
X40627255Y21893660D01*
X40627255Y21893660D02*
X40551065Y21703184D01*
X40551065Y21703184D02*
X40512970Y21665089D01*
X40512970Y21665089D02*
X40436779Y21626994D01*
X42074875Y21893660D02*
X42074875Y22312708D01*
X42074875Y22312708D02*
X42036780Y22388898D01*
X42036780Y22388898D02*
X41960589Y22426994D01*
X41960589Y22426994D02*
X41808208Y22426994D01*
X41808208Y22426994D02*
X41732018Y22388898D01*
X42074875Y21931755D02*
X41998684Y21893660D01*
X41998684Y21893660D02*
X41808208Y21893660D01*
X41808208Y21893660D02*
X41732018Y21931755D01*
X41732018Y21931755D02*
X41693922Y22007946D01*
X41693922Y22007946D02*
X41693922Y22084136D01*
X41693922Y22084136D02*
X41732018Y22160327D01*
X41732018Y22160327D02*
X41808208Y22198422D01*
X41808208Y22198422D02*
X41998684Y22198422D01*
X41998684Y22198422D02*
X42074875Y22236517D01*
X42455828Y21893660D02*
X42455828Y22693660D01*
X42455828Y22388898D02*
X42532018Y22426994D01*
X42532018Y22426994D02*
X42684399Y22426994D01*
X42684399Y22426994D02*
X42760590Y22388898D01*
X42760590Y22388898D02*
X42798685Y22350803D01*
X42798685Y22350803D02*
X42836780Y22274613D01*
X42836780Y22274613D02*
X42836780Y22046041D01*
X42836780Y22046041D02*
X42798685Y21969851D01*
X42798685Y21969851D02*
X42760590Y21931755D01*
X42760590Y21931755D02*
X42684399Y21893660D01*
X42684399Y21893660D02*
X42532018Y21893660D01*
X42532018Y21893660D02*
X42455828Y21931755D01*
X43293923Y21893660D02*
X43217733Y21931755D01*
X43217733Y21931755D02*
X43179638Y21969851D01*
X43179638Y21969851D02*
X43141542Y22046041D01*
X43141542Y22046041D02*
X43141542Y22274613D01*
X43141542Y22274613D02*
X43179638Y22350803D01*
X43179638Y22350803D02*
X43217733Y22388898D01*
X43217733Y22388898D02*
X43293923Y22426994D01*
X43293923Y22426994D02*
X43408209Y22426994D01*
X43408209Y22426994D02*
X43484400Y22388898D01*
X43484400Y22388898D02*
X43522495Y22350803D01*
X43522495Y22350803D02*
X43560590Y22274613D01*
X43560590Y22274613D02*
X43560590Y22046041D01*
X43560590Y22046041D02*
X43522495Y21969851D01*
X43522495Y21969851D02*
X43484400Y21931755D01*
X43484400Y21931755D02*
X43408209Y21893660D01*
X43408209Y21893660D02*
X43293923Y21893660D01*
X44246305Y22426994D02*
X44246305Y21893660D01*
X43903448Y22426994D02*
X43903448Y22007946D01*
X43903448Y22007946D02*
X43941543Y21931755D01*
X43941543Y21931755D02*
X44017733Y21893660D01*
X44017733Y21893660D02*
X44132019Y21893660D01*
X44132019Y21893660D02*
X44208210Y21931755D01*
X44208210Y21931755D02*
X44246305Y21969851D01*
X44512972Y22426994D02*
X44817734Y22426994D01*
X44627258Y22693660D02*
X44627258Y22007946D01*
X44627258Y22007946D02*
X44665353Y21931755D01*
X44665353Y21931755D02*
X44741543Y21893660D01*
X44741543Y21893660D02*
X44817734Y21893660D01*
X46036782Y22693660D02*
X45884401Y22693660D01*
X45884401Y22693660D02*
X45808210Y22655565D01*
X45808210Y22655565D02*
X45770115Y22617470D01*
X45770115Y22617470D02*
X45693925Y22503184D01*
X45693925Y22503184D02*
X45655829Y22350803D01*
X45655829Y22350803D02*
X45655829Y22046041D01*
X45655829Y22046041D02*
X45693925Y21969851D01*
X45693925Y21969851D02*
X45732020Y21931755D01*
X45732020Y21931755D02*
X45808210Y21893660D01*
X45808210Y21893660D02*
X45960591Y21893660D01*
X45960591Y21893660D02*
X46036782Y21931755D01*
X46036782Y21931755D02*
X46074877Y21969851D01*
X46074877Y21969851D02*
X46112972Y22046041D01*
X46112972Y22046041D02*
X46112972Y22236517D01*
X46112972Y22236517D02*
X46074877Y22312708D01*
X46074877Y22312708D02*
X46036782Y22350803D01*
X46036782Y22350803D02*
X45960591Y22388898D01*
X45960591Y22388898D02*
X45808210Y22388898D01*
X45808210Y22388898D02*
X45732020Y22350803D01*
X45732020Y22350803D02*
X45693925Y22312708D01*
X45693925Y22312708D02*
X45655829Y22236517D01*
X46455830Y21969851D02*
X46493925Y21931755D01*
X46493925Y21931755D02*
X46455830Y21893660D01*
X46455830Y21893660D02*
X46417734Y21931755D01*
X46417734Y21931755D02*
X46455830Y21969851D01*
X46455830Y21969851D02*
X46455830Y21893660D01*
X46951067Y22350803D02*
X46874877Y22388898D01*
X46874877Y22388898D02*
X46836782Y22426994D01*
X46836782Y22426994D02*
X46798686Y22503184D01*
X46798686Y22503184D02*
X46798686Y22541279D01*
X46798686Y22541279D02*
X46836782Y22617470D01*
X46836782Y22617470D02*
X46874877Y22655565D01*
X46874877Y22655565D02*
X46951067Y22693660D01*
X46951067Y22693660D02*
X47103448Y22693660D01*
X47103448Y22693660D02*
X47179639Y22655565D01*
X47179639Y22655565D02*
X47217734Y22617470D01*
X47217734Y22617470D02*
X47255829Y22541279D01*
X47255829Y22541279D02*
X47255829Y22503184D01*
X47255829Y22503184D02*
X47217734Y22426994D01*
X47217734Y22426994D02*
X47179639Y22388898D01*
X47179639Y22388898D02*
X47103448Y22350803D01*
X47103448Y22350803D02*
X46951067Y22350803D01*
X46951067Y22350803D02*
X46874877Y22312708D01*
X46874877Y22312708D02*
X46836782Y22274613D01*
X46836782Y22274613D02*
X46798686Y22198422D01*
X46798686Y22198422D02*
X46798686Y22046041D01*
X46798686Y22046041D02*
X46836782Y21969851D01*
X46836782Y21969851D02*
X46874877Y21931755D01*
X46874877Y21931755D02*
X46951067Y21893660D01*
X46951067Y21893660D02*
X47103448Y21893660D01*
X47103448Y21893660D02*
X47179639Y21931755D01*
X47179639Y21931755D02*
X47217734Y21969851D01*
X47217734Y21969851D02*
X47255829Y22046041D01*
X47255829Y22046041D02*
X47255829Y22198422D01*
X47255829Y22198422D02*
X47217734Y22274613D01*
X47217734Y22274613D02*
X47179639Y22312708D01*
X47179639Y22312708D02*
X47103448Y22350803D01*
X47941544Y21931755D02*
X47865353Y21893660D01*
X47865353Y21893660D02*
X47712972Y21893660D01*
X47712972Y21893660D02*
X47636782Y21931755D01*
X47636782Y21931755D02*
X47598687Y21969851D01*
X47598687Y21969851D02*
X47560591Y22046041D01*
X47560591Y22046041D02*
X47560591Y22274613D01*
X47560591Y22274613D02*
X47598687Y22350803D01*
X47598687Y22350803D02*
X47636782Y22388898D01*
X47636782Y22388898D02*
X47712972Y22426994D01*
X47712972Y22426994D02*
X47865353Y22426994D01*
X47865353Y22426994D02*
X47941544Y22388898D01*
X48284401Y21893660D02*
X48284401Y22426994D01*
X48284401Y22350803D02*
X48322496Y22388898D01*
X48322496Y22388898D02*
X48398686Y22426994D01*
X48398686Y22426994D02*
X48512972Y22426994D01*
X48512972Y22426994D02*
X48589163Y22388898D01*
X48589163Y22388898D02*
X48627258Y22312708D01*
X48627258Y22312708D02*
X48627258Y21893660D01*
X48627258Y22312708D02*
X48665353Y22388898D01*
X48665353Y22388898D02*
X48741544Y22426994D01*
X48741544Y22426994D02*
X48855829Y22426994D01*
X48855829Y22426994D02*
X48932020Y22388898D01*
X48932020Y22388898D02*
X48970115Y22312708D01*
X48970115Y22312708D02*
X48970115Y21893660D01*
X39674874Y21139039D02*
X39979636Y21139039D01*
X39789160Y20605705D02*
X39789160Y21291420D01*
X39789160Y21291420D02*
X39827255Y21367610D01*
X39827255Y21367610D02*
X39903445Y21405705D01*
X39903445Y21405705D02*
X39979636Y21405705D01*
X40360588Y20605705D02*
X40284398Y20643800D01*
X40284398Y20643800D02*
X40246303Y20681896D01*
X40246303Y20681896D02*
X40208207Y20758086D01*
X40208207Y20758086D02*
X40208207Y20986658D01*
X40208207Y20986658D02*
X40246303Y21062848D01*
X40246303Y21062848D02*
X40284398Y21100943D01*
X40284398Y21100943D02*
X40360588Y21139039D01*
X40360588Y21139039D02*
X40474874Y21139039D01*
X40474874Y21139039D02*
X40551065Y21100943D01*
X40551065Y21100943D02*
X40589160Y21062848D01*
X40589160Y21062848D02*
X40627255Y20986658D01*
X40627255Y20986658D02*
X40627255Y20758086D01*
X40627255Y20758086D02*
X40589160Y20681896D01*
X40589160Y20681896D02*
X40551065Y20643800D01*
X40551065Y20643800D02*
X40474874Y20605705D01*
X40474874Y20605705D02*
X40360588Y20605705D01*
X40970113Y20605705D02*
X40970113Y21139039D01*
X40970113Y20986658D02*
X41008208Y21062848D01*
X41008208Y21062848D02*
X41046303Y21100943D01*
X41046303Y21100943D02*
X41122494Y21139039D01*
X41122494Y21139039D02*
X41198684Y21139039D01*
X42074875Y20605705D02*
X42074875Y21139039D01*
X42074875Y21405705D02*
X42036779Y21367610D01*
X42036779Y21367610D02*
X42074875Y21329515D01*
X42074875Y21329515D02*
X42112970Y21367610D01*
X42112970Y21367610D02*
X42074875Y21405705D01*
X42074875Y21405705D02*
X42074875Y21329515D01*
X42798684Y20605705D02*
X42798684Y21405705D01*
X42798684Y20643800D02*
X42722493Y20605705D01*
X42722493Y20605705D02*
X42570112Y20605705D01*
X42570112Y20605705D02*
X42493922Y20643800D01*
X42493922Y20643800D02*
X42455827Y20681896D01*
X42455827Y20681896D02*
X42417731Y20758086D01*
X42417731Y20758086D02*
X42417731Y20986658D01*
X42417731Y20986658D02*
X42455827Y21062848D01*
X42455827Y21062848D02*
X42493922Y21100943D01*
X42493922Y21100943D02*
X42570112Y21139039D01*
X42570112Y21139039D02*
X42722493Y21139039D01*
X42722493Y21139039D02*
X42798684Y21100943D01*
X43484399Y20643800D02*
X43408208Y20605705D01*
X43408208Y20605705D02*
X43255827Y20605705D01*
X43255827Y20605705D02*
X43179637Y20643800D01*
X43179637Y20643800D02*
X43141541Y20719991D01*
X43141541Y20719991D02*
X43141541Y21024753D01*
X43141541Y21024753D02*
X43179637Y21100943D01*
X43179637Y21100943D02*
X43255827Y21139039D01*
X43255827Y21139039D02*
X43408208Y21139039D01*
X43408208Y21139039D02*
X43484399Y21100943D01*
X43484399Y21100943D02*
X43522494Y21024753D01*
X43522494Y21024753D02*
X43522494Y20948562D01*
X43522494Y20948562D02*
X43141541Y20872372D01*
X44208208Y20605705D02*
X44208208Y21024753D01*
X44208208Y21024753D02*
X44170113Y21100943D01*
X44170113Y21100943D02*
X44093922Y21139039D01*
X44093922Y21139039D02*
X43941541Y21139039D01*
X43941541Y21139039D02*
X43865351Y21100943D01*
X44208208Y20643800D02*
X44132017Y20605705D01*
X44132017Y20605705D02*
X43941541Y20605705D01*
X43941541Y20605705D02*
X43865351Y20643800D01*
X43865351Y20643800D02*
X43827255Y20719991D01*
X43827255Y20719991D02*
X43827255Y20796181D01*
X43827255Y20796181D02*
X43865351Y20872372D01*
X43865351Y20872372D02*
X43941541Y20910467D01*
X43941541Y20910467D02*
X44132017Y20910467D01*
X44132017Y20910467D02*
X44208208Y20948562D01*
X44703446Y20605705D02*
X44627256Y20643800D01*
X44627256Y20643800D02*
X44589161Y20719991D01*
X44589161Y20719991D02*
X44589161Y21405705D01*
X45617733Y21139039D02*
X45617733Y20339039D01*
X45617733Y21100943D02*
X45693923Y21139039D01*
X45693923Y21139039D02*
X45846304Y21139039D01*
X45846304Y21139039D02*
X45922495Y21100943D01*
X45922495Y21100943D02*
X45960590Y21062848D01*
X45960590Y21062848D02*
X45998685Y20986658D01*
X45998685Y20986658D02*
X45998685Y20758086D01*
X45998685Y20758086D02*
X45960590Y20681896D01*
X45960590Y20681896D02*
X45922495Y20643800D01*
X45922495Y20643800D02*
X45846304Y20605705D01*
X45846304Y20605705D02*
X45693923Y20605705D01*
X45693923Y20605705D02*
X45617733Y20643800D01*
X46646305Y20643800D02*
X46570114Y20605705D01*
X46570114Y20605705D02*
X46417733Y20605705D01*
X46417733Y20605705D02*
X46341543Y20643800D01*
X46341543Y20643800D02*
X46303447Y20719991D01*
X46303447Y20719991D02*
X46303447Y21024753D01*
X46303447Y21024753D02*
X46341543Y21100943D01*
X46341543Y21100943D02*
X46417733Y21139039D01*
X46417733Y21139039D02*
X46570114Y21139039D01*
X46570114Y21139039D02*
X46646305Y21100943D01*
X46646305Y21100943D02*
X46684400Y21024753D01*
X46684400Y21024753D02*
X46684400Y20948562D01*
X46684400Y20948562D02*
X46303447Y20872372D01*
X47027257Y20605705D02*
X47027257Y21139039D01*
X47027257Y20986658D02*
X47065352Y21062848D01*
X47065352Y21062848D02*
X47103447Y21100943D01*
X47103447Y21100943D02*
X47179638Y21139039D01*
X47179638Y21139039D02*
X47255828Y21139039D01*
X47408209Y21139039D02*
X47712971Y21139039D01*
X47522495Y20605705D02*
X47522495Y21291420D01*
X47522495Y21291420D02*
X47560590Y21367610D01*
X47560590Y21367610D02*
X47636780Y21405705D01*
X47636780Y21405705D02*
X47712971Y21405705D01*
X48093923Y20605705D02*
X48017733Y20643800D01*
X48017733Y20643800D02*
X47979638Y20681896D01*
X47979638Y20681896D02*
X47941542Y20758086D01*
X47941542Y20758086D02*
X47941542Y20986658D01*
X47941542Y20986658D02*
X47979638Y21062848D01*
X47979638Y21062848D02*
X48017733Y21100943D01*
X48017733Y21100943D02*
X48093923Y21139039D01*
X48093923Y21139039D02*
X48208209Y21139039D01*
X48208209Y21139039D02*
X48284400Y21100943D01*
X48284400Y21100943D02*
X48322495Y21062848D01*
X48322495Y21062848D02*
X48360590Y20986658D01*
X48360590Y20986658D02*
X48360590Y20758086D01*
X48360590Y20758086D02*
X48322495Y20681896D01*
X48322495Y20681896D02*
X48284400Y20643800D01*
X48284400Y20643800D02*
X48208209Y20605705D01*
X48208209Y20605705D02*
X48093923Y20605705D01*
X48703448Y20605705D02*
X48703448Y21139039D01*
X48703448Y20986658D02*
X48741543Y21062848D01*
X48741543Y21062848D02*
X48779638Y21100943D01*
X48779638Y21100943D02*
X48855829Y21139039D01*
X48855829Y21139039D02*
X48932019Y21139039D01*
X49198686Y20605705D02*
X49198686Y21139039D01*
X49198686Y21062848D02*
X49236781Y21100943D01*
X49236781Y21100943D02*
X49312971Y21139039D01*
X49312971Y21139039D02*
X49427257Y21139039D01*
X49427257Y21139039D02*
X49503448Y21100943D01*
X49503448Y21100943D02*
X49541543Y21024753D01*
X49541543Y21024753D02*
X49541543Y20605705D01*
X49541543Y21024753D02*
X49579638Y21100943D01*
X49579638Y21100943D02*
X49655829Y21139039D01*
X49655829Y21139039D02*
X49770114Y21139039D01*
X49770114Y21139039D02*
X49846305Y21100943D01*
X49846305Y21100943D02*
X49884400Y21024753D01*
X49884400Y21024753D02*
X49884400Y20605705D01*
X50608210Y20605705D02*
X50608210Y21024753D01*
X50608210Y21024753D02*
X50570115Y21100943D01*
X50570115Y21100943D02*
X50493924Y21139039D01*
X50493924Y21139039D02*
X50341543Y21139039D01*
X50341543Y21139039D02*
X50265353Y21100943D01*
X50608210Y20643800D02*
X50532019Y20605705D01*
X50532019Y20605705D02*
X50341543Y20605705D01*
X50341543Y20605705D02*
X50265353Y20643800D01*
X50265353Y20643800D02*
X50227257Y20719991D01*
X50227257Y20719991D02*
X50227257Y20796181D01*
X50227257Y20796181D02*
X50265353Y20872372D01*
X50265353Y20872372D02*
X50341543Y20910467D01*
X50341543Y20910467D02*
X50532019Y20910467D01*
X50532019Y20910467D02*
X50608210Y20948562D01*
X50989163Y21139039D02*
X50989163Y20605705D01*
X50989163Y21062848D02*
X51027258Y21100943D01*
X51027258Y21100943D02*
X51103448Y21139039D01*
X51103448Y21139039D02*
X51217734Y21139039D01*
X51217734Y21139039D02*
X51293925Y21100943D01*
X51293925Y21100943D02*
X51332020Y21024753D01*
X51332020Y21024753D02*
X51332020Y20605705D01*
X52055830Y20643800D02*
X51979639Y20605705D01*
X51979639Y20605705D02*
X51827258Y20605705D01*
X51827258Y20605705D02*
X51751068Y20643800D01*
X51751068Y20643800D02*
X51712973Y20681896D01*
X51712973Y20681896D02*
X51674877Y20758086D01*
X51674877Y20758086D02*
X51674877Y20986658D01*
X51674877Y20986658D02*
X51712973Y21062848D01*
X51712973Y21062848D02*
X51751068Y21100943D01*
X51751068Y21100943D02*
X51827258Y21139039D01*
X51827258Y21139039D02*
X51979639Y21139039D01*
X51979639Y21139039D02*
X52055830Y21100943D01*
X52703449Y20643800D02*
X52627258Y20605705D01*
X52627258Y20605705D02*
X52474877Y20605705D01*
X52474877Y20605705D02*
X52398687Y20643800D01*
X52398687Y20643800D02*
X52360591Y20719991D01*
X52360591Y20719991D02*
X52360591Y21024753D01*
X52360591Y21024753D02*
X52398687Y21100943D01*
X52398687Y21100943D02*
X52474877Y21139039D01*
X52474877Y21139039D02*
X52627258Y21139039D01*
X52627258Y21139039D02*
X52703449Y21100943D01*
X52703449Y21100943D02*
X52741544Y21024753D01*
X52741544Y21024753D02*
X52741544Y20948562D01*
X52741544Y20948562D02*
X52360591Y20872372D01*
D10*
X2571095Y48645051D02*
X2571095Y48168861D01*
X2285380Y48740289D02*
X3285380Y48406956D01*
X3285380Y48406956D02*
X2285380Y48073623D01*
X2285380Y47740289D02*
X3285380Y47740289D01*
X2285380Y47264099D02*
X3285380Y47264099D01*
X3285380Y47264099D02*
X2285380Y46692671D01*
X2285380Y46692671D02*
X3285380Y46692671D01*
X3190142Y46264099D02*
X3237761Y46216480D01*
X3237761Y46216480D02*
X3285380Y46121242D01*
X3285380Y46121242D02*
X3285380Y45883147D01*
X3285380Y45883147D02*
X3237761Y45787909D01*
X3237761Y45787909D02*
X3190142Y45740290D01*
X3190142Y45740290D02*
X3094904Y45692671D01*
X3094904Y45692671D02*
X2999666Y45692671D01*
X2999666Y45692671D02*
X2856809Y45740290D01*
X2856809Y45740290D02*
X2285380Y46311718D01*
X2285380Y46311718D02*
X2285380Y45692671D01*
X3333000Y44549814D02*
X2047285Y45406956D01*
X2285380Y44216480D02*
X3285380Y44216480D01*
X3285380Y44216480D02*
X3285380Y43835528D01*
X3285380Y43835528D02*
X3237761Y43740290D01*
X3237761Y43740290D02*
X3190142Y43692671D01*
X3190142Y43692671D02*
X3094904Y43645052D01*
X3094904Y43645052D02*
X2952047Y43645052D01*
X2952047Y43645052D02*
X2856809Y43692671D01*
X2856809Y43692671D02*
X2809190Y43740290D01*
X2809190Y43740290D02*
X2761571Y43835528D01*
X2761571Y43835528D02*
X2761571Y44216480D01*
X2380619Y42645052D02*
X2333000Y42692671D01*
X2333000Y42692671D02*
X2285380Y42835528D01*
X2285380Y42835528D02*
X2285380Y42930766D01*
X2285380Y42930766D02*
X2333000Y43073623D01*
X2333000Y43073623D02*
X2428238Y43168861D01*
X2428238Y43168861D02*
X2523476Y43216480D01*
X2523476Y43216480D02*
X2713952Y43264099D01*
X2713952Y43264099D02*
X2856809Y43264099D01*
X2856809Y43264099D02*
X3047285Y43216480D01*
X3047285Y43216480D02*
X3142523Y43168861D01*
X3142523Y43168861D02*
X3237761Y43073623D01*
X3237761Y43073623D02*
X3285380Y42930766D01*
X3285380Y42930766D02*
X3285380Y42835528D01*
X3285380Y42835528D02*
X3237761Y42692671D01*
X3237761Y42692671D02*
X3190142Y42645052D01*
X2285380Y41692671D02*
X2285380Y42264099D01*
X2285380Y41978385D02*
X3285380Y41978385D01*
X3285380Y41978385D02*
X3142523Y42073623D01*
X3142523Y42073623D02*
X3047285Y42168861D01*
X3047285Y42168861D02*
X2999666Y42264099D01*
D11*
X8412969Y25636222D02*
X8541541Y25593365D01*
X8541541Y25593365D02*
X8584398Y25550508D01*
X8584398Y25550508D02*
X8627255Y25464793D01*
X8627255Y25464793D02*
X8627255Y25336222D01*
X8627255Y25336222D02*
X8584398Y25250508D01*
X8584398Y25250508D02*
X8541541Y25207650D01*
X8541541Y25207650D02*
X8455826Y25164793D01*
X8455826Y25164793D02*
X8112969Y25164793D01*
X8112969Y25164793D02*
X8112969Y26064793D01*
X8112969Y26064793D02*
X8412969Y26064793D01*
X8412969Y26064793D02*
X8498684Y26021936D01*
X8498684Y26021936D02*
X8541541Y25979079D01*
X8541541Y25979079D02*
X8584398Y25893365D01*
X8584398Y25893365D02*
X8584398Y25807650D01*
X8584398Y25807650D02*
X8541541Y25721936D01*
X8541541Y25721936D02*
X8498684Y25679079D01*
X8498684Y25679079D02*
X8412969Y25636222D01*
X8412969Y25636222D02*
X8112969Y25636222D01*
X9527255Y25250508D02*
X9484398Y25207650D01*
X9484398Y25207650D02*
X9355826Y25164793D01*
X9355826Y25164793D02*
X9270112Y25164793D01*
X9270112Y25164793D02*
X9141541Y25207650D01*
X9141541Y25207650D02*
X9055826Y25293365D01*
X9055826Y25293365D02*
X9012969Y25379079D01*
X9012969Y25379079D02*
X8970112Y25550508D01*
X8970112Y25550508D02*
X8970112Y25679079D01*
X8970112Y25679079D02*
X9012969Y25850508D01*
X9012969Y25850508D02*
X9055826Y25936222D01*
X9055826Y25936222D02*
X9141541Y26021936D01*
X9141541Y26021936D02*
X9270112Y26064793D01*
X9270112Y26064793D02*
X9355826Y26064793D01*
X9355826Y26064793D02*
X9484398Y26021936D01*
X9484398Y26021936D02*
X9527255Y25979079D01*
X9912969Y25164793D02*
X9912969Y26064793D01*
X10212969Y26064793D02*
X10727255Y26064793D01*
X10470112Y25164793D02*
X10470112Y26064793D01*
X11027254Y25507650D02*
X11712969Y25507650D01*
X12441540Y25636222D02*
X12570112Y25593365D01*
X12570112Y25593365D02*
X12612969Y25550508D01*
X12612969Y25550508D02*
X12655826Y25464793D01*
X12655826Y25464793D02*
X12655826Y25336222D01*
X12655826Y25336222D02*
X12612969Y25250508D01*
X12612969Y25250508D02*
X12570112Y25207650D01*
X12570112Y25207650D02*
X12484397Y25164793D01*
X12484397Y25164793D02*
X12141540Y25164793D01*
X12141540Y25164793D02*
X12141540Y26064793D01*
X12141540Y26064793D02*
X12441540Y26064793D01*
X12441540Y26064793D02*
X12527255Y26021936D01*
X12527255Y26021936D02*
X12570112Y25979079D01*
X12570112Y25979079D02*
X12612969Y25893365D01*
X12612969Y25893365D02*
X12612969Y25807650D01*
X12612969Y25807650D02*
X12570112Y25721936D01*
X12570112Y25721936D02*
X12527255Y25679079D01*
X12527255Y25679079D02*
X12441540Y25636222D01*
X12441540Y25636222D02*
X12141540Y25636222D01*
X12998683Y25421936D02*
X13427255Y25421936D01*
X12912969Y25164793D02*
X13212969Y26064793D01*
X13212969Y26064793D02*
X13512969Y25164793D01*
X14070112Y26064793D02*
X14070112Y25421936D01*
X14070112Y25421936D02*
X14027255Y25293365D01*
X14027255Y25293365D02*
X13941541Y25207650D01*
X13941541Y25207650D02*
X13812969Y25164793D01*
X13812969Y25164793D02*
X13727255Y25164793D01*
X14455826Y25421936D02*
X14884398Y25421936D01*
X14370112Y25164793D02*
X14670112Y26064793D01*
X14670112Y26064793D02*
X14970112Y25164793D01*
X7984398Y24615843D02*
X8498684Y24615843D01*
X8241541Y23715843D02*
X8241541Y24615843D01*
X9141540Y23758700D02*
X9055826Y23715843D01*
X9055826Y23715843D02*
X8884398Y23715843D01*
X8884398Y23715843D02*
X8798683Y23758700D01*
X8798683Y23758700D02*
X8755826Y23844415D01*
X8755826Y23844415D02*
X8755826Y24187272D01*
X8755826Y24187272D02*
X8798683Y24272986D01*
X8798683Y24272986D02*
X8884398Y24315843D01*
X8884398Y24315843D02*
X9055826Y24315843D01*
X9055826Y24315843D02*
X9141540Y24272986D01*
X9141540Y24272986D02*
X9184398Y24187272D01*
X9184398Y24187272D02*
X9184398Y24101558D01*
X9184398Y24101558D02*
X8755826Y24015843D01*
X9698684Y23715843D02*
X9612969Y23758700D01*
X9612969Y23758700D02*
X9570112Y23844415D01*
X9570112Y23844415D02*
X9570112Y24615843D01*
X10384398Y23758700D02*
X10298684Y23715843D01*
X10298684Y23715843D02*
X10127256Y23715843D01*
X10127256Y23715843D02*
X10041541Y23758700D01*
X10041541Y23758700D02*
X9998684Y23844415D01*
X9998684Y23844415D02*
X9998684Y24187272D01*
X9998684Y24187272D02*
X10041541Y24272986D01*
X10041541Y24272986D02*
X10127256Y24315843D01*
X10127256Y24315843D02*
X10298684Y24315843D01*
X10298684Y24315843D02*
X10384398Y24272986D01*
X10384398Y24272986D02*
X10427256Y24187272D01*
X10427256Y24187272D02*
X10427256Y24101558D01*
X10427256Y24101558D02*
X9998684Y24015843D01*
X10812970Y23715843D02*
X10812970Y24315843D01*
X10812970Y24230129D02*
X10855827Y24272986D01*
X10855827Y24272986D02*
X10941542Y24315843D01*
X10941542Y24315843D02*
X11070113Y24315843D01*
X11070113Y24315843D02*
X11155827Y24272986D01*
X11155827Y24272986D02*
X11198685Y24187272D01*
X11198685Y24187272D02*
X11198685Y23715843D01*
X11198685Y24187272D02*
X11241542Y24272986D01*
X11241542Y24272986D02*
X11327256Y24315843D01*
X11327256Y24315843D02*
X11455827Y24315843D01*
X11455827Y24315843D02*
X11541542Y24272986D01*
X11541542Y24272986D02*
X11584399Y24187272D01*
X11584399Y24187272D02*
X11584399Y23715843D01*
X12355827Y23758700D02*
X12270113Y23715843D01*
X12270113Y23715843D02*
X12098685Y23715843D01*
X12098685Y23715843D02*
X12012970Y23758700D01*
X12012970Y23758700D02*
X11970113Y23844415D01*
X11970113Y23844415D02*
X11970113Y24187272D01*
X11970113Y24187272D02*
X12012970Y24272986D01*
X12012970Y24272986D02*
X12098685Y24315843D01*
X12098685Y24315843D02*
X12270113Y24315843D01*
X12270113Y24315843D02*
X12355827Y24272986D01*
X12355827Y24272986D02*
X12398685Y24187272D01*
X12398685Y24187272D02*
X12398685Y24101558D01*
X12398685Y24101558D02*
X11970113Y24015843D01*
X12655828Y24315843D02*
X12998685Y24315843D01*
X12784399Y24615843D02*
X12784399Y23844415D01*
X12784399Y23844415D02*
X12827256Y23758700D01*
X12827256Y23758700D02*
X12912971Y23715843D01*
X12912971Y23715843D02*
X12998685Y23715843D01*
X13298685Y23715843D02*
X13298685Y24315843D01*
X13298685Y24144415D02*
X13341542Y24230129D01*
X13341542Y24230129D02*
X13384400Y24272986D01*
X13384400Y24272986D02*
X13470114Y24315843D01*
X13470114Y24315843D02*
X13555828Y24315843D01*
X13770114Y24315843D02*
X13984400Y23715843D01*
X14198685Y24315843D02*
X13984400Y23715843D01*
X13984400Y23715843D02*
X13898685Y23501558D01*
X13898685Y23501558D02*
X13855828Y23458700D01*
X13855828Y23458700D02*
X13770114Y23415843D01*
X15184399Y23758700D02*
X15270113Y23715843D01*
X15270113Y23715843D02*
X15441542Y23715843D01*
X15441542Y23715843D02*
X15527256Y23758700D01*
X15527256Y23758700D02*
X15570113Y23844415D01*
X15570113Y23844415D02*
X15570113Y23887272D01*
X15570113Y23887272D02*
X15527256Y23972986D01*
X15527256Y23972986D02*
X15441542Y24015843D01*
X15441542Y24015843D02*
X15312971Y24015843D01*
X15312971Y24015843D02*
X15227256Y24058700D01*
X15227256Y24058700D02*
X15184399Y24144415D01*
X15184399Y24144415D02*
X15184399Y24187272D01*
X15184399Y24187272D02*
X15227256Y24272986D01*
X15227256Y24272986D02*
X15312971Y24315843D01*
X15312971Y24315843D02*
X15441542Y24315843D01*
X15441542Y24315843D02*
X15527256Y24272986D01*
X15870113Y24315843D02*
X16084399Y23715843D01*
X16298684Y24315843D02*
X16084399Y23715843D01*
X16084399Y23715843D02*
X15998684Y23501558D01*
X15998684Y23501558D02*
X15955827Y23458700D01*
X15955827Y23458700D02*
X15870113Y23415843D01*
X16598684Y23758700D02*
X16684398Y23715843D01*
X16684398Y23715843D02*
X16855827Y23715843D01*
X16855827Y23715843D02*
X16941541Y23758700D01*
X16941541Y23758700D02*
X16984398Y23844415D01*
X16984398Y23844415D02*
X16984398Y23887272D01*
X16984398Y23887272D02*
X16941541Y23972986D01*
X16941541Y23972986D02*
X16855827Y24015843D01*
X16855827Y24015843D02*
X16727256Y24015843D01*
X16727256Y24015843D02*
X16641541Y24058700D01*
X16641541Y24058700D02*
X16598684Y24144415D01*
X16598684Y24144415D02*
X16598684Y24187272D01*
X16598684Y24187272D02*
X16641541Y24272986D01*
X16641541Y24272986D02*
X16727256Y24315843D01*
X16727256Y24315843D02*
X16855827Y24315843D01*
X16855827Y24315843D02*
X16941541Y24272986D01*
X17241541Y24315843D02*
X17584398Y24315843D01*
X17370112Y24615843D02*
X17370112Y23844415D01*
X17370112Y23844415D02*
X17412969Y23758700D01*
X17412969Y23758700D02*
X17498684Y23715843D01*
X17498684Y23715843D02*
X17584398Y23715843D01*
X18227255Y23758700D02*
X18141541Y23715843D01*
X18141541Y23715843D02*
X17970113Y23715843D01*
X17970113Y23715843D02*
X17884398Y23758700D01*
X17884398Y23758700D02*
X17841541Y23844415D01*
X17841541Y23844415D02*
X17841541Y24187272D01*
X17841541Y24187272D02*
X17884398Y24272986D01*
X17884398Y24272986D02*
X17970113Y24315843D01*
X17970113Y24315843D02*
X18141541Y24315843D01*
X18141541Y24315843D02*
X18227255Y24272986D01*
X18227255Y24272986D02*
X18270113Y24187272D01*
X18270113Y24187272D02*
X18270113Y24101558D01*
X18270113Y24101558D02*
X17841541Y24015843D01*
X18655827Y23715843D02*
X18655827Y24315843D01*
X18655827Y24230129D02*
X18698684Y24272986D01*
X18698684Y24272986D02*
X18784399Y24315843D01*
X18784399Y24315843D02*
X18912970Y24315843D01*
X18912970Y24315843D02*
X18998684Y24272986D01*
X18998684Y24272986D02*
X19041542Y24187272D01*
X19041542Y24187272D02*
X19041542Y23715843D01*
X19041542Y24187272D02*
X19084399Y24272986D01*
X19084399Y24272986D02*
X19170113Y24315843D01*
X19170113Y24315843D02*
X19298684Y24315843D01*
X19298684Y24315843D02*
X19384399Y24272986D01*
X19384399Y24272986D02*
X19427256Y24187272D01*
X19427256Y24187272D02*
X19427256Y23715843D01*
X20541541Y23715843D02*
X20541541Y24615843D01*
X20541541Y24615843D02*
X20841541Y23972986D01*
X20841541Y23972986D02*
X21141541Y24615843D01*
X21141541Y24615843D02*
X21141541Y23715843D01*
X21955827Y23715843D02*
X21955827Y24187272D01*
X21955827Y24187272D02*
X21912969Y24272986D01*
X21912969Y24272986D02*
X21827255Y24315843D01*
X21827255Y24315843D02*
X21655827Y24315843D01*
X21655827Y24315843D02*
X21570112Y24272986D01*
X21955827Y23758700D02*
X21870112Y23715843D01*
X21870112Y23715843D02*
X21655827Y23715843D01*
X21655827Y23715843D02*
X21570112Y23758700D01*
X21570112Y23758700D02*
X21527255Y23844415D01*
X21527255Y23844415D02*
X21527255Y23930129D01*
X21527255Y23930129D02*
X21570112Y24015843D01*
X21570112Y24015843D02*
X21655827Y24058700D01*
X21655827Y24058700D02*
X21870112Y24058700D01*
X21870112Y24058700D02*
X21955827Y24101558D01*
X22384398Y23715843D02*
X22384398Y24315843D01*
X22384398Y24615843D02*
X22341541Y24572986D01*
X22341541Y24572986D02*
X22384398Y24530129D01*
X22384398Y24530129D02*
X22427255Y24572986D01*
X22427255Y24572986D02*
X22384398Y24615843D01*
X22384398Y24615843D02*
X22384398Y24530129D01*
X22812969Y24315843D02*
X22812969Y23715843D01*
X22812969Y24230129D02*
X22855826Y24272986D01*
X22855826Y24272986D02*
X22941541Y24315843D01*
X22941541Y24315843D02*
X23070112Y24315843D01*
X23070112Y24315843D02*
X23155826Y24272986D01*
X23155826Y24272986D02*
X23198684Y24187272D01*
X23198684Y24187272D02*
X23198684Y23715843D01*
X23627255Y23715843D02*
X23627255Y24615843D01*
X23627255Y24272986D02*
X23712970Y24315843D01*
X23712970Y24315843D02*
X23884398Y24315843D01*
X23884398Y24315843D02*
X23970112Y24272986D01*
X23970112Y24272986D02*
X24012970Y24230129D01*
X24012970Y24230129D02*
X24055827Y24144415D01*
X24055827Y24144415D02*
X24055827Y23887272D01*
X24055827Y23887272D02*
X24012970Y23801558D01*
X24012970Y23801558D02*
X23970112Y23758700D01*
X23970112Y23758700D02*
X23884398Y23715843D01*
X23884398Y23715843D02*
X23712970Y23715843D01*
X23712970Y23715843D02*
X23627255Y23758700D01*
X24570113Y23715843D02*
X24484398Y23758700D01*
X24484398Y23758700D02*
X24441541Y23801558D01*
X24441541Y23801558D02*
X24398684Y23887272D01*
X24398684Y23887272D02*
X24398684Y24144415D01*
X24398684Y24144415D02*
X24441541Y24230129D01*
X24441541Y24230129D02*
X24484398Y24272986D01*
X24484398Y24272986D02*
X24570113Y24315843D01*
X24570113Y24315843D02*
X24698684Y24315843D01*
X24698684Y24315843D02*
X24784398Y24272986D01*
X24784398Y24272986D02*
X24827256Y24230129D01*
X24827256Y24230129D02*
X24870113Y24144415D01*
X24870113Y24144415D02*
X24870113Y23887272D01*
X24870113Y23887272D02*
X24827256Y23801558D01*
X24827256Y23801558D02*
X24784398Y23758700D01*
X24784398Y23758700D02*
X24698684Y23715843D01*
X24698684Y23715843D02*
X24570113Y23715843D01*
X25641542Y23715843D02*
X25641542Y24187272D01*
X25641542Y24187272D02*
X25598684Y24272986D01*
X25598684Y24272986D02*
X25512970Y24315843D01*
X25512970Y24315843D02*
X25341542Y24315843D01*
X25341542Y24315843D02*
X25255827Y24272986D01*
X25641542Y23758700D02*
X25555827Y23715843D01*
X25555827Y23715843D02*
X25341542Y23715843D01*
X25341542Y23715843D02*
X25255827Y23758700D01*
X25255827Y23758700D02*
X25212970Y23844415D01*
X25212970Y23844415D02*
X25212970Y23930129D01*
X25212970Y23930129D02*
X25255827Y24015843D01*
X25255827Y24015843D02*
X25341542Y24058700D01*
X25341542Y24058700D02*
X25555827Y24058700D01*
X25555827Y24058700D02*
X25641542Y24101558D01*
X26070113Y23715843D02*
X26070113Y24315843D01*
X26070113Y24144415D02*
X26112970Y24230129D01*
X26112970Y24230129D02*
X26155828Y24272986D01*
X26155828Y24272986D02*
X26241542Y24315843D01*
X26241542Y24315843D02*
X26327256Y24315843D01*
X27012971Y23715843D02*
X27012971Y24615843D01*
X27012971Y23758700D02*
X26927256Y23715843D01*
X26927256Y23715843D02*
X26755828Y23715843D01*
X26755828Y23715843D02*
X26670113Y23758700D01*
X26670113Y23758700D02*
X26627256Y23801558D01*
X26627256Y23801558D02*
X26584399Y23887272D01*
X26584399Y23887272D02*
X26584399Y24144415D01*
X26584399Y24144415D02*
X26627256Y24230129D01*
X26627256Y24230129D02*
X26670113Y24272986D01*
X26670113Y24272986D02*
X26755828Y24315843D01*
X26755828Y24315843D02*
X26927256Y24315843D01*
X26927256Y24315843D02*
X27012971Y24272986D01*
X27998685Y24615843D02*
X28298685Y23715843D01*
X28298685Y23715843D02*
X28598685Y24615843D01*
X29370114Y23715843D02*
X28855828Y23715843D01*
X29112971Y23715843D02*
X29112971Y24615843D01*
X29112971Y24615843D02*
X29027257Y24487272D01*
X29027257Y24487272D02*
X28941542Y24401558D01*
X28941542Y24401558D02*
X28855828Y24358700D01*
X8112969Y20817943D02*
X8112969Y21717943D01*
X8112969Y21717943D02*
X8455826Y21717943D01*
X8455826Y21717943D02*
X8541541Y21675086D01*
X8541541Y21675086D02*
X8584398Y21632229D01*
X8584398Y21632229D02*
X8627255Y21546515D01*
X8627255Y21546515D02*
X8627255Y21417943D01*
X8627255Y21417943D02*
X8584398Y21332229D01*
X8584398Y21332229D02*
X8541541Y21289372D01*
X8541541Y21289372D02*
X8455826Y21246515D01*
X8455826Y21246515D02*
X8112969Y21246515D01*
X9398684Y20817943D02*
X9398684Y21289372D01*
X9398684Y21289372D02*
X9355826Y21375086D01*
X9355826Y21375086D02*
X9270112Y21417943D01*
X9270112Y21417943D02*
X9098684Y21417943D01*
X9098684Y21417943D02*
X9012969Y21375086D01*
X9398684Y20860800D02*
X9312969Y20817943D01*
X9312969Y20817943D02*
X9098684Y20817943D01*
X9098684Y20817943D02*
X9012969Y20860800D01*
X9012969Y20860800D02*
X8970112Y20946515D01*
X8970112Y20946515D02*
X8970112Y21032229D01*
X8970112Y21032229D02*
X9012969Y21117943D01*
X9012969Y21117943D02*
X9098684Y21160800D01*
X9098684Y21160800D02*
X9312969Y21160800D01*
X9312969Y21160800D02*
X9398684Y21203658D01*
X9827255Y20817943D02*
X9827255Y21417943D01*
X9827255Y21246515D02*
X9870112Y21332229D01*
X9870112Y21332229D02*
X9912970Y21375086D01*
X9912970Y21375086D02*
X9998684Y21417943D01*
X9998684Y21417943D02*
X10084398Y21417943D01*
X10384398Y20817943D02*
X10384398Y21417943D01*
X10384398Y21246515D02*
X10427255Y21332229D01*
X10427255Y21332229D02*
X10470113Y21375086D01*
X10470113Y21375086D02*
X10555827Y21417943D01*
X10555827Y21417943D02*
X10641541Y21417943D01*
X10855827Y21417943D02*
X11070113Y20817943D01*
X11284398Y21417943D02*
X11070113Y20817943D01*
X11070113Y20817943D02*
X10984398Y20603658D01*
X10984398Y20603658D02*
X10941541Y20560800D01*
X10941541Y20560800D02*
X10855827Y20517943D01*
X12698684Y20817943D02*
X12698684Y21289372D01*
X12698684Y21289372D02*
X12655826Y21375086D01*
X12655826Y21375086D02*
X12570112Y21417943D01*
X12570112Y21417943D02*
X12398684Y21417943D01*
X12398684Y21417943D02*
X12312969Y21375086D01*
X12698684Y20860800D02*
X12612969Y20817943D01*
X12612969Y20817943D02*
X12398684Y20817943D01*
X12398684Y20817943D02*
X12312969Y20860800D01*
X12312969Y20860800D02*
X12270112Y20946515D01*
X12270112Y20946515D02*
X12270112Y21032229D01*
X12270112Y21032229D02*
X12312969Y21117943D01*
X12312969Y21117943D02*
X12398684Y21160800D01*
X12398684Y21160800D02*
X12612969Y21160800D01*
X12612969Y21160800D02*
X12698684Y21203658D01*
X13127255Y21417943D02*
X13127255Y20817943D01*
X13127255Y21332229D02*
X13170112Y21375086D01*
X13170112Y21375086D02*
X13255827Y21417943D01*
X13255827Y21417943D02*
X13384398Y21417943D01*
X13384398Y21417943D02*
X13470112Y21375086D01*
X13470112Y21375086D02*
X13512970Y21289372D01*
X13512970Y21289372D02*
X13512970Y20817943D01*
X14327256Y20817943D02*
X14327256Y21717943D01*
X14327256Y20860800D02*
X14241541Y20817943D01*
X14241541Y20817943D02*
X14070113Y20817943D01*
X14070113Y20817943D02*
X13984398Y20860800D01*
X13984398Y20860800D02*
X13941541Y20903658D01*
X13941541Y20903658D02*
X13898684Y20989372D01*
X13898684Y20989372D02*
X13898684Y21246515D01*
X13898684Y21246515D02*
X13941541Y21332229D01*
X13941541Y21332229D02*
X13984398Y21375086D01*
X13984398Y21375086D02*
X14070113Y21417943D01*
X14070113Y21417943D02*
X14241541Y21417943D01*
X14241541Y21417943D02*
X14327256Y21375086D01*
X15441541Y20817943D02*
X15441541Y21717943D01*
X15441541Y21717943D02*
X15655827Y21717943D01*
X15655827Y21717943D02*
X15784398Y21675086D01*
X15784398Y21675086D02*
X15870113Y21589372D01*
X15870113Y21589372D02*
X15912970Y21503658D01*
X15912970Y21503658D02*
X15955827Y21332229D01*
X15955827Y21332229D02*
X15955827Y21203658D01*
X15955827Y21203658D02*
X15912970Y21032229D01*
X15912970Y21032229D02*
X15870113Y20946515D01*
X15870113Y20946515D02*
X15784398Y20860800D01*
X15784398Y20860800D02*
X15655827Y20817943D01*
X15655827Y20817943D02*
X15441541Y20817943D01*
X16727256Y20817943D02*
X16727256Y21289372D01*
X16727256Y21289372D02*
X16684398Y21375086D01*
X16684398Y21375086D02*
X16598684Y21417943D01*
X16598684Y21417943D02*
X16427256Y21417943D01*
X16427256Y21417943D02*
X16341541Y21375086D01*
X16727256Y20860800D02*
X16641541Y20817943D01*
X16641541Y20817943D02*
X16427256Y20817943D01*
X16427256Y20817943D02*
X16341541Y20860800D01*
X16341541Y20860800D02*
X16298684Y20946515D01*
X16298684Y20946515D02*
X16298684Y21032229D01*
X16298684Y21032229D02*
X16341541Y21117943D01*
X16341541Y21117943D02*
X16427256Y21160800D01*
X16427256Y21160800D02*
X16641541Y21160800D01*
X16641541Y21160800D02*
X16727256Y21203658D01*
X17155827Y21417943D02*
X17155827Y20817943D01*
X17155827Y21332229D02*
X17198684Y21375086D01*
X17198684Y21375086D02*
X17284399Y21417943D01*
X17284399Y21417943D02*
X17412970Y21417943D01*
X17412970Y21417943D02*
X17498684Y21375086D01*
X17498684Y21375086D02*
X17541542Y21289372D01*
X17541542Y21289372D02*
X17541542Y20817943D01*
X17970113Y20817943D02*
X17970113Y21417943D01*
X17970113Y21717943D02*
X17927256Y21675086D01*
X17927256Y21675086D02*
X17970113Y21632229D01*
X17970113Y21632229D02*
X18012970Y21675086D01*
X18012970Y21675086D02*
X17970113Y21717943D01*
X17970113Y21717943D02*
X17970113Y21632229D01*
X18741541Y20860800D02*
X18655827Y20817943D01*
X18655827Y20817943D02*
X18484399Y20817943D01*
X18484399Y20817943D02*
X18398684Y20860800D01*
X18398684Y20860800D02*
X18355827Y20946515D01*
X18355827Y20946515D02*
X18355827Y21289372D01*
X18355827Y21289372D02*
X18398684Y21375086D01*
X18398684Y21375086D02*
X18484399Y21417943D01*
X18484399Y21417943D02*
X18655827Y21417943D01*
X18655827Y21417943D02*
X18741541Y21375086D01*
X18741541Y21375086D02*
X18784399Y21289372D01*
X18784399Y21289372D02*
X18784399Y21203658D01*
X18784399Y21203658D02*
X18355827Y21117943D01*
X19298685Y20817943D02*
X19212970Y20860800D01*
X19212970Y20860800D02*
X19170113Y20946515D01*
X19170113Y20946515D02*
X19170113Y21717943D01*
D10*
X2646095Y35670051D02*
X2646095Y35193861D01*
X2360380Y35765289D02*
X3360380Y35431956D01*
X3360380Y35431956D02*
X2360380Y35098623D01*
X2360380Y34765289D02*
X3360380Y34765289D01*
X2360380Y34289099D02*
X3360380Y34289099D01*
X3360380Y34289099D02*
X2360380Y33717671D01*
X2360380Y33717671D02*
X3360380Y33717671D01*
X2360380Y32717671D02*
X2360380Y33289099D01*
X2360380Y33003385D02*
X3360380Y33003385D01*
X3360380Y33003385D02*
X3217523Y33098623D01*
X3217523Y33098623D02*
X3122285Y33193861D01*
X3122285Y33193861D02*
X3074666Y33289099D01*
X3408000Y31574814D02*
X2122285Y32431956D01*
X2360380Y31241480D02*
X3360380Y31241480D01*
X3360380Y31241480D02*
X3360380Y30860528D01*
X3360380Y30860528D02*
X3312761Y30765290D01*
X3312761Y30765290D02*
X3265142Y30717671D01*
X3265142Y30717671D02*
X3169904Y30670052D01*
X3169904Y30670052D02*
X3027047Y30670052D01*
X3027047Y30670052D02*
X2931809Y30717671D01*
X2931809Y30717671D02*
X2884190Y30765290D01*
X2884190Y30765290D02*
X2836571Y30860528D01*
X2836571Y30860528D02*
X2836571Y31241480D01*
X2455619Y29670052D02*
X2408000Y29717671D01*
X2408000Y29717671D02*
X2360380Y29860528D01*
X2360380Y29860528D02*
X2360380Y29955766D01*
X2360380Y29955766D02*
X2408000Y30098623D01*
X2408000Y30098623D02*
X2503238Y30193861D01*
X2503238Y30193861D02*
X2598476Y30241480D01*
X2598476Y30241480D02*
X2788952Y30289099D01*
X2788952Y30289099D02*
X2931809Y30289099D01*
X2931809Y30289099D02*
X3122285Y30241480D01*
X3122285Y30241480D02*
X3217523Y30193861D01*
X3217523Y30193861D02*
X3312761Y30098623D01*
X3312761Y30098623D02*
X3360380Y29955766D01*
X3360380Y29955766D02*
X3360380Y29860528D01*
X3360380Y29860528D02*
X3312761Y29717671D01*
X3312761Y29717671D02*
X3265142Y29670052D01*
X3360380Y29051004D02*
X3360380Y28955766D01*
X3360380Y28955766D02*
X3312761Y28860528D01*
X3312761Y28860528D02*
X3265142Y28812909D01*
X3265142Y28812909D02*
X3169904Y28765290D01*
X3169904Y28765290D02*
X2979428Y28717671D01*
X2979428Y28717671D02*
X2741333Y28717671D01*
X2741333Y28717671D02*
X2550857Y28765290D01*
X2550857Y28765290D02*
X2455619Y28812909D01*
X2455619Y28812909D02*
X2408000Y28860528D01*
X2408000Y28860528D02*
X2360380Y28955766D01*
X2360380Y28955766D02*
X2360380Y29051004D01*
X2360380Y29051004D02*
X2408000Y29146242D01*
X2408000Y29146242D02*
X2455619Y29193861D01*
X2455619Y29193861D02*
X2550857Y29241480D01*
X2550857Y29241480D02*
X2741333Y29289099D01*
X2741333Y29289099D02*
X2979428Y29289099D01*
X2979428Y29289099D02*
X3169904Y29241480D01*
X3169904Y29241480D02*
X3265142Y29193861D01*
X3265142Y29193861D02*
X3312761Y29146242D01*
X3312761Y29146242D02*
X3360380Y29051004D01*
X2821095Y75770051D02*
X2821095Y75293861D01*
X2535380Y75865289D02*
X3535380Y75531956D01*
X3535380Y75531956D02*
X2535380Y75198623D01*
X2535380Y74865289D02*
X3535380Y74865289D01*
X2535380Y74389099D02*
X3535380Y74389099D01*
X3535380Y74389099D02*
X2535380Y73817671D01*
X2535380Y73817671D02*
X3535380Y73817671D01*
X3535380Y72912909D02*
X3535380Y73103385D01*
X3535380Y73103385D02*
X3487761Y73198623D01*
X3487761Y73198623D02*
X3440142Y73246242D01*
X3440142Y73246242D02*
X3297285Y73341480D01*
X3297285Y73341480D02*
X3106809Y73389099D01*
X3106809Y73389099D02*
X2725857Y73389099D01*
X2725857Y73389099D02*
X2630619Y73341480D01*
X2630619Y73341480D02*
X2583000Y73293861D01*
X2583000Y73293861D02*
X2535380Y73198623D01*
X2535380Y73198623D02*
X2535380Y73008147D01*
X2535380Y73008147D02*
X2583000Y72912909D01*
X2583000Y72912909D02*
X2630619Y72865290D01*
X2630619Y72865290D02*
X2725857Y72817671D01*
X2725857Y72817671D02*
X2963952Y72817671D01*
X2963952Y72817671D02*
X3059190Y72865290D01*
X3059190Y72865290D02*
X3106809Y72912909D01*
X3106809Y72912909D02*
X3154428Y73008147D01*
X3154428Y73008147D02*
X3154428Y73198623D01*
X3154428Y73198623D02*
X3106809Y73293861D01*
X3106809Y73293861D02*
X3059190Y73341480D01*
X3059190Y73341480D02*
X2963952Y73389099D01*
X3583000Y71674814D02*
X2297285Y72531956D01*
X2535380Y71341480D02*
X3535380Y71341480D01*
X3535380Y71341480D02*
X3535380Y70960528D01*
X3535380Y70960528D02*
X3487761Y70865290D01*
X3487761Y70865290D02*
X3440142Y70817671D01*
X3440142Y70817671D02*
X3344904Y70770052D01*
X3344904Y70770052D02*
X3202047Y70770052D01*
X3202047Y70770052D02*
X3106809Y70817671D01*
X3106809Y70817671D02*
X3059190Y70865290D01*
X3059190Y70865290D02*
X3011571Y70960528D01*
X3011571Y70960528D02*
X3011571Y71341480D01*
X2821095Y70389099D02*
X2821095Y69912909D01*
X2535380Y70484337D02*
X3535380Y70151004D01*
X3535380Y70151004D02*
X2535380Y69817671D01*
X3535380Y69293861D02*
X3535380Y69198623D01*
X3535380Y69198623D02*
X3487761Y69103385D01*
X3487761Y69103385D02*
X3440142Y69055766D01*
X3440142Y69055766D02*
X3344904Y69008147D01*
X3344904Y69008147D02*
X3154428Y68960528D01*
X3154428Y68960528D02*
X2916333Y68960528D01*
X2916333Y68960528D02*
X2725857Y69008147D01*
X2725857Y69008147D02*
X2630619Y69055766D01*
X2630619Y69055766D02*
X2583000Y69103385D01*
X2583000Y69103385D02*
X2535380Y69198623D01*
X2535380Y69198623D02*
X2535380Y69293861D01*
X2535380Y69293861D02*
X2583000Y69389099D01*
X2583000Y69389099D02*
X2630619Y69436718D01*
X2630619Y69436718D02*
X2725857Y69484337D01*
X2725857Y69484337D02*
X2916333Y69531956D01*
X2916333Y69531956D02*
X3154428Y69531956D01*
X3154428Y69531956D02*
X3344904Y69484337D01*
X3344904Y69484337D02*
X3440142Y69436718D01*
X3440142Y69436718D02*
X3487761Y69389099D01*
X3487761Y69389099D02*
X3535380Y69293861D01*
X99146095Y35670051D02*
X99146095Y35193861D01*
X98860380Y35765289D02*
X99860380Y35431956D01*
X99860380Y35431956D02*
X98860380Y35098623D01*
X98860380Y34765289D02*
X99860380Y34765289D01*
X98860380Y34289099D02*
X99860380Y34289099D01*
X99860380Y34289099D02*
X98860380Y33717671D01*
X98860380Y33717671D02*
X99860380Y33717671D01*
X99431809Y33098623D02*
X99479428Y33193861D01*
X99479428Y33193861D02*
X99527047Y33241480D01*
X99527047Y33241480D02*
X99622285Y33289099D01*
X99622285Y33289099D02*
X99669904Y33289099D01*
X99669904Y33289099D02*
X99765142Y33241480D01*
X99765142Y33241480D02*
X99812761Y33193861D01*
X99812761Y33193861D02*
X99860380Y33098623D01*
X99860380Y33098623D02*
X99860380Y32908147D01*
X99860380Y32908147D02*
X99812761Y32812909D01*
X99812761Y32812909D02*
X99765142Y32765290D01*
X99765142Y32765290D02*
X99669904Y32717671D01*
X99669904Y32717671D02*
X99622285Y32717671D01*
X99622285Y32717671D02*
X99527047Y32765290D01*
X99527047Y32765290D02*
X99479428Y32812909D01*
X99479428Y32812909D02*
X99431809Y32908147D01*
X99431809Y32908147D02*
X99431809Y33098623D01*
X99431809Y33098623D02*
X99384190Y33193861D01*
X99384190Y33193861D02*
X99336571Y33241480D01*
X99336571Y33241480D02*
X99241333Y33289099D01*
X99241333Y33289099D02*
X99050857Y33289099D01*
X99050857Y33289099D02*
X98955619Y33241480D01*
X98955619Y33241480D02*
X98908000Y33193861D01*
X98908000Y33193861D02*
X98860380Y33098623D01*
X98860380Y33098623D02*
X98860380Y32908147D01*
X98860380Y32908147D02*
X98908000Y32812909D01*
X98908000Y32812909D02*
X98955619Y32765290D01*
X98955619Y32765290D02*
X99050857Y32717671D01*
X99050857Y32717671D02*
X99241333Y32717671D01*
X99241333Y32717671D02*
X99336571Y32765290D01*
X99336571Y32765290D02*
X99384190Y32812909D01*
X99384190Y32812909D02*
X99431809Y32908147D01*
X99908000Y31574814D02*
X98622285Y32431956D01*
X98860380Y31241480D02*
X99860380Y31241480D01*
X99860380Y31241480D02*
X99860380Y30860528D01*
X99860380Y30860528D02*
X99812761Y30765290D01*
X99812761Y30765290D02*
X99765142Y30717671D01*
X99765142Y30717671D02*
X99669904Y30670052D01*
X99669904Y30670052D02*
X99527047Y30670052D01*
X99527047Y30670052D02*
X99431809Y30717671D01*
X99431809Y30717671D02*
X99384190Y30765290D01*
X99384190Y30765290D02*
X99336571Y30860528D01*
X99336571Y30860528D02*
X99336571Y31241480D01*
X99146095Y30289099D02*
X99146095Y29812909D01*
X98860380Y30384337D02*
X99860380Y30051004D01*
X99860380Y30051004D02*
X98860380Y29717671D01*
X99860380Y29479575D02*
X99860380Y28860528D01*
X99860380Y28860528D02*
X99479428Y29193861D01*
X99479428Y29193861D02*
X99479428Y29051004D01*
X99479428Y29051004D02*
X99431809Y28955766D01*
X99431809Y28955766D02*
X99384190Y28908147D01*
X99384190Y28908147D02*
X99288952Y28860528D01*
X99288952Y28860528D02*
X99050857Y28860528D01*
X99050857Y28860528D02*
X98955619Y28908147D01*
X98955619Y28908147D02*
X98908000Y28955766D01*
X98908000Y28955766D02*
X98860380Y29051004D01*
X98860380Y29051004D02*
X98860380Y29336718D01*
X98860380Y29336718D02*
X98908000Y29431956D01*
X98908000Y29431956D02*
X98955619Y29479575D01*
X99071095Y48645051D02*
X99071095Y48168861D01*
X98785380Y48740289D02*
X99785380Y48406956D01*
X99785380Y48406956D02*
X98785380Y48073623D01*
X98785380Y47740289D02*
X99785380Y47740289D01*
X98785380Y47264099D02*
X99785380Y47264099D01*
X99785380Y47264099D02*
X98785380Y46692671D01*
X98785380Y46692671D02*
X99785380Y46692671D01*
X99785380Y45740290D02*
X99785380Y46216480D01*
X99785380Y46216480D02*
X99309190Y46264099D01*
X99309190Y46264099D02*
X99356809Y46216480D01*
X99356809Y46216480D02*
X99404428Y46121242D01*
X99404428Y46121242D02*
X99404428Y45883147D01*
X99404428Y45883147D02*
X99356809Y45787909D01*
X99356809Y45787909D02*
X99309190Y45740290D01*
X99309190Y45740290D02*
X99213952Y45692671D01*
X99213952Y45692671D02*
X98975857Y45692671D01*
X98975857Y45692671D02*
X98880619Y45740290D01*
X98880619Y45740290D02*
X98833000Y45787909D01*
X98833000Y45787909D02*
X98785380Y45883147D01*
X98785380Y45883147D02*
X98785380Y46121242D01*
X98785380Y46121242D02*
X98833000Y46216480D01*
X98833000Y46216480D02*
X98880619Y46264099D01*
X99833000Y44549814D02*
X98547285Y45406956D01*
X98785380Y44216480D02*
X99785380Y44216480D01*
X99785380Y44216480D02*
X99785380Y43835528D01*
X99785380Y43835528D02*
X99737761Y43740290D01*
X99737761Y43740290D02*
X99690142Y43692671D01*
X99690142Y43692671D02*
X99594904Y43645052D01*
X99594904Y43645052D02*
X99452047Y43645052D01*
X99452047Y43645052D02*
X99356809Y43692671D01*
X99356809Y43692671D02*
X99309190Y43740290D01*
X99309190Y43740290D02*
X99261571Y43835528D01*
X99261571Y43835528D02*
X99261571Y44216480D01*
X99071095Y43264099D02*
X99071095Y42787909D01*
X98785380Y43359337D02*
X99785380Y43026004D01*
X99785380Y43026004D02*
X98785380Y42692671D01*
X99690142Y42406956D02*
X99737761Y42359337D01*
X99737761Y42359337D02*
X99785380Y42264099D01*
X99785380Y42264099D02*
X99785380Y42026004D01*
X99785380Y42026004D02*
X99737761Y41930766D01*
X99737761Y41930766D02*
X99690142Y41883147D01*
X99690142Y41883147D02*
X99594904Y41835528D01*
X99594904Y41835528D02*
X99499666Y41835528D01*
X99499666Y41835528D02*
X99356809Y41883147D01*
X99356809Y41883147D02*
X98785380Y42454575D01*
X98785380Y42454575D02*
X98785380Y41835528D01*
X99196095Y63295051D02*
X99196095Y62818861D01*
X98910380Y63390289D02*
X99910380Y63056956D01*
X99910380Y63056956D02*
X98910380Y62723623D01*
X98910380Y62390289D02*
X99910380Y62390289D01*
X98910380Y61914099D02*
X99910380Y61914099D01*
X99910380Y61914099D02*
X98910380Y61342671D01*
X98910380Y61342671D02*
X99910380Y61342671D01*
X98910380Y60342671D02*
X98910380Y60914099D01*
X98910380Y60628385D02*
X99910380Y60628385D01*
X99910380Y60628385D02*
X99767523Y60723623D01*
X99767523Y60723623D02*
X99672285Y60818861D01*
X99672285Y60818861D02*
X99624666Y60914099D01*
X98910380Y59390290D02*
X98910380Y59961718D01*
X98910380Y59676004D02*
X99910380Y59676004D01*
X99910380Y59676004D02*
X99767523Y59771242D01*
X99767523Y59771242D02*
X99672285Y59866480D01*
X99672285Y59866480D02*
X99624666Y59961718D01*
X99958000Y58247433D02*
X98672285Y59104575D01*
X98910380Y57914099D02*
X99910380Y57914099D01*
X99910380Y57914099D02*
X99910380Y57533147D01*
X99910380Y57533147D02*
X99862761Y57437909D01*
X99862761Y57437909D02*
X99815142Y57390290D01*
X99815142Y57390290D02*
X99719904Y57342671D01*
X99719904Y57342671D02*
X99577047Y57342671D01*
X99577047Y57342671D02*
X99481809Y57390290D01*
X99481809Y57390290D02*
X99434190Y57437909D01*
X99434190Y57437909D02*
X99386571Y57533147D01*
X99386571Y57533147D02*
X99386571Y57914099D01*
X99196095Y56961718D02*
X99196095Y56485528D01*
X98910380Y57056956D02*
X99910380Y56723623D01*
X99910380Y56723623D02*
X98910380Y56390290D01*
X99910380Y55628385D02*
X99910380Y55818861D01*
X99910380Y55818861D02*
X99862761Y55914099D01*
X99862761Y55914099D02*
X99815142Y55961718D01*
X99815142Y55961718D02*
X99672285Y56056956D01*
X99672285Y56056956D02*
X99481809Y56104575D01*
X99481809Y56104575D02*
X99100857Y56104575D01*
X99100857Y56104575D02*
X99005619Y56056956D01*
X99005619Y56056956D02*
X98958000Y56009337D01*
X98958000Y56009337D02*
X98910380Y55914099D01*
X98910380Y55914099D02*
X98910380Y55723623D01*
X98910380Y55723623D02*
X98958000Y55628385D01*
X98958000Y55628385D02*
X99005619Y55580766D01*
X99005619Y55580766D02*
X99100857Y55533147D01*
X99100857Y55533147D02*
X99338952Y55533147D01*
X99338952Y55533147D02*
X99434190Y55580766D01*
X99434190Y55580766D02*
X99481809Y55628385D01*
X99481809Y55628385D02*
X99529428Y55723623D01*
X99529428Y55723623D02*
X99529428Y55914099D01*
X99529428Y55914099D02*
X99481809Y56009337D01*
X99481809Y56009337D02*
X99434190Y56056956D01*
X99434190Y56056956D02*
X99338952Y56104575D01*
X99321095Y75770051D02*
X99321095Y75293861D01*
X99035380Y75865289D02*
X100035380Y75531956D01*
X100035380Y75531956D02*
X99035380Y75198623D01*
X99035380Y74865289D02*
X100035380Y74865289D01*
X99035380Y74389099D02*
X100035380Y74389099D01*
X100035380Y74389099D02*
X99035380Y73817671D01*
X99035380Y73817671D02*
X100035380Y73817671D01*
X99035380Y72817671D02*
X99035380Y73389099D01*
X99035380Y73103385D02*
X100035380Y73103385D01*
X100035380Y73103385D02*
X99892523Y73198623D01*
X99892523Y73198623D02*
X99797285Y73293861D01*
X99797285Y73293861D02*
X99749666Y73389099D01*
X100035380Y72198623D02*
X100035380Y72103385D01*
X100035380Y72103385D02*
X99987761Y72008147D01*
X99987761Y72008147D02*
X99940142Y71960528D01*
X99940142Y71960528D02*
X99844904Y71912909D01*
X99844904Y71912909D02*
X99654428Y71865290D01*
X99654428Y71865290D02*
X99416333Y71865290D01*
X99416333Y71865290D02*
X99225857Y71912909D01*
X99225857Y71912909D02*
X99130619Y71960528D01*
X99130619Y71960528D02*
X99083000Y72008147D01*
X99083000Y72008147D02*
X99035380Y72103385D01*
X99035380Y72103385D02*
X99035380Y72198623D01*
X99035380Y72198623D02*
X99083000Y72293861D01*
X99083000Y72293861D02*
X99130619Y72341480D01*
X99130619Y72341480D02*
X99225857Y72389099D01*
X99225857Y72389099D02*
X99416333Y72436718D01*
X99416333Y72436718D02*
X99654428Y72436718D01*
X99654428Y72436718D02*
X99844904Y72389099D01*
X99844904Y72389099D02*
X99940142Y72341480D01*
X99940142Y72341480D02*
X99987761Y72293861D01*
X99987761Y72293861D02*
X100035380Y72198623D01*
X100083000Y70722433D02*
X98797285Y71579575D01*
X99035380Y70389099D02*
X100035380Y70389099D01*
X100035380Y70389099D02*
X100035380Y70008147D01*
X100035380Y70008147D02*
X99987761Y69912909D01*
X99987761Y69912909D02*
X99940142Y69865290D01*
X99940142Y69865290D02*
X99844904Y69817671D01*
X99844904Y69817671D02*
X99702047Y69817671D01*
X99702047Y69817671D02*
X99606809Y69865290D01*
X99606809Y69865290D02*
X99559190Y69912909D01*
X99559190Y69912909D02*
X99511571Y70008147D01*
X99511571Y70008147D02*
X99511571Y70389099D01*
X99321095Y69436718D02*
X99321095Y68960528D01*
X99035380Y69531956D02*
X100035380Y69198623D01*
X100035380Y69198623D02*
X99035380Y68865290D01*
X100035380Y68055766D02*
X100035380Y68531956D01*
X100035380Y68531956D02*
X99559190Y68579575D01*
X99559190Y68579575D02*
X99606809Y68531956D01*
X99606809Y68531956D02*
X99654428Y68436718D01*
X99654428Y68436718D02*
X99654428Y68198623D01*
X99654428Y68198623D02*
X99606809Y68103385D01*
X99606809Y68103385D02*
X99559190Y68055766D01*
X99559190Y68055766D02*
X99463952Y68008147D01*
X99463952Y68008147D02*
X99225857Y68008147D01*
X99225857Y68008147D02*
X99130619Y68055766D01*
X99130619Y68055766D02*
X99083000Y68103385D01*
X99083000Y68103385D02*
X99035380Y68198623D01*
X99035380Y68198623D02*
X99035380Y68436718D01*
X99035380Y68436718D02*
X99083000Y68531956D01*
X99083000Y68531956D02*
X99130619Y68579575D01*
X2696095Y63295051D02*
X2696095Y62818861D01*
X2410380Y63390289D02*
X3410380Y63056956D01*
X3410380Y63056956D02*
X2410380Y62723623D01*
X2410380Y62390289D02*
X3410380Y62390289D01*
X2410380Y61914099D02*
X3410380Y61914099D01*
X3410380Y61914099D02*
X2410380Y61342671D01*
X2410380Y61342671D02*
X3410380Y61342671D01*
X3410380Y60961718D02*
X3410380Y60295052D01*
X3410380Y60295052D02*
X2410380Y60723623D01*
X3458000Y59199814D02*
X2172285Y60056956D01*
X2410380Y58866480D02*
X3410380Y58866480D01*
X3410380Y58866480D02*
X3410380Y58485528D01*
X3410380Y58485528D02*
X3362761Y58390290D01*
X3362761Y58390290D02*
X3315142Y58342671D01*
X3315142Y58342671D02*
X3219904Y58295052D01*
X3219904Y58295052D02*
X3077047Y58295052D01*
X3077047Y58295052D02*
X2981809Y58342671D01*
X2981809Y58342671D02*
X2934190Y58390290D01*
X2934190Y58390290D02*
X2886571Y58485528D01*
X2886571Y58485528D02*
X2886571Y58866480D01*
X2696095Y57914099D02*
X2696095Y57437909D01*
X2410380Y58009337D02*
X3410380Y57676004D01*
X3410380Y57676004D02*
X2410380Y57342671D01*
X2410380Y56485528D02*
X2410380Y57056956D01*
X2410380Y56771242D02*
X3410380Y56771242D01*
X3410380Y56771242D02*
X3267523Y56866480D01*
X3267523Y56866480D02*
X3172285Y56961718D01*
X3172285Y56961718D02*
X3124666Y57056956D01*
D11*
X50661904Y9354820D02*
X50661904Y10164343D01*
X50661904Y10164343D02*
X50614285Y10259581D01*
X50614285Y10259581D02*
X50566666Y10307200D01*
X50566666Y10307200D02*
X50471428Y10354820D01*
X50471428Y10354820D02*
X50280952Y10354820D01*
X50280952Y10354820D02*
X50185714Y10307200D01*
X50185714Y10307200D02*
X50138095Y10259581D01*
X50138095Y10259581D02*
X50090476Y10164343D01*
X50090476Y10164343D02*
X50090476Y9354820D01*
X49661904Y9450058D02*
X49614285Y9402439D01*
X49614285Y9402439D02*
X49519047Y9354820D01*
X49519047Y9354820D02*
X49280952Y9354820D01*
X49280952Y9354820D02*
X49185714Y9402439D01*
X49185714Y9402439D02*
X49138095Y9450058D01*
X49138095Y9450058D02*
X49090476Y9545296D01*
X49090476Y9545296D02*
X49090476Y9640534D01*
X49090476Y9640534D02*
X49138095Y9783391D01*
X49138095Y9783391D02*
X49709523Y10354820D01*
X49709523Y10354820D02*
X49090476Y10354820D01*
X11084439Y36985040D02*
X11759355Y36985040D01*
X11759355Y36985040D02*
X11894338Y36940045D01*
X11894338Y36940045D02*
X11984327Y36850057D01*
X11984327Y36850057D02*
X12029321Y36715073D01*
X12029321Y36715073D02*
X12029321Y36625085D01*
X11084439Y37884927D02*
X11084439Y37434983D01*
X11084439Y37434983D02*
X11534383Y37389989D01*
X11534383Y37389989D02*
X11489388Y37434983D01*
X11489388Y37434983D02*
X11444394Y37524972D01*
X11444394Y37524972D02*
X11444394Y37749944D01*
X11444394Y37749944D02*
X11489388Y37839933D01*
X11489388Y37839933D02*
X11534383Y37884927D01*
X11534383Y37884927D02*
X11624371Y37929922D01*
X11624371Y37929922D02*
X11849343Y37929922D01*
X11849343Y37929922D02*
X11939332Y37884927D01*
X11939332Y37884927D02*
X11984327Y37839933D01*
X11984327Y37839933D02*
X12029321Y37749944D01*
X12029321Y37749944D02*
X12029321Y37524972D01*
X12029321Y37524972D02*
X11984327Y37434983D01*
X11984327Y37434983D02*
X11939332Y37389989D01*
X38459580Y8382143D02*
X38507200Y8334524D01*
X38507200Y8334524D02*
X38554819Y8191667D01*
X38554819Y8191667D02*
X38554819Y8096429D01*
X38554819Y8096429D02*
X38507200Y7953572D01*
X38507200Y7953572D02*
X38411961Y7858334D01*
X38411961Y7858334D02*
X38316723Y7810715D01*
X38316723Y7810715D02*
X38126247Y7763096D01*
X38126247Y7763096D02*
X37983390Y7763096D01*
X37983390Y7763096D02*
X37792914Y7810715D01*
X37792914Y7810715D02*
X37697676Y7858334D01*
X37697676Y7858334D02*
X37602438Y7953572D01*
X37602438Y7953572D02*
X37554819Y8096429D01*
X37554819Y8096429D02*
X37554819Y8191667D01*
X37554819Y8191667D02*
X37602438Y8334524D01*
X37602438Y8334524D02*
X37650057Y8382143D01*
X38554819Y9334524D02*
X38554819Y8763096D01*
X38554819Y9048810D02*
X37554819Y9048810D01*
X37554819Y9048810D02*
X37697676Y8953572D01*
X37697676Y8953572D02*
X37792914Y8858334D01*
X37792914Y8858334D02*
X37840533Y8763096D01*
X37888152Y10191667D02*
X38554819Y10191667D01*
X37507200Y9953572D02*
X38221485Y9715477D01*
X38221485Y9715477D02*
X38221485Y10334524D01*
X36909580Y8782143D02*
X36957200Y8734524D01*
X36957200Y8734524D02*
X37004819Y8591667D01*
X37004819Y8591667D02*
X37004819Y8496429D01*
X37004819Y8496429D02*
X36957200Y8353572D01*
X36957200Y8353572D02*
X36861961Y8258334D01*
X36861961Y8258334D02*
X36766723Y8210715D01*
X36766723Y8210715D02*
X36576247Y8163096D01*
X36576247Y8163096D02*
X36433390Y8163096D01*
X36433390Y8163096D02*
X36242914Y8210715D01*
X36242914Y8210715D02*
X36147676Y8258334D01*
X36147676Y8258334D02*
X36052438Y8353572D01*
X36052438Y8353572D02*
X36004819Y8496429D01*
X36004819Y8496429D02*
X36004819Y8591667D01*
X36004819Y8591667D02*
X36052438Y8734524D01*
X36052438Y8734524D02*
X36100057Y8782143D01*
X37004819Y9734524D02*
X37004819Y9163096D01*
X37004819Y9448810D02*
X36004819Y9448810D01*
X36004819Y9448810D02*
X36147676Y9353572D01*
X36147676Y9353572D02*
X36242914Y9258334D01*
X36242914Y9258334D02*
X36290533Y9163096D01*
X36004819Y10639286D02*
X36004819Y10163096D01*
X36004819Y10163096D02*
X36481009Y10115477D01*
X36481009Y10115477D02*
X36433390Y10163096D01*
X36433390Y10163096D02*
X36385771Y10258334D01*
X36385771Y10258334D02*
X36385771Y10496429D01*
X36385771Y10496429D02*
X36433390Y10591667D01*
X36433390Y10591667D02*
X36481009Y10639286D01*
X36481009Y10639286D02*
X36576247Y10686905D01*
X36576247Y10686905D02*
X36814342Y10686905D01*
X36814342Y10686905D02*
X36909580Y10639286D01*
X36909580Y10639286D02*
X36957200Y10591667D01*
X36957200Y10591667D02*
X37004819Y10496429D01*
X37004819Y10496429D02*
X37004819Y10258334D01*
X37004819Y10258334D02*
X36957200Y10163096D01*
X36957200Y10163096D02*
X36909580Y10115477D01*
X11384439Y48485040D02*
X12059355Y48485040D01*
X12059355Y48485040D02*
X12194338Y48440045D01*
X12194338Y48440045D02*
X12284327Y48350057D01*
X12284327Y48350057D02*
X12329321Y48215073D01*
X12329321Y48215073D02*
X12329321Y48125085D01*
X11384439Y49339933D02*
X11384439Y49159955D01*
X11384439Y49159955D02*
X11429433Y49069967D01*
X11429433Y49069967D02*
X11474428Y49024972D01*
X11474428Y49024972D02*
X11609411Y48934983D01*
X11609411Y48934983D02*
X11789388Y48889989D01*
X11789388Y48889989D02*
X12149343Y48889989D01*
X12149343Y48889989D02*
X12239332Y48934983D01*
X12239332Y48934983D02*
X12284327Y48979978D01*
X12284327Y48979978D02*
X12329321Y49069967D01*
X12329321Y49069967D02*
X12329321Y49249944D01*
X12329321Y49249944D02*
X12284327Y49339933D01*
X12284327Y49339933D02*
X12239332Y49384927D01*
X12239332Y49384927D02*
X12149343Y49429922D01*
X12149343Y49429922D02*
X11924371Y49429922D01*
X11924371Y49429922D02*
X11834383Y49384927D01*
X11834383Y49384927D02*
X11789388Y49339933D01*
X11789388Y49339933D02*
X11744394Y49249944D01*
X11744394Y49249944D02*
X11744394Y49069967D01*
X11744394Y49069967D02*
X11789388Y48979978D01*
X11789388Y48979978D02*
X11834383Y48934983D01*
X11834383Y48934983D02*
X11924371Y48889989D01*
X97536009Y52854167D02*
X97536009Y52520834D01*
X98059819Y52520834D02*
X97059819Y52520834D01*
X97059819Y52520834D02*
X97059819Y52997024D01*
X97059819Y53282739D02*
X97059819Y53949405D01*
X97059819Y53949405D02*
X98059819Y53520834D01*
X97986009Y67841667D02*
X97986009Y67508334D01*
X98509819Y67508334D02*
X97509819Y67508334D01*
X97509819Y67508334D02*
X97509819Y67984524D01*
X97938390Y68508334D02*
X97890771Y68413096D01*
X97890771Y68413096D02*
X97843152Y68365477D01*
X97843152Y68365477D02*
X97747914Y68317858D01*
X97747914Y68317858D02*
X97700295Y68317858D01*
X97700295Y68317858D02*
X97605057Y68365477D01*
X97605057Y68365477D02*
X97557438Y68413096D01*
X97557438Y68413096D02*
X97509819Y68508334D01*
X97509819Y68508334D02*
X97509819Y68698810D01*
X97509819Y68698810D02*
X97557438Y68794048D01*
X97557438Y68794048D02*
X97605057Y68841667D01*
X97605057Y68841667D02*
X97700295Y68889286D01*
X97700295Y68889286D02*
X97747914Y68889286D01*
X97747914Y68889286D02*
X97843152Y68841667D01*
X97843152Y68841667D02*
X97890771Y68794048D01*
X97890771Y68794048D02*
X97938390Y68698810D01*
X97938390Y68698810D02*
X97938390Y68508334D01*
X97938390Y68508334D02*
X97986009Y68413096D01*
X97986009Y68413096D02*
X98033628Y68365477D01*
X98033628Y68365477D02*
X98128866Y68317858D01*
X98128866Y68317858D02*
X98319342Y68317858D01*
X98319342Y68317858D02*
X98414580Y68365477D01*
X98414580Y68365477D02*
X98462200Y68413096D01*
X98462200Y68413096D02*
X98509819Y68508334D01*
X98509819Y68508334D02*
X98509819Y68698810D01*
X98509819Y68698810D02*
X98462200Y68794048D01*
X98462200Y68794048D02*
X98414580Y68841667D01*
X98414580Y68841667D02*
X98319342Y68889286D01*
X98319342Y68889286D02*
X98128866Y68889286D01*
X98128866Y68889286D02*
X98033628Y68841667D01*
X98033628Y68841667D02*
X97986009Y68794048D01*
X97986009Y68794048D02*
X97938390Y68698810D01*
X97234439Y73035096D02*
X97909355Y73035096D01*
X97909355Y73035096D02*
X98044338Y72990101D01*
X98044338Y72990101D02*
X98134327Y72900113D01*
X98134327Y72900113D02*
X98179321Y72765129D01*
X98179321Y72765129D02*
X98179321Y72675141D01*
X98179321Y73979978D02*
X98179321Y73440045D01*
X98179321Y73710011D02*
X97234439Y73710011D01*
X97234439Y73710011D02*
X97369422Y73620023D01*
X97369422Y73620023D02*
X97459411Y73530034D01*
X97459411Y73530034D02*
X97504405Y73440045D01*
X97324428Y74339933D02*
X97279433Y74384927D01*
X97279433Y74384927D02*
X97234439Y74474916D01*
X97234439Y74474916D02*
X97234439Y74699888D01*
X97234439Y74699888D02*
X97279433Y74789877D01*
X97279433Y74789877D02*
X97324428Y74834871D01*
X97324428Y74834871D02*
X97414416Y74879866D01*
X97414416Y74879866D02*
X97504405Y74879866D01*
X97504405Y74879866D02*
X97639388Y74834871D01*
X97639388Y74834871D02*
X98179321Y74294939D01*
X98179321Y74294939D02*
X98179321Y74879866D01*
X17958266Y107408781D02*
X17958266Y106694496D01*
X17958266Y106694496D02*
X17910647Y106551639D01*
X17910647Y106551639D02*
X17815409Y106456400D01*
X17815409Y106456400D02*
X17672552Y106408781D01*
X17672552Y106408781D02*
X17577314Y106408781D01*
X18386838Y107313543D02*
X18434457Y107361162D01*
X18434457Y107361162D02*
X18529695Y107408781D01*
X18529695Y107408781D02*
X18767790Y107408781D01*
X18767790Y107408781D02*
X18863028Y107361162D01*
X18863028Y107361162D02*
X18910647Y107313543D01*
X18910647Y107313543D02*
X18958266Y107218305D01*
X18958266Y107218305D02*
X18958266Y107123067D01*
X18958266Y107123067D02*
X18910647Y106980210D01*
X18910647Y106980210D02*
X18339219Y106408781D01*
X18339219Y106408781D02*
X18958266Y106408781D01*
X73290476Y24045181D02*
X73290476Y23330896D01*
X73290476Y23330896D02*
X73242857Y23188039D01*
X73242857Y23188039D02*
X73147619Y23092800D01*
X73147619Y23092800D02*
X73004762Y23045181D01*
X73004762Y23045181D02*
X72909524Y23045181D01*
X74290476Y23045181D02*
X73719048Y23045181D01*
X74004762Y23045181D02*
X74004762Y24045181D01*
X74004762Y24045181D02*
X73909524Y23902324D01*
X73909524Y23902324D02*
X73814286Y23807086D01*
X73814286Y23807086D02*
X73719048Y23759467D01*
X75147619Y23711848D02*
X75147619Y23045181D01*
X74909524Y24092800D02*
X74671429Y23378515D01*
X74671429Y23378515D02*
X75290476Y23378515D01*
X12316666Y90495181D02*
X12316666Y89780896D01*
X12316666Y89780896D02*
X12269047Y89638039D01*
X12269047Y89638039D02*
X12173809Y89542800D01*
X12173809Y89542800D02*
X12030952Y89495181D01*
X12030952Y89495181D02*
X11935714Y89495181D01*
X13221428Y90161848D02*
X13221428Y89495181D01*
X12983333Y90542800D02*
X12745238Y89828515D01*
X12745238Y89828515D02*
X13364285Y89828515D01*
X11584439Y63885040D02*
X12259355Y63885040D01*
X12259355Y63885040D02*
X12394338Y63840045D01*
X12394338Y63840045D02*
X12484327Y63750057D01*
X12484327Y63750057D02*
X12529321Y63615073D01*
X12529321Y63615073D02*
X12529321Y63525085D01*
X11584439Y64244995D02*
X11584439Y64874916D01*
X11584439Y64874916D02*
X12529321Y64469967D01*
X18418495Y109994181D02*
X18418495Y109184658D01*
X18418495Y109184658D02*
X18466114Y109089420D01*
X18466114Y109089420D02*
X18513733Y109041800D01*
X18513733Y109041800D02*
X18608971Y108994181D01*
X18608971Y108994181D02*
X18799447Y108994181D01*
X18799447Y108994181D02*
X18894685Y109041800D01*
X18894685Y109041800D02*
X18942304Y109089420D01*
X18942304Y109089420D02*
X18989923Y109184658D01*
X18989923Y109184658D02*
X18989923Y109994181D01*
X19989923Y108994181D02*
X19418495Y108994181D01*
X19704209Y108994181D02*
X19704209Y109994181D01*
X19704209Y109994181D02*
X19608971Y109851324D01*
X19608971Y109851324D02*
X19513733Y109756086D01*
X19513733Y109756086D02*
X19418495Y109708467D01*
X12059439Y75968040D02*
X12734355Y75968040D01*
X12734355Y75968040D02*
X12869338Y75923045D01*
X12869338Y75923045D02*
X12959327Y75833057D01*
X12959327Y75833057D02*
X13004321Y75698073D01*
X13004321Y75698073D02*
X13004321Y75608085D01*
X12464388Y76552967D02*
X12419394Y76462978D01*
X12419394Y76462978D02*
X12374400Y76417983D01*
X12374400Y76417983D02*
X12284411Y76372989D01*
X12284411Y76372989D02*
X12239416Y76372989D01*
X12239416Y76372989D02*
X12149428Y76417983D01*
X12149428Y76417983D02*
X12104433Y76462978D01*
X12104433Y76462978D02*
X12059439Y76552967D01*
X12059439Y76552967D02*
X12059439Y76732944D01*
X12059439Y76732944D02*
X12104433Y76822933D01*
X12104433Y76822933D02*
X12149428Y76867927D01*
X12149428Y76867927D02*
X12239416Y76912922D01*
X12239416Y76912922D02*
X12284411Y76912922D01*
X12284411Y76912922D02*
X12374400Y76867927D01*
X12374400Y76867927D02*
X12419394Y76822933D01*
X12419394Y76822933D02*
X12464388Y76732944D01*
X12464388Y76732944D02*
X12464388Y76552967D01*
X12464388Y76552967D02*
X12509383Y76462978D01*
X12509383Y76462978D02*
X12554377Y76417983D01*
X12554377Y76417983D02*
X12644366Y76372989D01*
X12644366Y76372989D02*
X12824343Y76372989D01*
X12824343Y76372989D02*
X12914332Y76417983D01*
X12914332Y76417983D02*
X12959327Y76462978D01*
X12959327Y76462978D02*
X13004321Y76552967D01*
X13004321Y76552967D02*
X13004321Y76732944D01*
X13004321Y76732944D02*
X12959327Y76822933D01*
X12959327Y76822933D02*
X12914332Y76867927D01*
X12914332Y76867927D02*
X12824343Y76912922D01*
X12824343Y76912922D02*
X12644366Y76912922D01*
X12644366Y76912922D02*
X12554377Y76867927D01*
X12554377Y76867927D02*
X12509383Y76822933D01*
X12509383Y76822933D02*
X12464388Y76732944D01*
X4356009Y40266667D02*
X4356009Y39933334D01*
X4879819Y39933334D02*
X3879819Y39933334D01*
X3879819Y39933334D02*
X3879819Y40409524D01*
X3975057Y40742858D02*
X3927438Y40790477D01*
X3927438Y40790477D02*
X3879819Y40885715D01*
X3879819Y40885715D02*
X3879819Y41123810D01*
X3879819Y41123810D02*
X3927438Y41219048D01*
X3927438Y41219048D02*
X3975057Y41266667D01*
X3975057Y41266667D02*
X4070295Y41314286D01*
X4070295Y41314286D02*
X4165533Y41314286D01*
X4165533Y41314286D02*
X4308390Y41266667D01*
X4308390Y41266667D02*
X4879819Y40695239D01*
X4879819Y40695239D02*
X4879819Y41314286D01*
X2741667Y84342800D02*
X2884524Y84295181D01*
X2884524Y84295181D02*
X3122619Y84295181D01*
X3122619Y84295181D02*
X3217857Y84342800D01*
X3217857Y84342800D02*
X3265476Y84390420D01*
X3265476Y84390420D02*
X3313095Y84485658D01*
X3313095Y84485658D02*
X3313095Y84580896D01*
X3313095Y84580896D02*
X3265476Y84676134D01*
X3265476Y84676134D02*
X3217857Y84723753D01*
X3217857Y84723753D02*
X3122619Y84771372D01*
X3122619Y84771372D02*
X2932143Y84818991D01*
X2932143Y84818991D02*
X2836905Y84866610D01*
X2836905Y84866610D02*
X2789286Y84914229D01*
X2789286Y84914229D02*
X2741667Y85009467D01*
X2741667Y85009467D02*
X2741667Y85104705D01*
X2741667Y85104705D02*
X2789286Y85199943D01*
X2789286Y85199943D02*
X2836905Y85247562D01*
X2836905Y85247562D02*
X2932143Y85295181D01*
X2932143Y85295181D02*
X3170238Y85295181D01*
X3170238Y85295181D02*
X3313095Y85247562D01*
X3646429Y85295181D02*
X3884524Y84295181D01*
X3884524Y84295181D02*
X4075000Y85009467D01*
X4075000Y85009467D02*
X4265476Y84295181D01*
X4265476Y84295181D02*
X4503572Y85295181D01*
X5408333Y84295181D02*
X4836905Y84295181D01*
X5122619Y84295181D02*
X5122619Y85295181D01*
X5122619Y85295181D02*
X5027381Y85152324D01*
X5027381Y85152324D02*
X4932143Y85057086D01*
X4932143Y85057086D02*
X4836905Y85009467D01*
X97856009Y79941667D02*
X97856009Y79608334D01*
X98379819Y79608334D02*
X97379819Y79608334D01*
X97379819Y79608334D02*
X97379819Y80084524D01*
X98379819Y80513096D02*
X98379819Y80703572D01*
X98379819Y80703572D02*
X98332200Y80798810D01*
X98332200Y80798810D02*
X98284580Y80846429D01*
X98284580Y80846429D02*
X98141723Y80941667D01*
X98141723Y80941667D02*
X97951247Y80989286D01*
X97951247Y80989286D02*
X97570295Y80989286D01*
X97570295Y80989286D02*
X97475057Y80941667D01*
X97475057Y80941667D02*
X97427438Y80894048D01*
X97427438Y80894048D02*
X97379819Y80798810D01*
X97379819Y80798810D02*
X97379819Y80608334D01*
X97379819Y80608334D02*
X97427438Y80513096D01*
X97427438Y80513096D02*
X97475057Y80465477D01*
X97475057Y80465477D02*
X97570295Y80417858D01*
X97570295Y80417858D02*
X97808390Y80417858D01*
X97808390Y80417858D02*
X97903628Y80465477D01*
X97903628Y80465477D02*
X97951247Y80513096D01*
X97951247Y80513096D02*
X97998866Y80608334D01*
X97998866Y80608334D02*
X97998866Y80798810D01*
X97998866Y80798810D02*
X97951247Y80894048D01*
X97951247Y80894048D02*
X97903628Y80941667D01*
X97903628Y80941667D02*
X97808390Y80989286D01*
X4506009Y52729167D02*
X4506009Y52395834D01*
X5029819Y52395834D02*
X4029819Y52395834D01*
X4029819Y52395834D02*
X4029819Y52872024D01*
X4029819Y53157739D02*
X4029819Y53776786D01*
X4029819Y53776786D02*
X4410771Y53443453D01*
X4410771Y53443453D02*
X4410771Y53586310D01*
X4410771Y53586310D02*
X4458390Y53681548D01*
X4458390Y53681548D02*
X4506009Y53729167D01*
X4506009Y53729167D02*
X4601247Y53776786D01*
X4601247Y53776786D02*
X4839342Y53776786D01*
X4839342Y53776786D02*
X4934580Y53729167D01*
X4934580Y53729167D02*
X4982200Y53681548D01*
X4982200Y53681548D02*
X5029819Y53586310D01*
X5029819Y53586310D02*
X5029819Y53300596D01*
X5029819Y53300596D02*
X4982200Y53205358D01*
X4982200Y53205358D02*
X4934580Y53157739D01*
X4406009Y79966667D02*
X4406009Y79633334D01*
X4929819Y79633334D02*
X3929819Y79633334D01*
X3929819Y79633334D02*
X3929819Y80109524D01*
X3929819Y80966667D02*
X3929819Y80490477D01*
X3929819Y80490477D02*
X4406009Y80442858D01*
X4406009Y80442858D02*
X4358390Y80490477D01*
X4358390Y80490477D02*
X4310771Y80585715D01*
X4310771Y80585715D02*
X4310771Y80823810D01*
X4310771Y80823810D02*
X4358390Y80919048D01*
X4358390Y80919048D02*
X4406009Y80966667D01*
X4406009Y80966667D02*
X4501247Y81014286D01*
X4501247Y81014286D02*
X4739342Y81014286D01*
X4739342Y81014286D02*
X4834580Y80966667D01*
X4834580Y80966667D02*
X4882200Y80919048D01*
X4882200Y80919048D02*
X4929819Y80823810D01*
X4929819Y80823810D02*
X4929819Y80585715D01*
X4929819Y80585715D02*
X4882200Y80490477D01*
X4882200Y80490477D02*
X4834580Y80442858D01*
X97384439Y45285096D02*
X98059355Y45285096D01*
X98059355Y45285096D02*
X98194338Y45240101D01*
X98194338Y45240101D02*
X98284327Y45150113D01*
X98284327Y45150113D02*
X98329321Y45015129D01*
X98329321Y45015129D02*
X98329321Y44925141D01*
X98329321Y46229978D02*
X98329321Y45690045D01*
X98329321Y45960011D02*
X97384439Y45960011D01*
X97384439Y45960011D02*
X97519422Y45870023D01*
X97519422Y45870023D02*
X97609411Y45780034D01*
X97609411Y45780034D02*
X97654405Y45690045D01*
X97384439Y46814905D02*
X97384439Y46904894D01*
X97384439Y46904894D02*
X97429433Y46994882D01*
X97429433Y46994882D02*
X97474428Y47039877D01*
X97474428Y47039877D02*
X97564416Y47084871D01*
X97564416Y47084871D02*
X97744394Y47129866D01*
X97744394Y47129866D02*
X97969366Y47129866D01*
X97969366Y47129866D02*
X98149343Y47084871D01*
X98149343Y47084871D02*
X98239332Y47039877D01*
X98239332Y47039877D02*
X98284327Y46994882D01*
X98284327Y46994882D02*
X98329321Y46904894D01*
X98329321Y46904894D02*
X98329321Y46814905D01*
X98329321Y46814905D02*
X98284327Y46724916D01*
X98284327Y46724916D02*
X98239332Y46679922D01*
X98239332Y46679922D02*
X98149343Y46634927D01*
X98149343Y46634927D02*
X97969366Y46589933D01*
X97969366Y46589933D02*
X97744394Y46589933D01*
X97744394Y46589933D02*
X97564416Y46634927D01*
X97564416Y46634927D02*
X97474428Y46679922D01*
X97474428Y46679922D02*
X97429433Y46724916D01*
X97429433Y46724916D02*
X97384439Y46814905D01*
X96934439Y34085040D02*
X97609355Y34085040D01*
X97609355Y34085040D02*
X97744338Y34040045D01*
X97744338Y34040045D02*
X97834327Y33950057D01*
X97834327Y33950057D02*
X97879321Y33815073D01*
X97879321Y33815073D02*
X97879321Y33725085D01*
X97879321Y34579978D02*
X97879321Y34759955D01*
X97879321Y34759955D02*
X97834327Y34849944D01*
X97834327Y34849944D02*
X97789332Y34894938D01*
X97789332Y34894938D02*
X97654349Y34984927D01*
X97654349Y34984927D02*
X97474371Y35029922D01*
X97474371Y35029922D02*
X97114416Y35029922D01*
X97114416Y35029922D02*
X97024428Y34984927D01*
X97024428Y34984927D02*
X96979433Y34939933D01*
X96979433Y34939933D02*
X96934439Y34849944D01*
X96934439Y34849944D02*
X96934439Y34669967D01*
X96934439Y34669967D02*
X96979433Y34579978D01*
X96979433Y34579978D02*
X97024428Y34534983D01*
X97024428Y34534983D02*
X97114416Y34489989D01*
X97114416Y34489989D02*
X97339388Y34489989D01*
X97339388Y34489989D02*
X97429377Y34534983D01*
X97429377Y34534983D02*
X97474371Y34579978D01*
X97474371Y34579978D02*
X97519366Y34669967D01*
X97519366Y34669967D02*
X97519366Y34849944D01*
X97519366Y34849944D02*
X97474371Y34939933D01*
X97474371Y34939933D02*
X97429377Y34984927D01*
X97429377Y34984927D02*
X97339388Y35029922D01*
X11893730Y80868991D02*
X11560397Y80868991D01*
X11560397Y80345181D02*
X11560397Y81345181D01*
X11560397Y81345181D02*
X12036587Y81345181D01*
X12941349Y80345181D02*
X12369921Y80345181D01*
X12655635Y80345181D02*
X12655635Y81345181D01*
X12655635Y81345181D02*
X12560397Y81202324D01*
X12560397Y81202324D02*
X12465159Y81107086D01*
X12465159Y81107086D02*
X12369921Y81059467D01*
X81391666Y107400181D02*
X81391666Y106685896D01*
X81391666Y106685896D02*
X81344047Y106543039D01*
X81344047Y106543039D02*
X81248809Y106447800D01*
X81248809Y106447800D02*
X81105952Y106400181D01*
X81105952Y106400181D02*
X81010714Y106400181D01*
X81772619Y107400181D02*
X82391666Y107400181D01*
X82391666Y107400181D02*
X82058333Y107019229D01*
X82058333Y107019229D02*
X82201190Y107019229D01*
X82201190Y107019229D02*
X82296428Y106971610D01*
X82296428Y106971610D02*
X82344047Y106923991D01*
X82344047Y106923991D02*
X82391666Y106828753D01*
X82391666Y106828753D02*
X82391666Y106590658D01*
X82391666Y106590658D02*
X82344047Y106495420D01*
X82344047Y106495420D02*
X82296428Y106447800D01*
X82296428Y106447800D02*
X82201190Y106400181D01*
X82201190Y106400181D02*
X81915476Y106400181D01*
X81915476Y106400181D02*
X81820238Y106447800D01*
X81820238Y106447800D02*
X81772619Y106495420D01*
X97686009Y40341667D02*
X97686009Y40008334D01*
X98209819Y40008334D02*
X97209819Y40008334D01*
X97209819Y40008334D02*
X97209819Y40484524D01*
X97209819Y41294048D02*
X97209819Y41103572D01*
X97209819Y41103572D02*
X97257438Y41008334D01*
X97257438Y41008334D02*
X97305057Y40960715D01*
X97305057Y40960715D02*
X97447914Y40865477D01*
X97447914Y40865477D02*
X97638390Y40817858D01*
X97638390Y40817858D02*
X98019342Y40817858D01*
X98019342Y40817858D02*
X98114580Y40865477D01*
X98114580Y40865477D02*
X98162200Y40913096D01*
X98162200Y40913096D02*
X98209819Y41008334D01*
X98209819Y41008334D02*
X98209819Y41198810D01*
X98209819Y41198810D02*
X98162200Y41294048D01*
X98162200Y41294048D02*
X98114580Y41341667D01*
X98114580Y41341667D02*
X98019342Y41389286D01*
X98019342Y41389286D02*
X97781247Y41389286D01*
X97781247Y41389286D02*
X97686009Y41341667D01*
X97686009Y41341667D02*
X97638390Y41294048D01*
X97638390Y41294048D02*
X97590771Y41198810D01*
X97590771Y41198810D02*
X97590771Y41008334D01*
X97590771Y41008334D02*
X97638390Y40913096D01*
X97638390Y40913096D02*
X97686009Y40865477D01*
X97686009Y40865477D02*
X97781247Y40817858D01*
X91266666Y13045181D02*
X91266666Y12330896D01*
X91266666Y12330896D02*
X91219047Y12188039D01*
X91219047Y12188039D02*
X91123809Y12092800D01*
X91123809Y12092800D02*
X90980952Y12045181D01*
X90980952Y12045181D02*
X90885714Y12045181D01*
X92266666Y12045181D02*
X91695238Y12045181D01*
X91980952Y12045181D02*
X91980952Y13045181D01*
X91980952Y13045181D02*
X91885714Y12902324D01*
X91885714Y12902324D02*
X91790476Y12807086D01*
X91790476Y12807086D02*
X91695238Y12759467D01*
X4406009Y67766667D02*
X4406009Y67433334D01*
X4929819Y67433334D02*
X3929819Y67433334D01*
X3929819Y67433334D02*
X3929819Y67909524D01*
X4263152Y68719048D02*
X4929819Y68719048D01*
X3882200Y68480953D02*
X4596485Y68242858D01*
X4596485Y68242858D02*
X4596485Y68861905D01*
X96834439Y59435096D02*
X97509355Y59435096D01*
X97509355Y59435096D02*
X97644338Y59390101D01*
X97644338Y59390101D02*
X97734327Y59300113D01*
X97734327Y59300113D02*
X97779321Y59165129D01*
X97779321Y59165129D02*
X97779321Y59075141D01*
X97779321Y60379978D02*
X97779321Y59840045D01*
X97779321Y60110011D02*
X96834439Y60110011D01*
X96834439Y60110011D02*
X96969422Y60020023D01*
X96969422Y60020023D02*
X97059411Y59930034D01*
X97059411Y59930034D02*
X97104405Y59840045D01*
X97779321Y61279866D02*
X97779321Y60739933D01*
X97779321Y61009899D02*
X96834439Y61009899D01*
X96834439Y61009899D02*
X96969422Y60919911D01*
X96969422Y60919911D02*
X97059411Y60829922D01*
X97059411Y60829922D02*
X97104405Y60739933D01*
D12*
%TO.C,U2*%
X62360600Y760000D02*
G75*
G02*
X62106600Y760000I-127000J0D01*
G01*
X62106600Y760000D02*
G75*
G02*
X62360600Y760000I127000J0D01*
G01*
X58957000Y-13083000D02*
X40923000Y-13083000D01*
X58957000Y-588740D02*
X58957000Y-13083000D01*
X58957000Y15111000D02*
X58957000Y14808740D01*
X40923000Y-13083000D02*
X40923000Y-588740D01*
X40923000Y14808740D02*
X40923000Y15111000D01*
X40923000Y15111000D02*
X58957000Y15111000D01*
D13*
%TO.C,J5*%
X5100000Y39350000D02*
X10850000Y39350000D01*
X5100000Y29450000D02*
X5100000Y39350000D01*
X10850000Y39350000D02*
X10850000Y29450000D01*
X10850000Y29450000D02*
X5100000Y29450000D01*
D14*
X7550000Y28650000D02*
G75*
G02*
X7350000Y28650000I-100000J0D01*
G01*
X7350000Y28650000D02*
G75*
G02*
X7550000Y28650000I100000J0D01*
G01*
D15*
%TO.C,C14*%
X38015000Y4961252D02*
X38015000Y4438748D01*
X39485000Y4961252D02*
X39485000Y4438748D01*
%TO.C,C15*%
X35640000Y4811252D02*
X35640000Y3388748D01*
X37460000Y4811252D02*
X37460000Y3388748D01*
D13*
%TO.C,J6*%
X5100000Y51850000D02*
X10850000Y51850000D01*
X5100000Y41950000D02*
X5100000Y51850000D01*
X10850000Y51850000D02*
X10850000Y41950000D01*
X10850000Y41950000D02*
X5100000Y41950000D01*
D14*
X7550000Y41150000D02*
G75*
G02*
X7350000Y41150000I-100000J0D01*
G01*
X7350000Y41150000D02*
G75*
G02*
X7550000Y41150000I100000J0D01*
G01*
D15*
%TO.C,F7*%
X97177500Y50467224D02*
X97177500Y49957776D01*
X98222500Y50467224D02*
X98222500Y49957776D01*
%TO.C,F8*%
X97177500Y65454724D02*
X97177500Y64945276D01*
X98222500Y65454724D02*
X98222500Y64945276D01*
D13*
%TO.C,J12*%
X90825000Y78850000D02*
X96575000Y78850000D01*
X90825000Y68950000D02*
X90825000Y78850000D01*
X96575000Y78850000D02*
X96575000Y68950000D01*
X96575000Y68950000D02*
X90825000Y68950000D01*
D14*
X93275000Y68150000D02*
G75*
G02*
X93075000Y68150000I-100000J0D01*
G01*
X93075000Y68150000D02*
G75*
G02*
X93275000Y68150000I100000J0D01*
G01*
D15*
%TO.C,J2*%
X16961600Y105863600D02*
X18291600Y105863600D01*
X16961600Y104533600D02*
X16961600Y105863600D01*
X16961600Y103263600D02*
X16961600Y100663600D01*
X16961600Y103263600D02*
X19621600Y103263600D01*
X16961600Y100663600D02*
X19621600Y100663600D01*
X19621600Y103263600D02*
X19621600Y100663600D01*
%TO.C,J14*%
X72720000Y22500000D02*
X74100000Y22500000D01*
X72720000Y21120000D02*
X72720000Y22500000D01*
X72720000Y19850000D02*
X72720000Y9580000D01*
X72720000Y19850000D02*
X75480000Y19850000D01*
X72720000Y9580000D02*
X75480000Y9580000D01*
X75480000Y19850000D02*
X75480000Y9580000D01*
%TO.C,J4*%
X6840000Y93010000D02*
X6840000Y86890000D01*
X6840000Y86890000D02*
X11560000Y86890000D01*
X7450000Y92400000D02*
X7450000Y87500000D01*
X7450000Y90050000D02*
X7950000Y90050000D01*
X7450000Y89950000D02*
X7950000Y89950000D01*
X7450000Y87500000D02*
X10950000Y87500000D01*
X7950000Y90050000D02*
X7950000Y89850000D01*
X7950000Y89850000D02*
X7450000Y89850000D01*
X8950000Y93010000D02*
X8950000Y92400000D01*
X8950000Y86890000D02*
X8950000Y87500000D01*
X10250000Y93010000D02*
X10250000Y92400000D01*
X10250000Y86890000D02*
X10250000Y87500000D01*
X10950000Y92400000D02*
X7450000Y92400000D01*
X10950000Y90450000D02*
X10950000Y92400000D01*
X10950000Y89450000D02*
X11560000Y89450000D01*
X10950000Y87500000D02*
X10950000Y89450000D01*
X11560000Y93010000D02*
X6840000Y93010000D01*
X11560000Y91250000D02*
X11760000Y91250000D01*
X11560000Y90450000D02*
X10950000Y90450000D01*
X11560000Y86890000D02*
X11560000Y93010000D01*
X11660000Y91250000D02*
X11660000Y91550000D01*
X11760000Y91550000D02*
X11560000Y91550000D01*
X11760000Y91250000D02*
X11760000Y91550000D01*
X11860000Y93310000D02*
X10610000Y93310000D01*
X11860000Y92060000D02*
X11860000Y93310000D01*
D13*
%TO.C,J7*%
X5100000Y66850000D02*
X10850000Y66850000D01*
X5100000Y56950000D02*
X5100000Y66850000D01*
X10850000Y66850000D02*
X10850000Y56950000D01*
X10850000Y56950000D02*
X5100000Y56950000D01*
D14*
X7550000Y56150000D02*
G75*
G02*
X7350000Y56150000I-100000J0D01*
G01*
X7350000Y56150000D02*
G75*
G02*
X7550000Y56150000I100000J0D01*
G01*
D13*
%TO.C,U1*%
X14980000Y106360000D02*
X14980000Y29860000D01*
X16980000Y108360000D02*
X82980000Y108360000D01*
X16980000Y27860000D02*
X26480000Y27860000D01*
X26480000Y27860000D02*
X28480000Y25860000D01*
X28480000Y25860000D02*
X61480000Y25860000D01*
X61480000Y25860000D02*
X63480000Y27860000D01*
X63480000Y27860000D02*
X82980000Y27860000D01*
X84980000Y29860000D02*
X84980000Y106360000D01*
X14980000Y106360000D02*
G75*
G02*
X16980000Y108360000I1999999J1D01*
G01*
X16980000Y27860000D02*
G75*
G02*
X14980000Y29860000I-1J1999999D01*
G01*
X82980000Y108360000D02*
G75*
G02*
X84980000Y106360000I0J-2000000D01*
G01*
X84980000Y29860000D02*
G75*
G02*
X82980000Y27860000I-2000000J0D01*
G01*
D14*
X14495300Y76620000D02*
G75*
G02*
X14295300Y76620000I-100000J0D01*
G01*
X14295300Y76620000D02*
G75*
G02*
X14495300Y76620000I100000J0D01*
G01*
D13*
%TO.C,J8*%
X5100000Y79033000D02*
X10850000Y79033000D01*
X5100000Y69133000D02*
X5100000Y79033000D01*
X10850000Y79033000D02*
X10850000Y69133000D01*
X10850000Y69133000D02*
X5100000Y69133000D01*
D14*
X7550000Y68333000D02*
G75*
G02*
X7350000Y68333000I-100000J0D01*
G01*
X7350000Y68333000D02*
G75*
G02*
X7550000Y68333000I100000J0D01*
G01*
D15*
%TO.C,F2*%
X3427500Y38054724D02*
X3427500Y37545276D01*
X4472500Y38054724D02*
X4472500Y37545276D01*
%TO.C,SW1*%
X5790000Y86030000D02*
X5790000Y83370000D01*
X10930000Y86030000D02*
X5790000Y86030000D01*
X10930000Y86030000D02*
X10930000Y83370000D01*
X10930000Y83370000D02*
X5790000Y83370000D01*
X12200000Y86030000D02*
X13530000Y86030000D01*
X13530000Y86030000D02*
X13530000Y84700000D01*
%TO.C,F9*%
X97277500Y77554724D02*
X97277500Y77045276D01*
X98322500Y77554724D02*
X98322500Y77045276D01*
%TO.C,F3*%
X3577500Y50517224D02*
X3577500Y50007776D01*
X4622500Y50517224D02*
X4622500Y50007776D01*
%TO.C,F5*%
X3477500Y77754724D02*
X3477500Y77245276D01*
X4522500Y77754724D02*
X4522500Y77245276D01*
D13*
%TO.C,J10*%
X90800000Y51742000D02*
X96550000Y51742000D01*
X90800000Y41842000D02*
X90800000Y51742000D01*
X96550000Y51742000D02*
X96550000Y41842000D01*
X96550000Y41842000D02*
X90800000Y41842000D01*
D14*
X93250000Y41042000D02*
G75*
G02*
X93050000Y41042000I-100000J0D01*
G01*
X93050000Y41042000D02*
G75*
G02*
X93250000Y41042000I100000J0D01*
G01*
D13*
%TO.C,J9*%
X90800000Y39242000D02*
X96550000Y39242000D01*
X90800000Y29342000D02*
X90800000Y39242000D01*
X96550000Y39242000D02*
X96550000Y29342000D01*
X96550000Y29342000D02*
X90800000Y29342000D01*
D14*
X93250000Y28542000D02*
G75*
G02*
X93050000Y28542000I-100000J0D01*
G01*
X93050000Y28542000D02*
G75*
G02*
X93250000Y28542000I100000J0D01*
G01*
D15*
%TO.C,F1*%
X12227064Y81810000D02*
X10772936Y81810000D01*
X12227064Y79990000D02*
X10772936Y79990000D01*
%TO.C,J3*%
X80395000Y105855000D02*
X81725000Y105855000D01*
X80395000Y104525000D02*
X80395000Y105855000D01*
X80395000Y103255000D02*
X80395000Y100655000D01*
X80395000Y103255000D02*
X83055000Y103255000D01*
X80395000Y100655000D02*
X83055000Y100655000D01*
X83055000Y103255000D02*
X83055000Y100655000D01*
%TO.C,F6*%
X97077500Y37954724D02*
X97077500Y37445276D01*
X98122500Y37954724D02*
X98122500Y37445276D01*
%TO.C,J1*%
X90220000Y26240000D02*
X91600000Y26240000D01*
X90220000Y24860000D02*
X90220000Y26240000D01*
X90220000Y23590000D02*
X90220000Y13320000D01*
X90220000Y23590000D02*
X92980000Y23590000D01*
X90220000Y13320000D02*
X92980000Y13320000D01*
X92980000Y23590000D02*
X92980000Y13320000D01*
%TO.C,F4*%
X3527500Y65554724D02*
X3527500Y65045276D01*
X4572500Y65554724D02*
X4572500Y65045276D01*
D13*
%TO.C,J11*%
X90800000Y66742000D02*
X96550000Y66742000D01*
X90800000Y56842000D02*
X90800000Y66742000D01*
X96550000Y66742000D02*
X96550000Y56842000D01*
X96550000Y56842000D02*
X90800000Y56842000D01*
D14*
X93250000Y56042000D02*
G75*
G02*
X93050000Y56042000I-100000J0D01*
G01*
X93050000Y56042000D02*
G75*
G02*
X93250000Y56042000I100000J0D01*
G01*
%TD*%
M02*
