M48
; DRILL file {KiCad 9.0.2} date 2025-06-16T14:42:46-0700
; FORMAT={-:-/ absolute / metric / decimal}
; #@! TF.CreationDate,2025-06-16T14:42:46-07:00
; #@! TF.GenerationSoftware,Kicad,Pcbnew,9.0.2
; #@! TF.FileFunction,Plated,1,4,PTH
FMAT,2
METRIC
; #@! TA.AperFunction,Plated,PTH,ViaDrill
T1C0.300
; #@! TA.AperFunction,Plated,PTH,ViaDrill
T2C0.400
; #@! TA.AperFunction,Plated,PTH,ComponentDrill
T3C0.750
; #@! TA.AperFunction,Plated,PTH,ComponentDrill
T4C1.000
; #@! TA.AperFunction,Plated,PTH,ComponentDrill
T5C1.016
%
G90
G05
T1
X12.275Y40.625
X12.95Y55.575
X13.075Y67.825
X13.175Y40.625
X13.65Y28.975
X13.85Y55.575
X13.975Y67.825
X14.55Y28.975
X22.36Y27.63
X22.49Y36.91
X22.63Y37.69
X22.9Y46.97
X23.5Y36.92
X23.5Y27.65
X23.66Y37.71
X23.925Y4.95
X23.93Y46.99
X25.525Y93.025
X25.525Y91.025
X26.3Y88.25
X26.72Y27.65
X26.84Y37.72
X26.87Y36.88
X27.0Y46.97
X27.63Y27.65
X27.82Y37.74
X27.88Y36.9
X28.03Y46.96
X35.3Y1.325
X36.2Y1.325
X37.625Y2.4
X38.525Y2.4
X43.37Y68.04
X44.4Y68.05
X60.725Y33.425
X71.84Y57.96
X71.93Y67.14
X72.87Y57.97
X72.96Y67.15
X73.32Y27.64
X73.41Y36.59
X74.32Y36.6
X74.35Y27.65
X76.37Y27.59
X76.43Y67.16
X76.48Y57.97
X76.49Y36.6
X77.4Y27.6
X77.425Y11.35
X77.46Y67.17
X77.51Y57.98
X77.52Y36.61
X78.65Y0.95
X84.0Y74.75
X86.12Y56.39
X86.42Y68.39
X86.9Y38.3
X87.15Y56.4
X87.45Y68.4
X87.75Y38.05
X88.72Y28.09
X89.65Y50.5
X89.75Y28.1
T2
X2.3Y54.6
X2.3Y31.7
X2.4Y43.1
X2.4Y21.3
X2.5Y99.6
X2.6Y70.9
X2.8Y11.2
X2.9Y86.8
X5.5Y46.9
X5.7Y74.1
X5.7Y61.9
X5.7Y34.4
X6.0Y92.3
X7.7Y20.6
X7.8Y27.5
X7.8Y13.6
X8.4Y105.6
X9.7Y31.8
X9.8Y64.1
X9.8Y59.7
X9.8Y44.1
X9.8Y37.0
X9.9Y49.3
X10.0Y72.0
X10.1Y76.3
X12.4Y88.7
X13.8Y51.5
X14.0Y66.25
X14.0Y39.4
X14.0Y27.4
X14.4Y21.0
X15.5Y80.9
X15.55Y77.2
X15.8Y92.1
X15.9Y3.3
X16.1Y38.8
X16.3Y35.7
X16.7Y44.3
X16.7Y41.5
X18.25Y78.75
X18.9Y7.0
X19.3Y88.1
X19.65Y8.2
X19.7Y83.5
X19.7Y22.9
X19.9Y9.5
X20.5Y10.7
X20.6Y28.8
X21.1Y12.6
X21.3Y18.0
X22.0Y102.4
X24.025Y14.075
X25.1Y35.8
X25.1Y28.9
X25.3Y45.7
X25.4Y38.9
X25.5Y9.4
X25.7Y24.2
X27.5Y16.0
X28.8Y32.3
X28.8Y2.1
X29.3Y42.2
X30.2Y54.0
X30.775Y58.8
X32.0Y102.4
X32.0Y92.4
X32.0Y82.4
X32.0Y47.4
X32.2Y21.6
X32.2Y16.9
X32.2Y13.7
X32.2Y9.3
X32.45Y69.35
X32.45Y63.15
X32.8Y1.4
X32.85Y58.85
X33.0Y5.7
X34.5Y52.4
X34.7Y72.45
X35.2Y37.6
X36.2Y20.9
X38.5Y8.4
X38.8Y12.3
X38.95Y10.9
X39.0Y45.8
X39.0Y9.6
X39.05Y13.45
X39.3Y7.5
X39.5Y31.5
X41.45Y95.4
X42.0Y102.4
X42.0Y92.4
X42.0Y82.4
X42.3Y17.3
X42.45Y64.6
X42.5Y36.0
X42.5Y27.3
X42.5Y20.8
X42.7Y24.4
X43.3Y52.5
X43.325Y95.35
X45.2Y95.525
X45.9Y40.3
X46.0Y31.7
X46.0Y12.5
X46.0Y7.6
X48.7Y34.5
X48.725Y40.075
X48.725Y36.325
X50.0Y45.4
X50.1Y24.4
X50.2Y16.9
X50.3Y20.6
X51.025Y37.475
X51.875Y33.475
X52.0Y102.4
X52.0Y92.4
X52.0Y82.4
X52.0Y74.9
X52.0Y67.4
X52.3Y27.4
X53.05Y37.45
X53.4Y48.9
X53.4Y12.5
X53.4Y7.6
X53.525Y38.625
X54.2Y41.6
X56.2Y61.4
X56.275Y44.05
X56.3Y52.6
X56.325Y50.9
X57.45Y32.125
X57.5Y24.4
X57.7Y20.7
X57.7Y16.7
X57.8Y46.7
X57.9Y44.1
X60.2Y38.0
X60.65Y13.525
X60.875Y3.275
X60.9Y12.1
X60.9Y9.8
X60.95Y8.375
X61.0Y56.8
X61.0Y7.1
X61.0Y4.5
X61.025Y5.825
X61.1Y1.9
X61.8Y48.1
X62.0Y102.4
X62.0Y92.4
X62.35Y42.6
X62.775Y39.025
X63.9Y15.1
X64.5Y82.4
X64.5Y74.9
X64.5Y67.4
X64.7Y60.4
X65.4Y23.3
X65.5Y31.0
X65.5Y17.6
X66.4Y10.5
X67.8Y41.8
X67.8Y7.0
X68.0Y4.5
X68.05Y48.95
X68.1Y0.9
X68.3Y36.3
X68.4Y26.5
X68.4Y20.2
X69.2Y66.9
X69.75Y38.625
X70.2Y54.1
X70.7Y60.1
X70.7Y41.0
X70.8Y65.1
X70.8Y62.7
X71.2Y38.4
X71.7Y18.6
X72.0Y102.4
X72.0Y82.4
X72.0Y74.9
X72.2Y34.5
X72.2Y29.7
X72.2Y24.8
X72.3Y32.2
X72.7Y12.3
X72.9Y9.6
X73.05Y45.05
X73.4Y46.3
X73.4Y43.6
X74.6Y66.0
X74.7Y59.2
X75.1Y7.0
X75.4Y38.4
X75.4Y4.3
X75.4Y0.8
X75.7Y41.0
X76.0Y72.3
X76.0Y54.2
X76.1Y49.3
X76.5Y16.2
X76.6Y13.3
X78.6Y24.2
X79.5Y92.4
X80.5Y29.6
X80.5Y15.5
X82.7Y44.9
X82.8Y42.3
X83.01Y81.22
X83.1Y9.0
X83.675Y15.2
X83.7Y60.1
X83.8Y68.7
X84.3Y64.4
X84.5Y82.4
X84.9Y14.55
X85.95Y14.0
X86.1Y2.3
X86.8Y52.0
X88.45Y36.7
X89.5Y107.4
X89.5Y84.9
X89.65Y77.7
X89.65Y65.75
X89.7Y23.3
X89.7Y14.7
X91.0Y36.3
X91.2Y64.0
X91.2Y48.7
X91.2Y32.3
X91.4Y71.7
X91.4Y59.9
X91.6Y44.4
X92.0Y92.4
X92.4Y54.2
X92.8Y40.4
X93.1Y66.2
X93.2Y78.4
X95.0Y61.8
X95.4Y34.292
X95.6Y73.8
X95.6Y54.2
X95.8Y46.8
X97.0Y99.9
X97.6Y68.9
X97.65Y86.75
X97.8Y62.1
X97.9Y74.1
X97.9Y34.3
X98.1Y18.7
X98.1Y6.2
X98.2Y46.7
X99.5Y82.4
T3
X9.75Y90.95
X9.75Y88.95
T4
X7.12Y84.7
X7.45Y76.583
X7.45Y74.083
X7.45Y71.583
X7.45Y64.4
X7.45Y61.9
X7.45Y59.4
X7.45Y49.4
X7.45Y46.9
X7.45Y44.4
X7.45Y36.9
X7.45Y34.4
X7.45Y31.9
X9.66Y84.7
X12.2Y84.7
X18.292Y104.534
X18.292Y101.994
X74.1Y21.12
X74.1Y18.58
X74.1Y16.04
X74.1Y13.5
X74.1Y10.96
X81.725Y104.525
X81.725Y101.985
X91.6Y24.86
X91.6Y22.32
X91.6Y19.78
X91.6Y17.24
X91.6Y14.7
X93.15Y64.292
X93.15Y61.792
X93.15Y59.292
X93.15Y49.292
X93.15Y46.792
X93.15Y44.292
X93.15Y36.792
X93.15Y34.292
X93.15Y31.792
X93.175Y76.4
X93.175Y73.9
X93.175Y71.4
T5
X18.23Y76.62
X18.23Y74.08
X18.23Y71.54
X18.23Y69.0
X18.23Y66.46
X18.23Y63.92
X18.23Y61.38
X18.23Y58.84
X18.23Y56.3
X18.23Y53.76
X18.23Y51.22
X18.23Y48.68
X18.23Y46.14
X18.23Y43.6
X18.23Y41.06
X18.23Y38.52
X18.23Y35.98
X18.23Y33.44
X18.23Y30.9
X20.77Y76.62
X20.77Y74.08
X20.77Y71.54
X20.77Y69.0
X20.77Y66.46
X20.77Y63.92
X20.77Y61.38
X20.77Y58.84
X20.77Y56.3
X20.77Y53.76
X20.77Y51.22
X20.77Y48.68
X20.77Y46.14
X20.77Y43.6
X20.77Y41.06
X20.77Y38.52
X20.77Y35.98
X20.77Y33.44
X20.77Y30.9
X79.19Y76.62
X79.19Y74.08
X79.19Y71.54
X79.19Y69.0
X79.19Y66.46
X79.19Y63.92
X79.19Y61.38
X79.19Y58.84
X79.19Y56.3
X79.19Y53.76
X79.19Y51.22
X79.19Y48.68
X79.19Y46.14
X79.19Y43.6
X79.19Y41.06
X79.19Y38.52
X79.19Y35.98
X79.19Y33.44
X79.19Y30.9
X81.73Y76.62
X81.73Y74.08
X81.73Y71.54
X81.73Y69.0
X81.73Y66.46
X81.73Y63.92
X81.73Y61.38
X81.73Y58.84
X81.73Y56.3
X81.73Y53.76
X81.73Y51.22
X81.73Y48.68
X81.73Y46.14
X81.73Y43.6
X81.73Y41.06
X81.73Y38.52
X81.73Y35.98
X81.73Y33.44
X81.73Y30.9
M30
