%TF.GenerationSoftware,KiCad,Pcbnew,9.0.2*%
%TF.CreationDate,2025-06-17T11:51:51-07:00*%
%TF.ProjectId,Revision01,52657669-7369-46f6-9e30-312e6b696361,A*%
%TF.SameCoordinates,PX692bd40PY908ed60*%
%TF.FileFunction,Plated,1,4,PTH,Drill*%
%TF.FilePolarity,Positive*%
%FSLAX46Y46*%
G04 Gerber Fmt 4.6, Leading zero omitted, Abs format (unit mm)*
G04 Created by KiCad (PCBNEW 9.0.2) date 2025-06-17 11:51:51*
%MOMM*%
%LPD*%
G01*
G04 APERTURE LIST*
%TA.AperFunction,ViaDrill*%
%ADD10C,0.300000*%
%TD*%
%TA.AperFunction,ViaDrill*%
%ADD11C,0.400000*%
%TD*%
%TA.AperFunction,ComponentDrill*%
%ADD12C,0.750000*%
%TD*%
%TA.AperFunction,ComponentDrill*%
%ADD13C,1.000000*%
%TD*%
%TA.AperFunction,ComponentDrill*%
%ADD14C,1.016000*%
%TD*%
G04 APERTURE END LIST*
D10*
X12275000Y40625000D03*
X12950000Y55575000D03*
X13075000Y67825000D03*
X13175000Y40625000D03*
X13650000Y28975000D03*
X13850000Y55575000D03*
X13975000Y67825000D03*
X14550000Y28975000D03*
X22360000Y27630000D03*
X22490000Y36910000D03*
X22630000Y37690000D03*
X22900000Y46970000D03*
X23500000Y36920000D03*
X23500000Y27650000D03*
X23660000Y37710000D03*
X23925000Y4950000D03*
X23930000Y46990000D03*
X25525000Y93025000D03*
X25525000Y91025000D03*
X26300000Y88250000D03*
X26720000Y27650000D03*
X26840000Y37720000D03*
X26870000Y36880000D03*
X27000000Y46970000D03*
X27630000Y27650000D03*
X27820000Y37740000D03*
X27880000Y36900000D03*
X28030000Y46960000D03*
X35300000Y1325000D03*
X36200000Y1325000D03*
X37625000Y2400000D03*
X38525000Y2400000D03*
X43370000Y68040000D03*
X44400000Y68050000D03*
X60725000Y33425000D03*
X71840000Y57960000D03*
X71930000Y67140000D03*
X72870000Y57970000D03*
X72960000Y67150000D03*
X73320000Y27640000D03*
X73410000Y36590000D03*
X74320000Y36600000D03*
X74350000Y27650000D03*
X76370000Y27590000D03*
X76430000Y67160000D03*
X76480000Y57970000D03*
X76490000Y36600000D03*
X77400000Y27600000D03*
X77460000Y67170000D03*
X77510000Y57980000D03*
X77520000Y36610000D03*
X84000000Y74750000D03*
X86120000Y56390000D03*
X86420000Y68390000D03*
X87150000Y56400000D03*
X87450000Y68400000D03*
X87750000Y38050000D03*
X88720000Y28090000D03*
X89650000Y50500000D03*
X89750000Y28100000D03*
D11*
X2300000Y54600000D03*
X2300000Y31700000D03*
X2400000Y43100000D03*
X2400000Y21300000D03*
X2500000Y99600000D03*
X2600000Y70900000D03*
X2800000Y11200000D03*
X2900000Y86800000D03*
X5500000Y46900000D03*
X5700000Y74100000D03*
X5700000Y61900000D03*
X5700000Y34400000D03*
X6000000Y92300000D03*
X7700000Y20600000D03*
X7800000Y27500000D03*
X7800000Y13600000D03*
X8400000Y105600000D03*
X9700000Y31800000D03*
X9800000Y64100000D03*
X9800000Y59700000D03*
X9800000Y44100000D03*
X9800000Y37000000D03*
X9900000Y49300000D03*
X10000000Y72000000D03*
X10100000Y76300000D03*
X12400000Y88700000D03*
X13800000Y51500000D03*
X14000000Y66250000D03*
X14000000Y39400000D03*
X14000000Y27400000D03*
X14400000Y21000000D03*
X15500000Y80900000D03*
X15550000Y77200000D03*
X15800000Y92100000D03*
X15900000Y3300000D03*
X16100000Y38800000D03*
X16300000Y35700000D03*
X16700000Y44300000D03*
X16700000Y41500000D03*
X18200000Y81900000D03*
X18250000Y78750000D03*
X18900000Y7000000D03*
X19300000Y88100000D03*
X19650000Y8200000D03*
X19700000Y83500000D03*
X19700000Y22900000D03*
X19900000Y9500000D03*
X20500000Y10700000D03*
X20600000Y28800000D03*
X21100000Y12600000D03*
X21300000Y18000000D03*
X22000000Y102400000D03*
X25100000Y35800000D03*
X25100000Y28900000D03*
X25300000Y45700000D03*
X25400000Y38900000D03*
X25500000Y9400000D03*
X25700000Y24200000D03*
X27500000Y16000000D03*
X28800000Y32300000D03*
X28800000Y2100000D03*
X29300000Y42200000D03*
X30200000Y54000000D03*
X30775000Y58800000D03*
X31200000Y26700000D03*
X32000000Y102400000D03*
X32000000Y92400000D03*
X32000000Y82400000D03*
X32000000Y47400000D03*
X32200000Y21600000D03*
X32200000Y16900000D03*
X32200000Y13700000D03*
X32200000Y9300000D03*
X32200000Y6100000D03*
X32450000Y69350000D03*
X32450000Y63150000D03*
X32800000Y1400000D03*
X32850000Y58850000D03*
X34500000Y52400000D03*
X34700000Y72450000D03*
X35200000Y37600000D03*
X36200000Y20900000D03*
X38500000Y8400000D03*
X38800000Y12300000D03*
X38950000Y10900000D03*
X39000000Y45800000D03*
X39000000Y9600000D03*
X39050000Y13450000D03*
X39300000Y7500000D03*
X39500000Y31500000D03*
X41450000Y95400000D03*
X42000000Y102400000D03*
X42000000Y92400000D03*
X42000000Y82400000D03*
X42300000Y17300000D03*
X42450000Y64600000D03*
X42500000Y36000000D03*
X42500000Y27300000D03*
X42500000Y20800000D03*
X42700000Y24400000D03*
X43300000Y52500000D03*
X43325000Y95350000D03*
X45200000Y95525000D03*
X46000000Y31700000D03*
X46000000Y12500000D03*
X46000000Y7600000D03*
X47200000Y40300000D03*
X48700000Y34500000D03*
X48725000Y40075000D03*
X48725000Y36325000D03*
X50000000Y45400000D03*
X50100000Y24400000D03*
X50200000Y16900000D03*
X50300000Y20600000D03*
X51025000Y37475000D03*
X51875000Y33475000D03*
X52000000Y102400000D03*
X52000000Y92400000D03*
X52000000Y82400000D03*
X52000000Y74900000D03*
X52000000Y67400000D03*
X52300000Y27400000D03*
X53050000Y37450000D03*
X53400000Y48900000D03*
X53400000Y12500000D03*
X53400000Y7600000D03*
X53525000Y38625000D03*
X54200000Y41600000D03*
X56200000Y61400000D03*
X56275000Y44050000D03*
X56300000Y52600000D03*
X56325000Y50900000D03*
X57450000Y32125000D03*
X57500000Y24400000D03*
X57700000Y20700000D03*
X57700000Y16700000D03*
X57800000Y46700000D03*
X57900000Y44100000D03*
X60200000Y38000000D03*
X60650000Y13525000D03*
X60875000Y3275000D03*
X60900000Y12100000D03*
X60900000Y9800000D03*
X60950000Y8375000D03*
X61000000Y56800000D03*
X61000000Y7100000D03*
X61000000Y4500000D03*
X61025000Y5825000D03*
X61100000Y1900000D03*
X61800000Y48100000D03*
X62000000Y102400000D03*
X62000000Y92400000D03*
X62350000Y42600000D03*
X62775000Y39025000D03*
X63900000Y15100000D03*
X64500000Y82400000D03*
X64500000Y74900000D03*
X64500000Y67400000D03*
X64700000Y60400000D03*
X65400000Y23300000D03*
X65500000Y31000000D03*
X65500000Y17600000D03*
X66400000Y10500000D03*
X67800000Y41800000D03*
X67800000Y7000000D03*
X68000000Y4500000D03*
X68100000Y49600000D03*
X68100000Y900000D03*
X68300000Y36300000D03*
X68400000Y26500000D03*
X68400000Y20200000D03*
X69200000Y66900000D03*
X69750000Y38625000D03*
X70200000Y54100000D03*
X70700000Y60100000D03*
X70700000Y41000000D03*
X70800000Y65100000D03*
X70800000Y62700000D03*
X71200000Y38400000D03*
X71700000Y18600000D03*
X72000000Y102400000D03*
X72000000Y82400000D03*
X72000000Y74900000D03*
X72200000Y34500000D03*
X72200000Y29700000D03*
X72200000Y24800000D03*
X72300000Y32200000D03*
X72700000Y12300000D03*
X72900000Y9600000D03*
X73050000Y45050000D03*
X73400000Y46300000D03*
X73400000Y43600000D03*
X74600000Y66000000D03*
X74700000Y59200000D03*
X75100000Y7000000D03*
X75400000Y38400000D03*
X75400000Y4300000D03*
X75400000Y800000D03*
X75700000Y41000000D03*
X76000000Y72300000D03*
X76000000Y54200000D03*
X76100000Y49300000D03*
X76500000Y16200000D03*
X78600000Y24200000D03*
X78600000Y11800000D03*
X79500000Y92400000D03*
X79900000Y84200000D03*
X80500000Y29600000D03*
X80800000Y17700000D03*
X82400000Y800000D03*
X82700000Y44900000D03*
X82800000Y42300000D03*
X83100000Y9000000D03*
X83675000Y15200000D03*
X83700000Y60100000D03*
X83800000Y68700000D03*
X84300000Y64400000D03*
X84500000Y82400000D03*
X84900000Y14550000D03*
X85900000Y13100000D03*
X86800000Y52000000D03*
X86800000Y13900000D03*
X87100000Y6100000D03*
X88300000Y15900000D03*
X88450000Y36700000D03*
X89500000Y107400000D03*
X89500000Y84900000D03*
X89650000Y77700000D03*
X89650000Y65750000D03*
X89700000Y23300000D03*
X91000000Y36300000D03*
X91200000Y64000000D03*
X91200000Y48700000D03*
X91200000Y32300000D03*
X91400000Y71700000D03*
X91400000Y59900000D03*
X91600000Y44400000D03*
X92000000Y92400000D03*
X92400000Y54200000D03*
X92600000Y1400000D03*
X92800000Y40400000D03*
X93100000Y66200000D03*
X93200000Y78400000D03*
X95000000Y61800000D03*
X95400000Y34292000D03*
X95600000Y73800000D03*
X95600000Y54200000D03*
X95800000Y46800000D03*
X97000000Y99900000D03*
X97600000Y68900000D03*
X97650000Y86750000D03*
X97800000Y62100000D03*
X97900000Y74100000D03*
X97900000Y34300000D03*
X98100000Y18700480D03*
X98100000Y6200000D03*
X98200000Y46700000D03*
X99500000Y82400000D03*
D12*
%TO.C,J4*%
X9750000Y90950000D03*
X9750000Y88950000D03*
D13*
%TO.C,SW1*%
X7120000Y84700000D03*
%TO.C,J8*%
X7450000Y76583000D03*
X7450000Y74083000D03*
X7450000Y71583000D03*
%TO.C,J7*%
X7450000Y64400000D03*
X7450000Y61900000D03*
X7450000Y59400000D03*
%TO.C,J6*%
X7450000Y49400000D03*
X7450000Y46900000D03*
X7450000Y44400000D03*
%TO.C,J5*%
X7450000Y36900000D03*
X7450000Y34400000D03*
X7450000Y31900000D03*
%TO.C,SW1*%
X9660000Y84700000D03*
X12200000Y84700000D03*
%TO.C,J2*%
X18291600Y104533600D03*
X18291600Y101993600D03*
%TO.C,J14*%
X74100000Y21120000D03*
X74100000Y18580000D03*
X74100000Y16040000D03*
X74100000Y13500000D03*
X74100000Y10960000D03*
%TO.C,J3*%
X81725000Y104525000D03*
X81725000Y101985000D03*
%TO.C,J1*%
X91600000Y24860000D03*
X91600000Y22320000D03*
X91600000Y19780000D03*
X91600000Y17240000D03*
X91600000Y14700000D03*
%TO.C,J11*%
X93150000Y64292000D03*
X93150000Y61792000D03*
X93150000Y59292000D03*
%TO.C,J10*%
X93150000Y49292000D03*
X93150000Y46792000D03*
X93150000Y44292000D03*
%TO.C,J9*%
X93150000Y36792000D03*
X93150000Y34292000D03*
X93150000Y31792000D03*
%TO.C,J12*%
X93175000Y76400000D03*
X93175000Y73900000D03*
X93175000Y71400000D03*
D14*
%TO.C,U1*%
X18230000Y76620000D03*
X18230000Y74080000D03*
X18230000Y71540000D03*
X18230000Y69000000D03*
X18230000Y66460000D03*
X18230000Y63920000D03*
X18230000Y61380000D03*
X18230000Y58840000D03*
X18230000Y56300000D03*
X18230000Y53760000D03*
X18230000Y51220000D03*
X18230000Y48680000D03*
X18230000Y46140000D03*
X18230000Y43600000D03*
X18230000Y41060000D03*
X18230000Y38520000D03*
X18230000Y35980000D03*
X18230000Y33440000D03*
X18230000Y30900000D03*
X20770000Y76620000D03*
X20770000Y74080000D03*
X20770000Y71540000D03*
X20770000Y69000000D03*
X20770000Y66460000D03*
X20770000Y63920000D03*
X20770000Y61380000D03*
X20770000Y58840000D03*
X20770000Y56300000D03*
X20770000Y53760000D03*
X20770000Y51220000D03*
X20770000Y48680000D03*
X20770000Y46140000D03*
X20770000Y43600000D03*
X20770000Y41060000D03*
X20770000Y38520000D03*
X20770000Y35980000D03*
X20770000Y33440000D03*
X20770000Y30900000D03*
X79190000Y76620000D03*
X79190000Y74080000D03*
X79190000Y71540000D03*
X79190000Y69000000D03*
X79190000Y66460000D03*
X79190000Y63920000D03*
X79190000Y61380000D03*
X79190000Y58840000D03*
X79190000Y56300000D03*
X79190000Y53760000D03*
X79190000Y51220000D03*
X79190000Y48680000D03*
X79190000Y46140000D03*
X79190000Y43600000D03*
X79190000Y41060000D03*
X79190000Y38520000D03*
X79190000Y35980000D03*
X79190000Y33440000D03*
X79190000Y30900000D03*
X81730000Y76620000D03*
X81730000Y74080000D03*
X81730000Y71540000D03*
X81730000Y69000000D03*
X81730000Y66460000D03*
X81730000Y63920000D03*
X81730000Y61380000D03*
X81730000Y58840000D03*
X81730000Y56300000D03*
X81730000Y53760000D03*
X81730000Y51220000D03*
X81730000Y48680000D03*
X81730000Y46140000D03*
X81730000Y43600000D03*
X81730000Y41060000D03*
X81730000Y38520000D03*
X81730000Y35980000D03*
X81730000Y33440000D03*
X81730000Y30900000D03*
M02*
