%TF.GenerationSoftware,KiCad,Pcbnew,9.0.2*%
%TF.CreationDate,2025-06-17T11:51:54-07:00*%
%TF.ProjectId,Revision01,52657669-7369-46f6-9e30-312e6b696361,A*%
%TF.SameCoordinates,PX692bd40PY908ed60*%
%TF.FileFunction,Paste,Bot*%
%TF.FilePolarity,Positive*%
%FSLAX46Y46*%
G04 Gerber Fmt 4.6, Leading zero omitted, Abs format (unit mm)*
G04 Created by KiCad (PCBNEW 9.0.2) date 2025-06-17 11:51:54*
%MOMM*%
%LPD*%
G01*
G04 APERTURE LIST*
G04 Aperture macros list*
%AMRoundRect*
0 Rectangle with rounded corners*
0 $1 Rounding radius*
0 $2 $3 $4 $5 $6 $7 $8 $9 X,Y pos of 4 corners*
0 Add a 4 corners polygon primitive as box body*
4,1,4,$2,$3,$4,$5,$6,$7,$8,$9,$2,$3,0*
0 Add four circle primitives for the rounded corners*
1,1,$1+$1,$2,$3*
1,1,$1+$1,$4,$5*
1,1,$1+$1,$6,$7*
1,1,$1+$1,$8,$9*
0 Add four rect primitives between the rounded corners*
20,1,$1+$1,$2,$3,$4,$5,0*
20,1,$1+$1,$4,$5,$6,$7,0*
20,1,$1+$1,$6,$7,$8,$9,0*
20,1,$1+$1,$8,$9,$2,$3,0*%
G04 Aperture macros list end*
%ADD10C,0.010000*%
%ADD11RoundRect,0.250000X0.350000X0.450000X-0.350000X0.450000X-0.350000X-0.450000X0.350000X-0.450000X0*%
%ADD12RoundRect,0.162500X0.447500X0.162500X-0.447500X0.162500X-0.447500X-0.162500X0.447500X-0.162500X0*%
%ADD13RoundRect,0.250000X-0.475000X0.337500X-0.475000X-0.337500X0.475000X-0.337500X0.475000X0.337500X0*%
%ADD14RoundRect,0.250000X-0.337500X-0.475000X0.337500X-0.475000X0.337500X0.475000X-0.337500X0.475000X0*%
%ADD15RoundRect,0.250000X0.475000X-0.337500X0.475000X0.337500X-0.475000X0.337500X-0.475000X-0.337500X0*%
%ADD16RoundRect,0.225000X-0.375000X0.225000X-0.375000X-0.225000X0.375000X-0.225000X0.375000X0.225000X0*%
%ADD17RoundRect,0.250000X0.337500X0.475000X-0.337500X0.475000X-0.337500X-0.475000X0.337500X-0.475000X0*%
%ADD18RoundRect,0.250000X-0.450000X0.350000X-0.450000X-0.350000X0.450000X-0.350000X0.450000X0.350000X0*%
%ADD19RoundRect,0.162500X-0.447500X-0.162500X0.447500X-0.162500X0.447500X0.162500X-0.447500X0.162500X0*%
%ADD20RoundRect,0.250000X0.450000X-0.350000X0.450000X0.350000X-0.450000X0.350000X-0.450000X-0.350000X0*%
%ADD21RoundRect,0.250000X-0.350000X-0.450000X0.350000X-0.450000X0.350000X0.450000X-0.350000X0.450000X0*%
%ADD22RoundRect,0.250000X-0.650000X0.412500X-0.650000X-0.412500X0.650000X-0.412500X0.650000X0.412500X0*%
%ADD23RoundRect,0.027500X0.292500X0.082500X-0.292500X0.082500X-0.292500X-0.082500X0.292500X-0.082500X0*%
%ADD24RoundRect,0.027500X0.082500X0.292500X-0.082500X0.292500X-0.082500X-0.292500X0.082500X-0.292500X0*%
G04 APERTURE END LIST*
D10*
%TO.C,U3*%
X56602500Y36560000D02*
X55632500Y36560000D01*
X55632500Y37640000D01*
X56602500Y37640000D01*
X56602500Y36560000D01*
G36*
X56602500Y36560000D02*
G01*
X55632500Y36560000D01*
X55632500Y37640000D01*
X56602500Y37640000D01*
X56602500Y36560000D01*
G37*
%TD*%
D11*
%TO.C,R8*%
X91200000Y73900000D03*
X89200000Y73900000D03*
%TD*%
D12*
%TO.C,Q3*%
X20515000Y89175000D03*
X20515000Y87275000D03*
X17895000Y88225000D03*
%TD*%
D11*
%TO.C,R7*%
X90950000Y61900000D03*
X88950000Y61900000D03*
%TD*%
D13*
%TO.C,C8*%
X77000000Y61200000D03*
X77000000Y59125000D03*
%TD*%
D14*
%TO.C,C11*%
X57462500Y33525000D03*
X59537500Y33525000D03*
%TD*%
D15*
%TO.C,C9*%
X77000000Y63925000D03*
X77000000Y66000000D03*
%TD*%
D16*
%TO.C,D1*%
X14000000Y38300000D03*
X14000000Y35000000D03*
%TD*%
D17*
%TO.C,C1*%
X55200000Y33500000D03*
X53125000Y33500000D03*
%TD*%
D16*
%TO.C,D12*%
X87700000Y42400000D03*
X87700000Y39100000D03*
%TD*%
%TO.C,D10*%
X89300000Y32450000D03*
X89300000Y29150000D03*
%TD*%
%TO.C,D11*%
X87700000Y47400000D03*
X87700000Y44100000D03*
%TD*%
%TO.C,D2*%
X14000000Y33300000D03*
X14000000Y30000000D03*
%TD*%
%TO.C,D6*%
X13400000Y59900000D03*
X13400000Y56600000D03*
%TD*%
D18*
%TO.C,R6*%
X90010000Y45270000D03*
X90010000Y43270000D03*
%TD*%
D19*
%TO.C,Q2*%
X22455000Y87325000D03*
X22455000Y89225000D03*
X25075000Y88275000D03*
%TD*%
D13*
%TO.C,C2*%
X23000000Y30937500D03*
X23000000Y28862500D03*
%TD*%
D16*
%TO.C,D8*%
X13500000Y72150000D03*
X13500000Y68850000D03*
%TD*%
D20*
%TO.C,R12*%
X27280000Y43800000D03*
X27280000Y45800000D03*
%TD*%
D11*
%TO.C,R27*%
X20205000Y85225000D03*
X18205000Y85225000D03*
%TD*%
D21*
%TO.C,R2*%
X9625000Y46900000D03*
X11625000Y46900000D03*
%TD*%
D18*
%TO.C,R13*%
X73810000Y30820000D03*
X73810000Y28820000D03*
%TD*%
D16*
%TO.C,D15*%
X87000000Y77650000D03*
X87000000Y74350000D03*
%TD*%
D18*
%TO.C,R11*%
X27380000Y40900000D03*
X27380000Y38900000D03*
%TD*%
D13*
%TO.C,C4*%
X23250000Y40937500D03*
X23250000Y38862500D03*
%TD*%
D11*
%TO.C,R5*%
X91200000Y34328000D03*
X89200000Y34328000D03*
%TD*%
D16*
%TO.C,D9*%
X86900000Y35450000D03*
X86900000Y32150000D03*
%TD*%
D21*
%TO.C,R4*%
X9500000Y74150000D03*
X11500000Y74150000D03*
%TD*%
D20*
%TO.C,R14*%
X73960000Y33420000D03*
X73960000Y35420000D03*
%TD*%
D11*
%TO.C,R26*%
X24325000Y91025000D03*
X22325000Y91025000D03*
%TD*%
D12*
%TO.C,Q1*%
X41110000Y71850000D03*
X41110000Y69950000D03*
X38490000Y70900000D03*
%TD*%
D22*
%TO.C,C10*%
X43800000Y72412500D03*
X43800000Y69287500D03*
%TD*%
D17*
%TO.C,C12*%
X53062500Y36100000D03*
X50987500Y36100000D03*
%TD*%
D15*
%TO.C,C13*%
X84000000Y71575000D03*
X84000000Y73650000D03*
%TD*%
D16*
%TO.C,D14*%
X86700000Y60750000D03*
X86700000Y57450000D03*
%TD*%
D15*
%TO.C,C7*%
X77000000Y33362500D03*
X77000000Y35437500D03*
%TD*%
D18*
%TO.C,R15*%
X72390000Y61162500D03*
X72390000Y59162500D03*
%TD*%
D16*
%TO.C,D5*%
X14000000Y65050000D03*
X14000000Y61750000D03*
%TD*%
D15*
%TO.C,C5*%
X23200000Y43762500D03*
X23200000Y45837500D03*
%TD*%
D11*
%TO.C,R29*%
X24325000Y93025000D03*
X22325000Y93025000D03*
%TD*%
D13*
%TO.C,C6*%
X76910000Y30825000D03*
X76910000Y28750000D03*
%TD*%
D16*
%TO.C,D7*%
X13500000Y77200000D03*
X13500000Y73900000D03*
%TD*%
D21*
%TO.C,R3*%
X9750000Y61900000D03*
X11750000Y61900000D03*
%TD*%
D20*
%TO.C,R10*%
X27130000Y33650000D03*
X27130000Y35650000D03*
%TD*%
D21*
%TO.C,R1*%
X9750000Y34400000D03*
X11750000Y34400000D03*
%TD*%
D23*
%TO.C,U3*%
X57662500Y38100000D03*
X57662500Y37700000D03*
X57662500Y37300000D03*
X57662500Y36900000D03*
X57662500Y36500000D03*
X57662500Y36100000D03*
D24*
X57117500Y35555000D03*
X56717500Y35555000D03*
X56317500Y35555000D03*
X55917500Y35555000D03*
X55517500Y35555000D03*
X55117500Y35555000D03*
D23*
X54572500Y36100000D03*
X54572500Y36500000D03*
X54572500Y36900000D03*
X54572500Y37300000D03*
X54572500Y37700000D03*
X54572500Y38100000D03*
D24*
X55117500Y38645000D03*
X55517500Y38645000D03*
X55917500Y38645000D03*
X56317500Y38645000D03*
X56717500Y38645000D03*
X57117500Y38645000D03*
%TD*%
D18*
%TO.C,R9*%
X27130000Y30900000D03*
X27130000Y28900000D03*
%TD*%
D20*
%TO.C,R16*%
X72440000Y64000000D03*
X72440000Y66000000D03*
%TD*%
D16*
%TO.C,D16*%
X87000000Y72700000D03*
X87000000Y69400000D03*
%TD*%
D15*
%TO.C,C3*%
X23000000Y33612500D03*
X23000000Y35687500D03*
%TD*%
D16*
%TO.C,D13*%
X86700000Y65750000D03*
X86700000Y62450000D03*
%TD*%
D18*
%TO.C,R28*%
X20325000Y93025000D03*
X20325000Y91025000D03*
%TD*%
D11*
%TO.C,R17*%
X41050000Y68100000D03*
X39050000Y68100000D03*
%TD*%
D16*
%TO.C,D4*%
X12750000Y44950000D03*
X12750000Y41650000D03*
%TD*%
%TO.C,D3*%
X13800000Y50450000D03*
X13800000Y47150000D03*
%TD*%
M02*
