%TF.GenerationSoftware,Altium Limited,Altium Designer,25.7.1 (20)*%
G04 Layer_Color=65535*
%FSLAX45Y45*%
%MOMM*%
%TF.SameCoordinates,8EC0096B-1770-4E53-A1A5-517F8E17CF1D*%
%TF.FilePolarity,Positive*%
%TF.FileFunction,Legend,Top*%
%TF.Part,Single*%
G01*
G75*
%TA.AperFunction,NonConductor*%
%ADD26C,0.25000*%
%ADD27C,0.20000*%
%ADD28C,0.25400*%
%ADD29C,0.15000*%
D26*
X2044500Y1838000D02*
G03*
X2044500Y1838000I-12500J0D01*
G01*
X999886Y1593700D02*
G03*
X999886Y1593700I-12500J0D01*
G01*
D27*
X1768000Y781454D02*
X1788000D01*
X1768000Y896454D02*
X1788000D01*
X2166500Y1001000D02*
Y1793000D01*
X1897500D02*
X2166500D01*
X1897500Y1001000D02*
Y1793000D01*
Y1001000D02*
X2166500D01*
X221140Y1798080D02*
X358140D01*
X221140Y752080D02*
Y1798080D01*
Y752080D02*
X495140D01*
Y1656080D01*
X1094886Y1261200D02*
X1324886D01*
X1094886Y1571200D02*
X1324886D01*
Y1261200D02*
Y1571200D01*
X1094886Y1261200D02*
Y1571200D01*
X1674210Y559696D02*
Y579696D01*
X1559210Y559696D02*
Y579696D01*
X682820Y1571200D02*
X702820D01*
X682820Y1456200D02*
X702820D01*
X1301698Y927161D02*
Y987161D01*
X1591698D01*
Y927161D02*
Y987161D01*
X1301698Y927161D02*
X1591698D01*
X1286698Y772162D02*
Y892161D01*
X1199886Y1762700D02*
X1219886D01*
X1199886Y1647700D02*
X1219886D01*
X682820Y1243650D02*
X702820D01*
X682820Y1358650D02*
X702820D01*
D28*
X625384Y2318811D02*
X612888Y2331307D01*
X587896D01*
X575400Y2318811D01*
Y2306315D01*
X587896Y2293819D01*
X612888D01*
X625384Y2281323D01*
Y2268827D01*
X612888Y2256331D01*
X587896D01*
X575400Y2268827D01*
X650376Y2331307D02*
X700360D01*
X675368D01*
Y2256331D01*
X725352D02*
Y2331307D01*
X762840D01*
X775336Y2318811D01*
Y2293819D01*
X762840Y2281323D01*
X725352D01*
X750344D02*
X775336Y2256331D01*
X800328D02*
Y2306315D01*
X825320Y2331307D01*
X850312Y2306315D01*
Y2256331D01*
Y2293819D01*
X800328D01*
X875304Y2331307D02*
X900296D01*
X887800D01*
Y2256331D01*
X875304D01*
X900296D01*
X937784D02*
Y2331307D01*
X987768Y2256331D01*
Y2331307D01*
X1087736Y2256331D02*
Y2306315D01*
X1112728Y2331307D01*
X1137720Y2306315D01*
Y2256331D01*
Y2293819D01*
X1087736D01*
X1162712Y2256331D02*
Y2331307D01*
X1187704Y2306315D01*
X1212696Y2331307D01*
Y2256331D01*
X1237688D02*
Y2331307D01*
X1275176D01*
X1287672Y2318811D01*
Y2293819D01*
X1275176Y2281323D01*
X1237688D01*
X1312664Y2331307D02*
Y2256331D01*
X1362648D01*
X1387640Y2331307D02*
X1412632D01*
X1400136D01*
Y2256331D01*
X1387640D01*
X1412632D01*
X1500103Y2331307D02*
X1450120D01*
Y2293819D01*
X1475112D01*
X1450120D01*
Y2256331D01*
X1525096Y2331307D02*
X1550088D01*
X1537592D01*
Y2256331D01*
X1525096D01*
X1550088D01*
X1637559Y2331307D02*
X1587575D01*
Y2256331D01*
X1637559D01*
X1587575Y2293819D02*
X1612568D01*
X1662551Y2256331D02*
Y2331307D01*
X1700039D01*
X1712535Y2318811D01*
Y2293819D01*
X1700039Y2281323D01*
X1662551D01*
X1687543D02*
X1712535Y2256331D01*
X1812503Y2331307D02*
Y2281323D01*
X1837495Y2256331D01*
X1862487Y2281323D01*
Y2331307D01*
X1887479Y2256331D02*
X1912471D01*
X1899975D01*
Y2331307D01*
X1887479Y2318811D01*
X575400Y2105400D02*
Y2180376D01*
X612888D01*
X625384Y2167880D01*
Y2142888D01*
X612888Y2130392D01*
X575400D01*
X650376Y2180376D02*
X700360D01*
Y2167880D01*
X650376Y2117896D01*
Y2105400D01*
X700360D01*
X800328D02*
Y2155384D01*
X825320Y2180376D01*
X850312Y2155384D01*
Y2105400D01*
Y2142888D01*
X800328D01*
X875304Y2105400D02*
Y2180376D01*
X925288Y2105400D01*
Y2180376D01*
X950280D02*
Y2105400D01*
X987768D01*
X1000264Y2117896D01*
Y2167880D01*
X987768Y2180376D01*
X950280D01*
X1100232D02*
Y2105400D01*
X1137720D01*
X1150216Y2117896D01*
Y2167880D01*
X1137720Y2180376D01*
X1100232D01*
X1175208Y2105400D02*
Y2180376D01*
X1200200Y2155384D01*
X1225192Y2180376D01*
Y2105400D01*
X406400Y88900D02*
Y168874D01*
X446387D01*
X459716Y155545D01*
Y128887D01*
X446387Y115558D01*
X406400D01*
X499703Y168874D02*
X526361D01*
X539690Y155545D01*
Y115558D01*
X499703D01*
X486374Y128887D01*
X499703Y142216D01*
X539690D01*
X566348Y168874D02*
Y115558D01*
Y142216D01*
X579678Y155545D01*
X593006Y168874D01*
X606336D01*
X646323D02*
Y115558D01*
Y142216D01*
X659652Y155545D01*
X672981Y168874D01*
X686310D01*
X726297D02*
Y128887D01*
X739626Y115558D01*
X779613D01*
Y102229D01*
X766284Y88900D01*
X752955D01*
X779613Y115558D02*
Y168874D01*
X806271Y115558D02*
Y128887D01*
X819600D01*
Y115558D01*
X806271D01*
X872916Y168874D02*
X926232D01*
X872916Y115558D01*
X926232D01*
X952890Y195532D02*
Y115558D01*
Y155545D01*
X966220Y168874D01*
X992878D01*
X1006207Y155545D01*
Y115558D01*
X1032865Y168874D02*
Y128887D01*
X1046194Y115558D01*
X1086181D01*
Y168874D01*
X1126168Y115558D02*
X1152826D01*
X1166155Y128887D01*
Y155545D01*
X1152826Y168874D01*
X1126168D01*
X1112839Y155545D01*
Y128887D01*
X1126168Y115558D01*
X1232800Y142216D02*
Y155545D01*
X1219471D01*
Y142216D01*
X1232800D01*
X1246129Y155545D01*
Y182203D01*
X1232800Y195532D01*
X1206142D01*
X1192813Y182203D01*
Y128887D01*
X1206142Y115558D01*
X1246129D01*
X1272787Y195532D02*
Y115558D01*
Y155545D01*
X1286116Y168874D01*
X1312774D01*
X1326103Y155545D01*
Y115558D01*
X1366090D02*
X1392749D01*
X1406077Y128887D01*
Y155545D01*
X1392749Y168874D01*
X1366090D01*
X1352761Y155545D01*
Y128887D01*
X1366090Y115558D01*
X1446065Y182203D02*
Y168874D01*
X1432736D01*
X1459394D01*
X1446065D01*
Y128887D01*
X1459394Y115558D01*
X1499381D02*
Y168874D01*
X1512710D01*
X1526039Y155545D01*
Y115558D01*
Y155545D01*
X1539368Y168874D01*
X1552697Y155545D01*
Y115558D01*
X1592684Y168874D02*
X1619342D01*
X1632671Y155545D01*
Y115558D01*
X1592684D01*
X1579355Y128887D01*
X1592684Y142216D01*
X1632671D01*
X1659329Y115558D02*
X1685987D01*
X1672658D01*
Y168874D01*
X1659329D01*
X1725974Y115558D02*
X1752633D01*
X1739304D01*
Y195532D01*
X1725974D01*
X1792620Y115558D02*
Y128887D01*
X1805949D01*
Y115558D01*
X1792620D01*
X1912581Y168874D02*
X1872594D01*
X1859265Y155545D01*
Y128887D01*
X1872594Y115558D01*
X1912581D01*
X1952568D02*
X1979226D01*
X1992555Y128887D01*
Y155545D01*
X1979226Y168874D01*
X1952568D01*
X1939239Y155545D01*
Y128887D01*
X1952568Y115558D01*
X2019213D02*
Y168874D01*
X2032543D01*
X2045871Y155545D01*
Y115558D01*
Y155545D01*
X2059201Y168874D01*
X2072530Y155545D01*
Y115558D01*
X1770894Y610416D02*
Y710384D01*
X1820877D01*
X1837539Y693723D01*
Y660400D01*
X1820877Y643739D01*
X1770894D01*
X1804216D02*
X1837539Y610416D01*
X1920845D02*
Y710384D01*
X1870861Y660400D01*
X1937506D01*
X2197077Y1818696D02*
X2298644Y1920263D01*
X2197077D02*
X2298644Y1818696D01*
X2197077Y1869479D02*
X2298644D01*
X2247860Y1920263D02*
Y1818696D01*
X2287724Y1665220D02*
X2275228Y1677716D01*
X2250236D01*
X2237740Y1665220D01*
Y1615236D01*
X2250236Y1602740D01*
X2275228D01*
X2287724Y1615236D01*
Y1640228D01*
X2262732D01*
X2312716Y1602740D02*
Y1677716D01*
X2362700Y1602740D01*
Y1677716D01*
X2387692D02*
Y1602740D01*
X2425180D01*
X2437676Y1615236D01*
Y1665220D01*
X2425180Y1677716D01*
X2387692D01*
X2277768Y1428796D02*
X2252776D01*
X2240280Y1416300D01*
Y1366316D01*
X2252776Y1353820D01*
X2277768D01*
X2290264Y1366316D01*
Y1416300D01*
X2277768Y1428796D01*
X2315256Y1403804D02*
Y1366316D01*
X2327752Y1353820D01*
X2365240D01*
Y1403804D01*
X2402728Y1416300D02*
Y1403804D01*
X2390232D01*
X2415224D01*
X2402728D01*
Y1366316D01*
X2415224Y1353820D01*
X2292804Y1141776D02*
X2242820D01*
Y1104288D01*
X2267812Y1116784D01*
X2280308D01*
X2292804Y1104288D01*
Y1079296D01*
X2280308Y1066800D01*
X2255316D01*
X2242820Y1079296D01*
X2317796Y1141776D02*
Y1091792D01*
X2342788Y1066800D01*
X2367780Y1091792D01*
Y1141776D01*
X627363Y1775477D02*
X525796Y1877043D01*
X627363D02*
X525796Y1775477D01*
X627363Y1826260D02*
X525796D01*
X576580Y1877043D02*
Y1775477D01*
X2376019Y703883D02*
X2359357Y720544D01*
X2326035D01*
X2309374Y703883D01*
Y637237D01*
X2326035Y620576D01*
X2359357D01*
X2376019Y637237D01*
X2459325Y620576D02*
Y720544D01*
X2409341Y670560D01*
X2475986D01*
X590324Y730312D02*
X577828Y742808D01*
X552836D01*
X540340Y730312D01*
Y680328D01*
X552836Y667832D01*
X577828D01*
X590324Y680328D01*
X615316Y730312D02*
X627812Y742808D01*
X652804D01*
X665300Y730312D01*
Y717816D01*
X652804Y705320D01*
X640308D01*
X652804D01*
X665300Y692824D01*
Y680328D01*
X652804Y667832D01*
X627812D01*
X615316Y680328D01*
X710820Y1101852D02*
Y1176828D01*
X748307D01*
X760803Y1164332D01*
Y1139340D01*
X748307Y1126844D01*
X710820D01*
X735812D02*
X760803Y1101852D01*
X785795Y1164332D02*
X798292Y1176828D01*
X823283D01*
X835779Y1164332D01*
Y1151836D01*
X823283Y1139340D01*
X810788D01*
X823283D01*
X835779Y1126844D01*
Y1114348D01*
X823283Y1101852D01*
X798292D01*
X785795Y1114348D01*
X723600Y1638272D02*
Y1713248D01*
X761088D01*
X773584Y1700752D01*
Y1675760D01*
X761088Y1663264D01*
X723600D01*
X748592D02*
X773584Y1638272D01*
X848560D02*
X798576D01*
X848560Y1688256D01*
Y1700752D01*
X836064Y1713248D01*
X811072D01*
X798576Y1700752D01*
X1300994Y419916D02*
Y519884D01*
X1350977D01*
X1367639Y503223D01*
Y469900D01*
X1350977Y453239D01*
X1300994D01*
X1334316D02*
X1367639Y419916D01*
X1467606Y519884D02*
X1400961D01*
Y469900D01*
X1434284Y486561D01*
X1450945D01*
X1467606Y469900D01*
Y436577D01*
X1450945Y419916D01*
X1417623D01*
X1400961Y436577D01*
X1021175Y1986184D02*
Y1902877D01*
X1037836Y1886216D01*
X1071159D01*
X1087820Y1902877D01*
Y1986184D01*
X1121143Y1886216D02*
X1154465D01*
X1137804D01*
Y1986184D01*
X1121143Y1969522D01*
X1311175Y1876216D02*
Y1976184D01*
X1361159D01*
X1377820Y1959522D01*
Y1926200D01*
X1361159Y1909538D01*
X1311175D01*
X1344497D02*
X1377820Y1876216D01*
X1411143D02*
X1444465D01*
X1427804D01*
Y1976184D01*
X1411143Y1959522D01*
X1295456Y700428D02*
X1320448D01*
X1307952D01*
Y625452D01*
X1295456D01*
X1320448D01*
X1407920Y687932D02*
X1395424Y700428D01*
X1370432D01*
X1357936Y687932D01*
Y637948D01*
X1370432Y625452D01*
X1395424D01*
X1407920Y637948D01*
X1432912Y625452D02*
X1457904D01*
X1445408D01*
Y700428D01*
X1432912Y687932D01*
X1157390Y919072D02*
X1144894Y931568D01*
X1119902D01*
X1107406Y919072D01*
Y869088D01*
X1119902Y856592D01*
X1144894D01*
X1157390Y869088D01*
X1232366Y856592D02*
X1182382D01*
X1232366Y906576D01*
Y919072D01*
X1219870Y931568D01*
X1194878D01*
X1182382Y919072D01*
X1624296Y2028493D02*
X1607635Y2045154D01*
X1574312D01*
X1557651Y2028493D01*
Y1961847D01*
X1574312Y1945186D01*
X1607635D01*
X1624296Y1961847D01*
X1657618Y1945186D02*
X1690941D01*
X1674280D01*
Y2045154D01*
X1657618Y2028493D01*
D29*
X114984Y939976D02*
X65000D01*
Y902488D01*
X89992Y914984D01*
X102487D01*
X114984Y902488D01*
Y877496D01*
X102487Y865000D01*
X77496D01*
X65000Y877496D01*
X139976Y939976D02*
Y889992D01*
X164968Y865000D01*
X189959Y889992D01*
Y939976D01*
X65000Y1189976D02*
Y1115000D01*
X102487D01*
X114984Y1127496D01*
Y1177480D01*
X102487Y1189976D01*
X65000D01*
X139976Y1152488D02*
X189959D01*
X164968Y1177480D02*
Y1127496D01*
X114984Y1427480D02*
X102487Y1439976D01*
X77496D01*
X65000Y1427480D01*
Y1377496D01*
X77496Y1365000D01*
X102487D01*
X114984Y1377496D01*
Y1402488D01*
X89992D01*
X65000Y1689976D02*
Y1615000D01*
X102487D01*
X114984Y1627496D01*
Y1677480D01*
X102487Y1689976D01*
X65000D01*
X139976Y1652488D02*
X189959D01*
%TF.MD5,bb7424fce2d24f42387438ad901367fc*%
M02*
