%TF.GenerationSoftware,Altium Limited,Altium Designer,25.7.1 (20)*%
G04 Layer_Color=8388736*
%FSLAX45Y45*%
%MOMM*%
%TF.SameCoordinates,8EC0096B-1770-4E53-A1A5-517F8E17CF1D*%
%TF.FilePolarity,Negative*%
%TF.FileFunction,Soldermask,Top*%
%TF.Part,Single*%
G01*
G75*
%TA.AperFunction,SMDPad,CuDef*%
%ADD30R,1.50800X1.85800*%
%ADD31R,1.90800X1.75800*%
%ADD32R,1.75800X1.90800*%
%ADD33R,1.10800X1.70800*%
G04:AMPARAMS|DCode=34|XSize=0.958mm|YSize=1.858mm|CornerRadius=0.3035mm|HoleSize=0mm|Usage=FLASHONLY|Rotation=90.000|XOffset=0mm|YOffset=0mm|HoleType=Round|Shape=RoundedRectangle|*
%AMROUNDEDRECTD34*
21,1,0.95800,1.25100,0,0,90.0*
21,1,0.35100,1.85800,0,0,90.0*
1,1,0.60700,0.62550,0.17550*
1,1,0.60700,0.62550,-0.17550*
1,1,0.60700,-0.62550,-0.17550*
1,1,0.60700,-0.62550,0.17550*
%
%ADD34ROUNDEDRECTD34*%
%ADD35R,1.85800X1.50800*%
%TA.AperFunction,ComponentPad*%
%ADD36C,2.10800*%
%ADD37C,2.23300*%
G04:AMPARAMS|DCode=38|XSize=2.108mm|YSize=2.108mm|CornerRadius=0.654mm|HoleSize=0mm|Usage=FLASHONLY|Rotation=270.000|XOffset=0mm|YOffset=0mm|HoleType=Round|Shape=RoundedRectangle|*
%AMROUNDEDRECTD38*
21,1,2.10800,0.80000,0,0,270.0*
21,1,0.80000,2.10800,0,0,270.0*
1,1,1.30800,-0.40000,-0.40000*
1,1,1.30800,-0.40000,0.40000*
1,1,1.30800,0.40000,0.40000*
1,1,1.30800,0.40000,-0.40000*
%
%ADD38ROUNDEDRECTD38*%
%ADD39R,2.23300X2.23300*%
%TA.AperFunction,WasherPad*%
%ADD40C,3.70800*%
%TA.AperFunction,ViaPad*%
%ADD41C,1.20800*%
D30*
X1688000Y838954D02*
D03*
X1868000D02*
D03*
X1299886Y1705200D02*
D03*
X1119886D02*
D03*
X782820Y1513700D02*
D03*
Y1301150D02*
D03*
X602820D02*
D03*
Y1513700D02*
D03*
D31*
X2082800Y850800D02*
D03*
X1649319Y1513700D02*
D03*
Y1678700D02*
D03*
X2082800Y685800D02*
D03*
D32*
X621080Y881380D02*
D03*
X1173480Y1069340D02*
D03*
X1008480D02*
D03*
X786080Y881380D02*
D03*
D33*
X1351698Y1082161D02*
D03*
X1541698Y832161D02*
D03*
X1446698Y1082161D02*
D03*
Y832161D02*
D03*
X1541698Y1082161D02*
D03*
X1351698Y832161D02*
D03*
D34*
X1432386Y1448700D02*
D03*
X987386Y1318700D02*
D03*
X1432386Y1383700D02*
D03*
Y1513700D02*
D03*
X987386D02*
D03*
Y1383700D02*
D03*
X1432386Y1318700D02*
D03*
X987386Y1448700D02*
D03*
D35*
X1616710Y659696D02*
D03*
Y479696D02*
D03*
D36*
X2032000Y1143000D02*
D03*
Y1397000D02*
D03*
D37*
X358140Y894080D02*
D03*
Y1402080D02*
D03*
Y1148080D02*
D03*
D38*
X2032000Y1651000D02*
D03*
D39*
X358140Y1656080D02*
D03*
D40*
X2129790Y330180D02*
D03*
X355600D02*
D03*
X2132330Y2184400D02*
D03*
X355600D02*
D03*
D41*
X1643380Y1803400D02*
D03*
X2214880Y683260D02*
D03*
X1619250Y370136D02*
D03*
X1447800Y1201420D02*
D03*
X980440Y1231900D02*
D03*
X995680Y909320D02*
D03*
X1445260Y723900D02*
D03*
X772160Y736600D02*
D03*
%TF.MD5,0602b1e83d67437a7ae8e512407c0bf1*%
M02*
