%TF.GenerationSoftware,KiCad,Pcbnew,9.0.3*%
%TF.CreationDate,2025-08-17T09:54:27-06:00*%
%TF.ProjectId,Hub,4875622e-6b69-4636-9164-5f7063625858,A*%
%TF.SameCoordinates,PX2aa5f80PY908ed60*%
%TF.FileFunction,Soldermask,Bot*%
%TF.FilePolarity,Negative*%
%FSLAX46Y46*%
G04 Gerber Fmt 4.6, Leading zero omitted, Abs format (unit mm)*
G04 Created by KiCad (PCBNEW 9.0.3) date 2025-08-17 09:54:27*
%MOMM*%
%LPD*%
G01*
G04 APERTURE LIST*
G04 Aperture macros list*
%AMRoundRect*
0 Rectangle with rounded corners*
0 $1 Rounding radius*
0 $2 $3 $4 $5 $6 $7 $8 $9 X,Y pos of 4 corners*
0 Add a 4 corners polygon primitive as box body*
4,1,4,$2,$3,$4,$5,$6,$7,$8,$9,$2,$3,0*
0 Add four circle primitives for the rounded corners*
1,1,$1+$1,$2,$3*
1,1,$1+$1,$4,$5*
1,1,$1+$1,$6,$7*
1,1,$1+$1,$8,$9*
0 Add four rect primitives between the rounded corners*
20,1,$1+$1,$2,$3,$4,$5,0*
20,1,$1+$1,$4,$5,$6,$7,0*
20,1,$1+$1,$6,$7,$8,$9,0*
20,1,$1+$1,$8,$9,$2,$3,0*%
G04 Aperture macros list end*
%ADD10RoundRect,0.264706X0.635294X0.635294X-0.635294X0.635294X-0.635294X-0.635294X0.635294X-0.635294X0*%
%ADD11C,1.800000*%
%ADD12RoundRect,0.050000X-0.850000X0.850000X-0.850000X-0.850000X0.850000X-0.850000X0.850000X0.850000X0*%
%ADD13O,1.800000X1.800000*%
%ADD14C,3.300000*%
%ADD15RoundRect,0.264706X-0.635294X-0.635294X0.635294X-0.635294X0.635294X0.635294X-0.635294X0.635294X0*%
%ADD16C,1.728000*%
%ADD17RoundRect,0.102000X-0.762000X-0.762000X0.762000X-0.762000X0.762000X0.762000X-0.762000X0.762000X0*%
%ADD18RoundRect,0.050000X0.850000X-0.850000X0.850000X0.850000X-0.850000X0.850000X-0.850000X-0.850000X0*%
%ADD19RoundRect,0.250000X-0.400000X0.250000X-0.400000X-0.250000X0.400000X-0.250000X0.400000X0.250000X0*%
%ADD20RoundRect,0.271277X-0.503723X0.366223X-0.503723X-0.366223X0.503723X-0.366223X0.503723X0.366223X0*%
%ADD21RoundRect,0.262500X0.325000X0.262500X-0.325000X0.262500X-0.325000X-0.262500X0.325000X-0.262500X0*%
%ADD22RoundRect,0.270833X-0.379167X-0.479167X0.379167X-0.479167X0.379167X0.479167X-0.379167X0.479167X0*%
%ADD23RoundRect,0.271277X0.366223X0.503723X-0.366223X0.503723X-0.366223X-0.503723X0.366223X-0.503723X0*%
%ADD24RoundRect,0.268868X0.681132X-0.443632X0.681132X0.443632X-0.681132X0.443632X-0.681132X-0.443632X0*%
%ADD25RoundRect,0.270833X0.379167X0.479167X-0.379167X0.479167X-0.379167X-0.479167X0.379167X-0.479167X0*%
%ADD26RoundRect,0.187500X-0.472500X-0.187500X0.472500X-0.187500X0.472500X0.187500X-0.472500X0.187500X0*%
%ADD27RoundRect,0.271277X-0.366223X-0.503723X0.366223X-0.503723X0.366223X0.503723X-0.366223X0.503723X0*%
%ADD28RoundRect,0.187500X0.472500X0.187500X-0.472500X0.187500X-0.472500X-0.187500X0.472500X-0.187500X0*%
%ADD29RoundRect,0.050000X0.576550X0.264903X-0.576550X0.264903X-0.576550X-0.264903X0.576550X-0.264903X0*%
%ADD30RoundRect,0.050000X0.776550X0.264903X-0.776550X0.264903X-0.776550X-0.264903X0.776550X-0.264903X0*%
%ADD31RoundRect,0.275000X0.275000X-1.175000X0.275000X1.175000X-0.275000X1.175000X-0.275000X-1.175000X0*%
%ADD32RoundRect,0.050000X0.576550X0.257452X-0.576550X0.257452X-0.576550X-0.257452X0.576550X-0.257452X0*%
%ADD33RoundRect,0.312500X0.437500X0.437500X-0.437500X0.437500X-0.437500X-0.437500X0.437500X-0.437500X0*%
%ADD34RoundRect,0.312500X0.437500X-0.437500X0.437500X0.437500X-0.437500X0.437500X-0.437500X-0.437500X0*%
%ADD35RoundRect,0.270833X0.479167X-0.379167X0.479167X0.379167X-0.479167X0.379167X-0.479167X-0.379167X0*%
%ADD36RoundRect,0.262500X-0.325000X-0.262500X0.325000X-0.262500X0.325000X0.262500X-0.325000X0.262500X0*%
%ADD37RoundRect,0.050000X1.219200X-1.403350X1.219200X1.403350X-1.219200X1.403350X-1.219200X-1.403350X0*%
%ADD38RoundRect,0.270833X-0.479167X0.379167X-0.479167X-0.379167X0.479167X-0.379167X0.479167X0.379167X0*%
%ADD39RoundRect,0.040200X-0.457600X-0.120600X0.457600X-0.120600X0.457600X0.120600X-0.457600X0.120600X0*%
%ADD40RoundRect,0.040200X-0.120600X-0.457600X0.120600X-0.457600X0.120600X0.457600X-0.120600X0.457600X0*%
%ADD41RoundRect,0.076200X-0.770000X-0.850000X0.770000X-0.850000X0.770000X0.850000X-0.770000X0.850000X0*%
G04 APERTURE END LIST*
D10*
%TO.C,J11*%
X93500000Y57273333D03*
D11*
X90960000Y57273333D03*
X93500000Y59813333D03*
X90960000Y59813333D03*
X93500000Y62353333D03*
X90960000Y62353333D03*
%TD*%
D10*
%TO.C,J12*%
X93500000Y37636667D03*
D11*
X90960000Y37636667D03*
X93500000Y40176667D03*
X90960000Y40176667D03*
X93500000Y42716667D03*
X90960000Y42716667D03*
%TD*%
D12*
%TO.C,J4*%
X71560000Y4000000D03*
D13*
X69020000Y4000000D03*
X66480000Y4000000D03*
X63940000Y4000000D03*
X61400000Y4000000D03*
%TD*%
D14*
%TO.C,H3*%
X95000000Y95000000D03*
%TD*%
D15*
%TO.C,J8*%
X6500000Y42726667D03*
D11*
X9040000Y42726667D03*
X6500000Y40186667D03*
X9040000Y40186667D03*
X6500000Y37646667D03*
X9040000Y37646667D03*
%TD*%
D14*
%TO.C,H4*%
X95000000Y5000000D03*
%TD*%
D10*
%TO.C,J10*%
X93500000Y76910000D03*
D11*
X90960000Y76910000D03*
X93500000Y79450000D03*
X90960000Y79450000D03*
X93500000Y81990000D03*
X90960000Y81990000D03*
%TD*%
D15*
%TO.C,J6*%
X6500000Y82000000D03*
D11*
X9040000Y82000000D03*
X6500000Y79460000D03*
X9040000Y79460000D03*
X6500000Y76920000D03*
X9040000Y76920000D03*
%TD*%
D12*
%TO.C,J5*%
X86360000Y4000000D03*
X83820000Y4000000D03*
X81280000Y4000000D03*
X78740000Y4000000D03*
X76200000Y4000000D03*
%TD*%
D14*
%TO.C,H1*%
X5000000Y5000000D03*
%TD*%
D12*
%TO.C,J3*%
X46150000Y4000000D03*
D13*
X43610000Y4000000D03*
X41070000Y4000000D03*
X38530000Y4000000D03*
%TD*%
D14*
%TO.C,H2*%
X5000000Y95000000D03*
%TD*%
%TO.C,U1*%
X25840000Y63420000D03*
X58860000Y11350000D03*
X74100000Y62150000D03*
D16*
X18220000Y59610000D03*
X20760000Y59610000D03*
X18220000Y57070000D03*
X20760000Y57070000D03*
X18220000Y54530000D03*
X20760000Y54530000D03*
X18220000Y51990000D03*
D17*
X20760000Y51990000D03*
D16*
X18220000Y49450000D03*
X20760000Y49450000D03*
X18220000Y46910000D03*
X20760000Y46910000D03*
X18220000Y44370000D03*
X20760000Y44370000D03*
X18220000Y41830000D03*
X20760000Y41830000D03*
X18220000Y39290000D03*
X20760000Y39290000D03*
D17*
X18220000Y36750000D03*
X20760000Y36750000D03*
D16*
X18220000Y34210000D03*
D17*
X20760000Y34210000D03*
D16*
X18220000Y31670000D03*
X20760000Y31670000D03*
X18220000Y29130000D03*
X20760000Y29130000D03*
X18220000Y26590000D03*
X20760000Y26590000D03*
X18220000Y24050000D03*
X20760000Y24050000D03*
X18220000Y21510000D03*
X20760000Y21510000D03*
X18220000Y18970000D03*
X20760000Y18970000D03*
X18220000Y16430000D03*
X20760000Y16430000D03*
X18220000Y13890000D03*
X20760000Y13890000D03*
X79180000Y59610000D03*
X81720000Y59610000D03*
X79180000Y57070000D03*
X81720000Y57070000D03*
X79180000Y54530000D03*
X81720000Y54530000D03*
X79180000Y51990000D03*
X81720000Y51990000D03*
D17*
X79180000Y49450000D03*
D16*
X81720000Y49450000D03*
X79180000Y46910000D03*
X81720000Y46910000D03*
X79180000Y44370000D03*
X81720000Y44370000D03*
X79180000Y41830000D03*
X81720000Y41830000D03*
X79180000Y39290000D03*
X81720000Y39290000D03*
X79180000Y36750000D03*
D17*
X81720000Y36750000D03*
D16*
X79180000Y34210000D03*
X81720000Y34210000D03*
X79180000Y31670000D03*
X81720000Y31670000D03*
X79180000Y29130000D03*
X81720000Y29130000D03*
X79180000Y26590000D03*
X81720000Y26590000D03*
X79180000Y24050000D03*
X81720000Y24050000D03*
X79180000Y21510000D03*
D17*
X81720000Y21510000D03*
D16*
X79180000Y18970000D03*
X81720000Y18970000D03*
X79180000Y16430000D03*
X81720000Y16430000D03*
X79180000Y13890000D03*
X81720000Y13890000D03*
X81720000Y87550000D03*
X81720000Y85010000D03*
X18220000Y87550000D03*
X18220000Y85010000D03*
%TD*%
D10*
%TO.C,J13*%
X93500000Y18000000D03*
D11*
X90960000Y18000000D03*
X93500000Y20540000D03*
X90960000Y20540000D03*
X93500000Y23080000D03*
X90960000Y23080000D03*
%TD*%
%TO.C,U4*%
X33460000Y96000000D03*
D18*
X36000000Y96000000D03*
D13*
X38540000Y96000000D03*
X41080000Y96000000D03*
X43620000Y96000000D03*
X46160000Y96000000D03*
X48700000Y96000000D03*
X51240000Y96000000D03*
X53780000Y96000000D03*
D11*
X33460000Y121400000D03*
D13*
X36000000Y121400000D03*
X38540000Y121400000D03*
X41080000Y121400000D03*
X43620000Y121400000D03*
X52560800Y117945600D03*
%TD*%
D15*
%TO.C,J7*%
X6500000Y62363333D03*
D11*
X9040000Y62363333D03*
X6500000Y59823333D03*
X9040000Y59823333D03*
X6500000Y57283333D03*
X9040000Y57283333D03*
%TD*%
D18*
%TO.C,J20*%
X15680000Y4000000D03*
X18220000Y4000000D03*
D13*
X20760000Y4000000D03*
X23300000Y4000000D03*
%TD*%
D15*
%TO.C,J9*%
X6500000Y23090000D03*
D11*
X9040000Y23090000D03*
X6500000Y20550000D03*
X9040000Y20550000D03*
X6500000Y18010000D03*
X9040000Y18010000D03*
%TD*%
D19*
%TO.C,D14*%
X86150000Y38016667D03*
X86150000Y34716667D03*
%TD*%
%TO.C,D6*%
X13850000Y38026667D03*
X13850000Y34726667D03*
%TD*%
%TO.C,D15*%
X86150000Y26000000D03*
X86150000Y22700000D03*
%TD*%
D20*
%TO.C,C4*%
X53541467Y24145398D03*
X53541467Y22070398D03*
%TD*%
D19*
%TO.C,D9*%
X86150000Y84910000D03*
X86150000Y81610000D03*
%TD*%
%TO.C,D8*%
X13850000Y18390000D03*
X13850000Y15090000D03*
%TD*%
D21*
%TO.C,C16*%
X76867500Y44370000D03*
X75142500Y44370000D03*
%TD*%
D22*
%TO.C,R20*%
X69925000Y54530000D03*
X71925000Y54530000D03*
%TD*%
D23*
%TO.C,C14*%
X60405500Y50054000D03*
X58330500Y50054000D03*
%TD*%
D24*
%TO.C,C1*%
X22012500Y78367500D03*
X22012500Y81492500D03*
%TD*%
D19*
%TO.C,D12*%
X86150000Y57653333D03*
X86150000Y54353333D03*
%TD*%
D25*
%TO.C,R13*%
X13850000Y40186667D03*
X11850000Y40186667D03*
%TD*%
D19*
%TO.C,D13*%
X86150000Y45636667D03*
X86150000Y42336667D03*
%TD*%
D22*
%TO.C,R22*%
X69925000Y44370000D03*
X71925000Y44370000D03*
%TD*%
%TO.C,R5*%
X33490000Y11350000D03*
X35490000Y11350000D03*
%TD*%
D26*
%TO.C,Q1*%
X33450000Y7098000D03*
X33450000Y8998000D03*
X36070000Y8048000D03*
%TD*%
D25*
%TO.C,R9*%
X25570000Y13890000D03*
X23570000Y13890000D03*
%TD*%
%TO.C,R18*%
X30015000Y18970000D03*
X28015000Y18970000D03*
%TD*%
D19*
%TO.C,D7*%
X13850000Y26010000D03*
X13850000Y22710000D03*
%TD*%
D25*
%TO.C,R15*%
X13850000Y20550000D03*
X11850000Y20550000D03*
%TD*%
%TO.C,R14*%
X30015000Y24050000D03*
X28015000Y24050000D03*
%TD*%
%TO.C,R12*%
X30015000Y26590000D03*
X28015000Y26590000D03*
%TD*%
D22*
%TO.C,R6*%
X23570000Y8810000D03*
X25570000Y8810000D03*
%TD*%
D20*
%TO.C,C10*%
X61400000Y47154500D03*
X61400000Y45079500D03*
%TD*%
D25*
%TO.C,R7*%
X35440000Y18970000D03*
X33440000Y18970000D03*
%TD*%
D22*
%TO.C,R24*%
X69925000Y31670000D03*
X71925000Y31670000D03*
%TD*%
D27*
%TO.C,C6*%
X23532500Y11350000D03*
X25607500Y11350000D03*
%TD*%
D28*
%TO.C,Q3*%
X27092500Y80880000D03*
X27092500Y78980000D03*
X24472500Y79930000D03*
%TD*%
D19*
%TO.C,D11*%
X86150000Y65273333D03*
X86150000Y61973333D03*
%TD*%
D29*
%TO.C,U2*%
X51038500Y19517501D03*
D30*
X50838500Y18567500D03*
D31*
X49661950Y18567500D03*
D32*
X51038500Y17610048D03*
D29*
X48285400Y17617499D03*
X48285400Y18567500D03*
X48285400Y19517501D03*
%TD*%
D19*
%TO.C,D10*%
X86150000Y77290000D03*
X86150000Y73990000D03*
%TD*%
%TO.C,D3*%
X13850000Y65283333D03*
X13850000Y61983333D03*
%TD*%
D24*
%TO.C,C5*%
X23935000Y31377500D03*
X23935000Y34502500D03*
%TD*%
D23*
%TO.C,C7*%
X27110000Y83740000D03*
X25035000Y83740000D03*
%TD*%
D20*
%TO.C,C2*%
X46116467Y17065000D03*
X46116467Y14990000D03*
%TD*%
D21*
%TO.C,C17*%
X76867500Y31670000D03*
X75142500Y31670000D03*
%TD*%
D33*
%TO.C,R1*%
X43610000Y10604000D03*
D34*
X43610000Y12804000D03*
D33*
X41410000Y10604000D03*
%TD*%
D22*
%TO.C,R23*%
X86150000Y20540000D03*
X88150000Y20540000D03*
%TD*%
D25*
%TO.C,R2*%
X13850000Y79460000D03*
X11850000Y79460000D03*
%TD*%
D35*
%TO.C,R3*%
X56828000Y15027500D03*
X56828000Y17027500D03*
%TD*%
D21*
%TO.C,C15*%
X76867500Y54530000D03*
X75142500Y54530000D03*
%TD*%
D26*
%TO.C,Q2*%
X33450000Y14530000D03*
X33450000Y16430000D03*
X36070000Y15480000D03*
%TD*%
D19*
%TO.C,D5*%
X13850000Y45646667D03*
X13850000Y42346667D03*
%TD*%
D36*
%TO.C,C9*%
X23072500Y24050000D03*
X24797500Y24050000D03*
%TD*%
D37*
%TO.C,L1*%
X44270467Y20655948D03*
X44270467Y24961248D03*
%TD*%
D36*
%TO.C,C13*%
X23072500Y18970000D03*
X24797500Y18970000D03*
%TD*%
D22*
%TO.C,R26*%
X69925000Y18970000D03*
X71925000Y18970000D03*
%TD*%
D19*
%TO.C,D1*%
X13850000Y84920000D03*
X13850000Y81620000D03*
%TD*%
D38*
%TO.C,R4*%
X53541467Y17027500D03*
X53541467Y15027500D03*
%TD*%
D25*
%TO.C,R16*%
X30015000Y21510000D03*
X28015000Y21510000D03*
%TD*%
%TO.C,R11*%
X13850000Y59823333D03*
X11850000Y59823333D03*
%TD*%
D22*
%TO.C,R19*%
X86150000Y59813333D03*
X88150000Y59813333D03*
%TD*%
D36*
%TO.C,C8*%
X23072500Y26590000D03*
X24797500Y26590000D03*
%TD*%
D24*
%TO.C,C19*%
X38530000Y12274444D03*
X38530000Y15399444D03*
%TD*%
D19*
%TO.C,D4*%
X13850000Y57663333D03*
X13850000Y54363333D03*
%TD*%
D25*
%TO.C,R8*%
X27102500Y76120000D03*
X25102500Y76120000D03*
%TD*%
D21*
%TO.C,C12*%
X56066000Y49772000D03*
X54341000Y49772000D03*
%TD*%
D22*
%TO.C,R21*%
X86150000Y40176667D03*
X88150000Y40176667D03*
%TD*%
D19*
%TO.C,D2*%
X13850000Y77300000D03*
X13850000Y74000000D03*
%TD*%
D22*
%TO.C,R17*%
X86150000Y79450000D03*
X88150000Y79450000D03*
%TD*%
D23*
%TO.C,C3*%
X50371350Y21306800D03*
X48296350Y21306800D03*
%TD*%
D19*
%TO.C,D16*%
X86150000Y18380000D03*
X86150000Y15080000D03*
%TD*%
D21*
%TO.C,C18*%
X76867500Y18970000D03*
X75142500Y18970000D03*
%TD*%
D39*
%TO.C,U3*%
X55748000Y45312000D03*
X55748000Y45712000D03*
X55748000Y46112000D03*
X55748000Y46512000D03*
X55748000Y46912000D03*
X55748000Y47312000D03*
D40*
X56420000Y47984000D03*
X56820000Y47984000D03*
X57220000Y47984000D03*
X57620000Y47984000D03*
X58020000Y47984000D03*
X58420000Y47984000D03*
D39*
X59092000Y47312000D03*
X59092000Y46912000D03*
X59092000Y46512000D03*
X59092000Y46112000D03*
X59092000Y45712000D03*
X59092000Y45312000D03*
D40*
X58420000Y44640000D03*
X58020000Y44640000D03*
X57620000Y44640000D03*
X57220000Y44640000D03*
X56820000Y44640000D03*
X56420000Y44640000D03*
D41*
X57420000Y46312000D03*
%TD*%
D36*
%TO.C,C11*%
X23072500Y21510000D03*
X24797500Y21510000D03*
%TD*%
M02*
