%TF.GenerationSoftware,KiCad,Pcbnew,9.0.3*%
%TF.CreationDate,2025-08-16T16:26:36-06:00*%
%TF.ProjectId,Hub,4875622e-6b69-4636-9164-5f7063625858,A*%
%TF.SameCoordinates,PX2aa5f80PY908ed60*%
%TF.FileFunction,Copper,L4,Bot*%
%TF.FilePolarity,Positive*%
%FSLAX46Y46*%
G04 Gerber Fmt 4.6, Leading zero omitted, Abs format (unit mm)*
G04 Created by KiCad (PCBNEW 9.0.3) date 2025-08-16 16:26:36*
%MOMM*%
%LPD*%
G01*
G04 APERTURE LIST*
G04 Aperture macros list*
%AMRoundRect*
0 Rectangle with rounded corners*
0 $1 Rounding radius*
0 $2 $3 $4 $5 $6 $7 $8 $9 X,Y pos of 4 corners*
0 Add a 4 corners polygon primitive as box body*
4,1,4,$2,$3,$4,$5,$6,$7,$8,$9,$2,$3,0*
0 Add four circle primitives for the rounded corners*
1,1,$1+$1,$2,$3*
1,1,$1+$1,$4,$5*
1,1,$1+$1,$6,$7*
1,1,$1+$1,$8,$9*
0 Add four rect primitives between the rounded corners*
20,1,$1+$1,$2,$3,$4,$5,0*
20,1,$1+$1,$4,$5,$6,$7,0*
20,1,$1+$1,$6,$7,$8,$9,0*
20,1,$1+$1,$8,$9,$2,$3,0*%
G04 Aperture macros list end*
%TA.AperFunction,Conductor*%
%ADD10C,0.200000*%
%TD*%
%TA.AperFunction,Conductor*%
%ADD11C,0.100000*%
%TD*%
%TA.AperFunction,Conductor*%
%ADD12C,0.150000*%
%TD*%
%TA.AperFunction,ComponentPad*%
%ADD13RoundRect,0.250000X0.600000X0.600000X-0.600000X0.600000X-0.600000X-0.600000X0.600000X-0.600000X0*%
%TD*%
%TA.AperFunction,ComponentPad*%
%ADD14C,1.700000*%
%TD*%
%TA.AperFunction,ComponentPad*%
%ADD15R,1.700000X1.700000*%
%TD*%
%TA.AperFunction,ComponentPad*%
%ADD16O,1.700000X1.700000*%
%TD*%
%TA.AperFunction,ComponentPad*%
%ADD17RoundRect,0.250000X-0.600000X-0.600000X0.600000X-0.600000X0.600000X0.600000X-0.600000X0.600000X0*%
%TD*%
%TA.AperFunction,ComponentPad*%
%ADD18C,1.524000*%
%TD*%
%TA.AperFunction,ComponentPad*%
%ADD19R,1.524000X1.524000*%
%TD*%
%TA.AperFunction,SMDPad,CuDef*%
%ADD20RoundRect,0.225000X-0.375000X0.225000X-0.375000X-0.225000X0.375000X-0.225000X0.375000X0.225000X0*%
%TD*%
%TA.AperFunction,SMDPad,CuDef*%
%ADD21RoundRect,0.250000X-0.475000X0.337500X-0.475000X-0.337500X0.475000X-0.337500X0.475000X0.337500X0*%
%TD*%
%TA.AperFunction,SMDPad,CuDef*%
%ADD22RoundRect,0.237500X0.300000X0.237500X-0.300000X0.237500X-0.300000X-0.237500X0.300000X-0.237500X0*%
%TD*%
%TA.AperFunction,SMDPad,CuDef*%
%ADD23RoundRect,0.250000X-0.350000X-0.450000X0.350000X-0.450000X0.350000X0.450000X-0.350000X0.450000X0*%
%TD*%
%TA.AperFunction,SMDPad,CuDef*%
%ADD24RoundRect,0.250000X0.337500X0.475000X-0.337500X0.475000X-0.337500X-0.475000X0.337500X-0.475000X0*%
%TD*%
%TA.AperFunction,SMDPad,CuDef*%
%ADD25RoundRect,0.250000X0.650000X-0.412500X0.650000X0.412500X-0.650000X0.412500X-0.650000X-0.412500X0*%
%TD*%
%TA.AperFunction,SMDPad,CuDef*%
%ADD26RoundRect,0.250000X0.350000X0.450000X-0.350000X0.450000X-0.350000X-0.450000X0.350000X-0.450000X0*%
%TD*%
%TA.AperFunction,SMDPad,CuDef*%
%ADD27RoundRect,0.162500X-0.447500X-0.162500X0.447500X-0.162500X0.447500X0.162500X-0.447500X0.162500X0*%
%TD*%
%TA.AperFunction,SMDPad,CuDef*%
%ADD28RoundRect,0.250000X-0.337500X-0.475000X0.337500X-0.475000X0.337500X0.475000X-0.337500X0.475000X0*%
%TD*%
%TA.AperFunction,SMDPad,CuDef*%
%ADD29RoundRect,0.162500X0.447500X0.162500X-0.447500X0.162500X-0.447500X-0.162500X0.447500X-0.162500X0*%
%TD*%
%TA.AperFunction,SMDPad,CuDef*%
%ADD30R,1.153100X0.529806*%
%TD*%
%TA.AperFunction,SMDPad,CuDef*%
%ADD31R,1.553100X0.529806*%
%TD*%
%TA.AperFunction,SMDPad,CuDef*%
%ADD32RoundRect,0.250000X0.250000X-1.150000X0.250000X1.150000X-0.250000X1.150000X-0.250000X-1.150000X0*%
%TD*%
%TA.AperFunction,SMDPad,CuDef*%
%ADD33R,1.153100X0.514904*%
%TD*%
%TA.AperFunction,SMDPad,CuDef*%
%ADD34RoundRect,0.291666X0.408334X0.408334X-0.408334X0.408334X-0.408334X-0.408334X0.408334X-0.408334X0*%
%TD*%
%TA.AperFunction,SMDPad,CuDef*%
%ADD35RoundRect,0.291666X0.408334X-0.408334X0.408334X0.408334X-0.408334X0.408334X-0.408334X-0.408334X0*%
%TD*%
%TA.AperFunction,SMDPad,CuDef*%
%ADD36RoundRect,0.250000X0.450000X-0.350000X0.450000X0.350000X-0.450000X0.350000X-0.450000X-0.350000X0*%
%TD*%
%TA.AperFunction,SMDPad,CuDef*%
%ADD37RoundRect,0.237500X-0.300000X-0.237500X0.300000X-0.237500X0.300000X0.237500X-0.300000X0.237500X0*%
%TD*%
%TA.AperFunction,SMDPad,CuDef*%
%ADD38R,2.438400X2.806700*%
%TD*%
%TA.AperFunction,SMDPad,CuDef*%
%ADD39RoundRect,0.250000X-0.450000X0.350000X-0.450000X-0.350000X0.450000X-0.350000X0.450000X0.350000X0*%
%TD*%
%TA.AperFunction,SMDPad,CuDef*%
%ADD40RoundRect,0.027500X-0.419500X-0.082500X0.419500X-0.082500X0.419500X0.082500X-0.419500X0.082500X0*%
%TD*%
%TA.AperFunction,SMDPad,CuDef*%
%ADD41RoundRect,0.027500X-0.082500X-0.419500X0.082500X-0.419500X0.082500X0.419500X-0.082500X0.419500X0*%
%TD*%
%TA.AperFunction,SMDPad,CuDef*%
%ADD42R,1.540000X1.700000*%
%TD*%
%TA.AperFunction,ViaPad*%
%ADD43C,0.800000*%
%TD*%
%TA.AperFunction,ViaPad*%
%ADD44C,0.900000*%
%TD*%
%TA.AperFunction,Conductor*%
%ADD45C,1.000000*%
%TD*%
%TA.AperFunction,Conductor*%
%ADD46C,0.250000*%
%TD*%
%TA.AperFunction,Conductor*%
%ADD47C,0.500000*%
%TD*%
G04 APERTURE END LIST*
%TO.N,/BuckSW*%
D10*
X43620000Y21939350D02*
X48725400Y21939350D01*
X48725400Y19323150D01*
X43620000Y19323150D01*
X43620000Y21939350D01*
%TA.AperFunction,Conductor*%
G36*
X43620000Y21939350D02*
G01*
X48725400Y21939350D01*
X48725400Y19323150D01*
X43620000Y19323150D01*
X43620000Y21939350D01*
G37*
%TD.AperFunction*%
%TO.N,GND*%
X45100467Y15620500D02*
X51196467Y15620500D01*
X51196467Y13001000D01*
X45100467Y13001000D01*
X45100467Y15620500D01*
%TA.AperFunction,Conductor*%
G36*
X45100467Y15620500D02*
G01*
X51196467Y15620500D01*
X51196467Y13001000D01*
X45100467Y13001000D01*
X45100467Y15620500D01*
G37*
%TD.AperFunction*%
X52271467Y21256000D02*
X54938467Y21256000D01*
X54938467Y18081000D01*
X52271467Y18081000D01*
X52271467Y21256000D01*
%TA.AperFunction,Conductor*%
G36*
X52271467Y21256000D02*
G01*
X54938467Y21256000D01*
X54938467Y18081000D01*
X52271467Y18081000D01*
X52271467Y21256000D01*
G37*
%TD.AperFunction*%
D11*
X17204000Y37712000D02*
X24824000Y37712000D01*
X24824000Y35480000D01*
X17204000Y35480000D01*
X17204000Y37712000D01*
%TA.AperFunction,Conductor*%
G36*
X17204000Y37712000D02*
G01*
X24824000Y37712000D01*
X24824000Y35480000D01*
X17204000Y35480000D01*
X17204000Y37712000D01*
G37*
%TD.AperFunction*%
D12*
X19490000Y36750000D02*
X24824000Y36750000D01*
X24824000Y32940000D01*
X19490000Y32940000D01*
X19490000Y36750000D01*
%TA.AperFunction,Conductor*%
G36*
X19490000Y36750000D02*
G01*
X24824000Y36750000D01*
X24824000Y32940000D01*
X19490000Y32940000D01*
X19490000Y36750000D01*
G37*
%TD.AperFunction*%
D10*
X47550967Y16610000D02*
X51240000Y16610000D01*
X51240000Y13001000D01*
X47550967Y13001000D01*
X47550967Y16610000D01*
%TA.AperFunction,Conductor*%
G36*
X47550967Y16610000D02*
G01*
X51240000Y16610000D01*
X51240000Y13001000D01*
X47550967Y13001000D01*
X47550967Y16610000D01*
G37*
%TD.AperFunction*%
%TD*%
D13*
%TO.P,J11,1,Pin_1*%
%TO.N,GND*%
X93500000Y57273333D03*
D14*
%TO.P,J11,2,Pin_2*%
%TO.N,Net-(J11-Pin_2)*%
X90960000Y57273333D03*
%TO.P,J11,3,Pin_3*%
%TO.N,Net-(J11-Pin_3)*%
X93500000Y59813333D03*
%TO.P,J11,4,Pin_4*%
%TO.N,unconnected-(J11-Pin_4-Pad4)*%
X90960000Y59813333D03*
%TO.P,J11,5,Pin_5*%
%TO.N,unconnected-(J11-Pin_5-Pad5)*%
X93500000Y62353333D03*
%TO.P,J11,6,Pin_6*%
%TO.N,unconnected-(J11-Pin_6-Pad6)*%
X90960000Y62353333D03*
%TD*%
D13*
%TO.P,J12,1,Pin_1*%
%TO.N,GND*%
X93500000Y37636667D03*
D14*
%TO.P,J12,2,Pin_2*%
%TO.N,Net-(J12-Pin_2)*%
X90960000Y37636667D03*
%TO.P,J12,3,Pin_3*%
%TO.N,Net-(J12-Pin_3)*%
X93500000Y40176667D03*
%TO.P,J12,4,Pin_4*%
%TO.N,unconnected-(J12-Pin_4-Pad4)*%
X90960000Y40176667D03*
%TO.P,J12,5,Pin_5*%
%TO.N,unconnected-(J12-Pin_5-Pad5)*%
X93500000Y42716667D03*
%TO.P,J12,6,Pin_6*%
%TO.N,unconnected-(J12-Pin_6-Pad6)*%
X90960000Y42716667D03*
%TD*%
D15*
%TO.P,J4,1,Pin_1*%
%TO.N,GND*%
X71560000Y4000000D03*
D16*
%TO.P,J4,2,Pin_2*%
%TO.N,/SPI2_SCK*%
X69020000Y4000000D03*
%TO.P,J4,3,Pin_3*%
%TO.N,/SPI2_MISO*%
X66480000Y4000000D03*
%TO.P,J4,4,Pin_4*%
%TO.N,/SPI2_MOSI*%
X63940000Y4000000D03*
%TO.P,J4,5,Pin_5*%
%TO.N,/GPIO_Extra_SPI_CS*%
X61400000Y4000000D03*
%TD*%
D17*
%TO.P,J8,1,Pin_1*%
%TO.N,GND*%
X6500000Y42726667D03*
D14*
%TO.P,J8,2,Pin_2*%
%TO.N,Net-(J8-Pin_2)*%
X9040000Y42726667D03*
%TO.P,J8,3,Pin_3*%
%TO.N,Net-(J8-Pin_3)*%
X6500000Y40186667D03*
%TO.P,J8,4,Pin_4*%
%TO.N,unconnected-(J8-Pin_4-Pad4)*%
X9040000Y40186667D03*
%TO.P,J8,5,Pin_5*%
%TO.N,unconnected-(J8-Pin_5-Pad5)*%
X6500000Y37646667D03*
%TO.P,J8,6,Pin_6*%
%TO.N,unconnected-(J8-Pin_6-Pad6)*%
X9040000Y37646667D03*
%TD*%
D13*
%TO.P,J10,1,Pin_1*%
%TO.N,GND*%
X93500000Y76910000D03*
D14*
%TO.P,J10,2,Pin_2*%
%TO.N,Net-(J10-Pin_2)*%
X90960000Y76910000D03*
%TO.P,J10,3,Pin_3*%
%TO.N,Net-(J10-Pin_3)*%
X93500000Y79450000D03*
%TO.P,J10,4,Pin_4*%
%TO.N,unconnected-(J10-Pin_4-Pad4)*%
X90960000Y79450000D03*
%TO.P,J10,5,Pin_5*%
%TO.N,unconnected-(J10-Pin_5-Pad5)*%
X93500000Y81990000D03*
%TO.P,J10,6,Pin_6*%
%TO.N,unconnected-(J10-Pin_6-Pad6)*%
X90960000Y81990000D03*
%TD*%
D17*
%TO.P,J6,1,Pin_1*%
%TO.N,GND*%
X6500000Y82000000D03*
D14*
%TO.P,J6,2,Pin_2*%
%TO.N,Net-(J6-Pin_2)*%
X9040000Y82000000D03*
%TO.P,J6,3,Pin_3*%
%TO.N,Net-(J6-Pin_3)*%
X6500000Y79460000D03*
%TO.P,J6,4,Pin_4*%
%TO.N,unconnected-(J6-Pin_4-Pad4)*%
X9040000Y79460000D03*
%TO.P,J6,5,Pin_5*%
%TO.N,unconnected-(J6-Pin_5-Pad5)*%
X6500000Y76920000D03*
%TO.P,J6,6,Pin_6*%
%TO.N,unconnected-(J6-Pin_6-Pad6)*%
X9040000Y76920000D03*
%TD*%
D15*
%TO.P,J5,1,Pin_1*%
%TO.N,GND*%
X86360000Y4000000D03*
%TO.P,J5,2,Pin_2*%
X83820000Y4000000D03*
%TO.P,J5,3,Pin_3*%
X81280000Y4000000D03*
%TO.P,J5,4,Pin_4*%
X78740000Y4000000D03*
%TO.P,J5,5,Pin_5*%
X76200000Y4000000D03*
%TD*%
%TO.P,J3,1,Pin_1*%
%TO.N,GND*%
X46150000Y4000000D03*
D16*
%TO.P,J3,2,Pin_2*%
%TO.N,+VBattery*%
X43610000Y4000000D03*
%TO.P,J3,3,Pin_3*%
X41070000Y4000000D03*
%TO.P,J3,4,Pin_4*%
%TO.N,Net-(J3-Pin_4)*%
X38530000Y4000000D03*
%TD*%
D18*
%TO.P,U1,CN7_1,PC10/SPI3_SCK/USART3_TX/UART4_TX*%
%TO.N,unconnected-(U1A-PC10{slash}SPI3_SCK{slash}USART3_TX{slash}UART4_TX-PadCN7_1)*%
X18220000Y59610000D03*
%TO.P,U1,CN7_2,PC11/SPI3_MISO/USART3_RX/UART4_RX*%
%TO.N,unconnected-(U1A-PC11{slash}SPI3_MISO{slash}USART3_RX{slash}UART4_RX-PadCN7_2)*%
X20760000Y59610000D03*
%TO.P,U1,CN7_3,PC12/SPI3_MOSI/USART3_CK/UART5_TX*%
%TO.N,unconnected-(U1A-PC12{slash}SPI3_MOSI{slash}USART3_CK{slash}UART5_TX-PadCN7_3)*%
X18220000Y57070000D03*
%TO.P,U1,CN7_4,PD2/USART3_RTS_DE/UART5_RX*%
%TO.N,unconnected-(U1A-PD2{slash}USART3_RTS_DE{slash}UART5_RX-PadCN7_4)*%
X20760000Y57070000D03*
%TO.P,U1,CN7_5,VDD*%
%TO.N,+3.3V*%
X18220000Y54530000D03*
%TO.P,U1,CN7_6,E5V*%
%TO.N,unconnected-(U1A-E5V-PadCN7_6)*%
X20760000Y54530000D03*
%TO.P,U1,CN7_7,BOOT0*%
%TO.N,unconnected-(U1A-BOOT0-PadCN7_7)*%
X18220000Y51990000D03*
D19*
%TO.P,U1,CN7_8,GND_CN7_8*%
%TO.N,GND*%
X20760000Y51990000D03*
D18*
%TO.P,U1,CN7_9,NC_CN7_9*%
%TO.N,unconnected-(U1A-NC_CN7_9-PadCN7_9)*%
X18220000Y49450000D03*
%TO.P,U1,CN7_10,NC_CN7_10*%
%TO.N,unconnected-(U1A-NC_CN7_10-PadCN7_10)*%
X20760000Y49450000D03*
%TO.P,U1,CN7_11,NC_CN7_11*%
%TO.N,unconnected-(U1A-NC_CN7_11-PadCN7_11)*%
X18220000Y46910000D03*
%TO.P,U1,CN7_12,IOREF*%
%TO.N,unconnected-(U1A-IOREF-PadCN7_12)*%
X20760000Y46910000D03*
%TO.P,U1,CN7_13,PA13/JTMS-SWDIO*%
%TO.N,unconnected-(U1A-PA13{slash}JTMS-SWDIO-PadCN7_13)*%
X18220000Y44370000D03*
%TO.P,U1,CN7_14,RESET*%
%TO.N,unconnected-(U1A-RESET-PadCN7_14)*%
X20760000Y44370000D03*
%TO.P,U1,CN7_15,PA14/JTCK-SWCLK*%
%TO.N,unconnected-(U1A-PA14{slash}JTCK-SWCLK-PadCN7_15)*%
X18220000Y41830000D03*
%TO.P,U1,CN7_16,+3V3*%
%TO.N,+3.3V*%
X20760000Y41830000D03*
%TO.P,U1,CN7_17,PA15/JTDI/SPI1_NSS/SPI3_NSS/UART4_RTS_DE*%
%TO.N,/~{GPIO_StrainV_Enable_5VTolerant}*%
X18220000Y39290000D03*
%TO.P,U1,CN7_18,+5V*%
%TO.N,+5V*%
X20760000Y39290000D03*
D19*
%TO.P,U1,CN7_19,GND_CN7_19*%
%TO.N,GND*%
X18220000Y36750000D03*
%TO.P,U1,CN7_20,GND_CN7_20*%
X20760000Y36750000D03*
D18*
%TO.P,U1,CN7_21,PB7/USART1_RX/UART4_CTS/TIM17_CH1N*%
%TO.N,unconnected-(U1A-PB7{slash}USART1_RX{slash}UART4_CTS{slash}TIM17_CH1N-PadCN7_21)*%
X18220000Y34210000D03*
D19*
%TO.P,U1,CN7_22,GND_CN7_22*%
%TO.N,GND*%
X20760000Y34210000D03*
D18*
%TO.P,U1,CN7_23,PC13*%
%TO.N,unconnected-(U1A-PC13-PadCN7_23)*%
X18220000Y31670000D03*
%TO.P,U1,CN7_24,VIN*%
%TO.N,+VBattery_or_7V*%
X20760000Y31670000D03*
%TO.P,U1,CN7_25,PC14/OSC32_IN*%
%TO.N,unconnected-(U1A-PC14{slash}OSC32_IN-PadCN7_25)*%
X18220000Y29130000D03*
%TO.P,U1,CN7_26,NC_CN7_26*%
%TO.N,unconnected-(U1A-NC_CN7_26-PadCN7_26)*%
X20760000Y29130000D03*
%TO.P,U1,CN7_27,PC15/OSC32_OUT*%
%TO.N,unconnected-(U1A-PC15{slash}OSC32_OUT-PadCN7_27)*%
X18220000Y26590000D03*
%TO.P,U1,CN7_28,PA0/ADC12_IN5/USART2_CTS/UART4_TX/TIM2_ETR*%
%TO.N,/AIn_StrainV_1*%
X20760000Y26590000D03*
%TO.P,U1,CN7_29,PH0/OSC_IN*%
%TO.N,unconnected-(U1A-PH0{slash}OSC_IN-PadCN7_29)*%
X18220000Y24050000D03*
%TO.P,U1,CN7_30,PA1/ADC12_IN6/USART2_RTS_DE/UART4_RX/TIM15_CH1N*%
%TO.N,/AIn_StrainV_2*%
X20760000Y24050000D03*
%TO.P,U1,CN7_31,PH1/OSC_OUT*%
%TO.N,unconnected-(U1A-PH1{slash}OSC_OUT-PadCN7_31)*%
X18220000Y21510000D03*
%TO.P,U1,CN7_32,PA4/ADC12_IN9/DAC1_OUT1/SPI1_NSS/SPI3_NSS/USART2_CK/LPTIM2_OUT*%
%TO.N,/AIn_StrainV_3*%
X20760000Y21510000D03*
%TO.P,U1,CN7_33,VBAT*%
%TO.N,unconnected-(U1A-VBAT-PadCN7_33)*%
X18220000Y18970000D03*
%TO.P,U1,CN7_34,PB0/ADC12_IN15/USART3_CK*%
%TO.N,/AIn_StrainV_4*%
X20760000Y18970000D03*
%TO.P,U1,CN7_35,PC2/ADC123_IN3/SPI2_MISO*%
%TO.N,unconnected-(U1A-PC2{slash}ADC123_IN3{slash}SPI2_MISO-PadCN7_35)*%
X18220000Y16430000D03*
%TO.P,U1,CN7_36,PC1/ADC123_IN2/LPUART1_TX*%
%TO.N,/GPIO_BatteryV_Enable*%
X20760000Y16430000D03*
%TO.P,U1,CN7_37,PC3/ADC123_IN4/SPI2_MOSI/LPTIM2_ETR*%
%TO.N,unconnected-(U1A-PC3{slash}ADC123_IN4{slash}SPI2_MOSI{slash}LPTIM2_ETR-PadCN7_37)*%
X18220000Y13890000D03*
%TO.P,U1,CN7_38,PC0/ADC123_IN1/LPUART1_RX/LPTIM2_IN1*%
%TO.N,/AIn_BatteryV*%
X20760000Y13890000D03*
%TO.P,U1,CN10_1,PC9/TIM8_BKIN2_COMP1*%
%TO.N,/GPIO_ANT_Reset*%
X79180000Y59610000D03*
%TO.P,U1,CN10_2,PC8*%
%TO.N,/GPInterruptPC8_ANT_DIO0*%
X81720000Y59610000D03*
%TO.P,U1,CN10_3,PB8/CAN1_RX/TIM16_CH1*%
%TO.N,/GPIO_ANT_SPI_CS*%
X79180000Y57070000D03*
%TO.P,U1,CN10_4,PC6*%
%TO.N,/GPIO_ANT_Enable*%
X81720000Y57070000D03*
%TO.P,U1,CN10_5,PB9/SPI2_NSS/CAN1_TX/TIM17_CH1*%
%TO.N,unconnected-(U1B-PB9{slash}SPI2_NSS{slash}CAN1_TX{slash}TIM17_CH1-PadCN10_5)*%
X79180000Y54530000D03*
%TO.P,U1,CN10_6,PC5/ADC12_IN14/USART3_RX*%
%TO.N,/AIn_StrainV_5*%
X81720000Y54530000D03*
%TO.P,U1,CN10_7,AVDD*%
%TO.N,unconnected-(U1B-AVDD-PadCN10_7)*%
X79180000Y51990000D03*
%TO.P,U1,CN10_8,U5V*%
%TO.N,unconnected-(U1B-U5V-PadCN10_8)*%
X81720000Y51990000D03*
D19*
%TO.P,U1,CN10_9,GND_CN10_9*%
%TO.N,GND*%
X79180000Y49450000D03*
D18*
%TO.P,U1,CN10_10,NC_CN10_10*%
%TO.N,unconnected-(U1B-NC_CN10_10-PadCN10_10)*%
X81720000Y49450000D03*
%TO.P,U1,CN10_11,PA5/ADC12_IN10/DAC1_OUT2/SPI1_SCK/LPTIM2_ETR*%
%TO.N,unconnected-(U1B-PA5{slash}ADC12_IN10{slash}DAC1_OUT2{slash}SPI1_SCK{slash}LPTIM2_ETR-PadCN10_11)*%
X79180000Y46910000D03*
%TO.P,U1,CN10_12,PA12/USART1_RTS_DE/CAN1_TX*%
%TO.N,unconnected-(U1B-PA12{slash}USART1_RTS_DE{slash}CAN1_TX-PadCN10_12)*%
X81720000Y46910000D03*
%TO.P,U1,CN10_13,PA6/ADC12_IN11/SPI1_MISO/USART3_CTS/TIM16_CH1*%
%TO.N,/AIn_StrainV_6*%
X79180000Y44370000D03*
%TO.P,U1,CN10_14,PA11/USART1_CTS/CAN1_RX*%
%TO.N,unconnected-(U1B-PA11{slash}USART1_CTS{slash}CAN1_RX-PadCN10_14)*%
X81720000Y44370000D03*
%TO.P,U1,CN10_15,PA7/ADC12_IN12/SPI1_MOSI/TIM17_CH1*%
%TO.N,unconnected-(U1B-PA7{slash}ADC12_IN12{slash}SPI1_MOSI{slash}TIM17_CH1-PadCN10_15)*%
X79180000Y41830000D03*
%TO.P,U1,CN10_16,PB12/SPI2_NSS/USART3_CK/LPUART1_RTS_DE/TIM15_BKIN*%
%TO.N,unconnected-(U1B-PB12{slash}SPI2_NSS{slash}USART3_CK{slash}LPUART1_RTS_DE{slash}TIM15_BKIN-PadCN10_16)*%
X81720000Y41830000D03*
%TO.P,U1,CN10_17,PB6/USART1_TX/TIM16_CH1N*%
%TO.N,/GPInterruptPB6_MPU*%
X79180000Y39290000D03*
%TO.P,U1,CN10_18,PB11/USART3_RX/LPUART1_TX*%
%TO.N,unconnected-(U1B-PB11{slash}USART3_RX{slash}LPUART1_TX-PadCN10_18)*%
X81720000Y39290000D03*
%TO.P,U1,CN10_19,PC7*%
%TO.N,/~{GPIO_MPU_SPI_CS}*%
X79180000Y36750000D03*
D19*
%TO.P,U1,CN10_20,GND_CN10_20*%
%TO.N,GND*%
X81720000Y36750000D03*
D18*
%TO.P,U1,CN10_21,PA9/USART1_TX/TIM15_BKIN*%
%TO.N,unconnected-(U1B-PA9{slash}USART1_TX{slash}TIM15_BKIN-PadCN10_21)*%
X79180000Y34210000D03*
%TO.P,U1,CN10_22,PB2/RTC_OUT*%
%TO.N,unconnected-(U1B-PB2{slash}RTC_OUT-PadCN10_22)*%
X81720000Y34210000D03*
%TO.P,U1,CN10_23,PA8/MCO/USART1_CK/LPTIM2_OUT*%
%TO.N,unconnected-(U1B-PA8{slash}MCO{slash}USART1_CK{slash}LPTIM2_OUT-PadCN10_23)*%
X79180000Y31670000D03*
%TO.P,U1,CN10_24,PB1/ADC12_IN16/USART3_RTS_DE/LPTIM2_IN1*%
%TO.N,/AIn_StrainV_7*%
X81720000Y31670000D03*
%TO.P,U1,CN10_25,PB10/SPI2_SCK/USART3_TX/LPUART1_RX*%
%TO.N,unconnected-(U1B-PB10{slash}SPI2_SCK{slash}USART3_TX{slash}LPUART1_RX-PadCN10_25)*%
X79180000Y29130000D03*
%TO.P,U1,CN10_26,PB15/RTC_REFIN/SPI2_MOSI/TIM15_CH2*%
%TO.N,/SPI2_MOSI*%
X81720000Y29130000D03*
%TO.P,U1,CN10_27,PB4/NJTRST/SPI1_MISO/SPI3_MISO/USART1_CTS/UART5_RTS_DE/TIM17_BKIN*%
%TO.N,unconnected-(U1B-PB4{slash}NJTRST{slash}SPI1_MISO{slash}SPI3_MISO{slash}USART1_CTS{slash}UART5_RTS_DE{slash}TIM17_BKIN-PadCN10_27)*%
X79180000Y26590000D03*
%TO.P,U1,CN10_28,PB14/SPI2_MISO/USART3_RTS_DE/TIM15_CH1*%
%TO.N,/SPI2_MISO*%
X81720000Y26590000D03*
%TO.P,U1,CN10_29,PB5/SPI1_MOSI/SPI3_MOSI/USART1_CK/UART5_CTS/TIM16_BKIN*%
%TO.N,unconnected-(U1B-PB5{slash}SPI1_MOSI{slash}SPI3_MOSI{slash}USART1_CK{slash}UART5_CTS{slash}TIM16_BKIN-PadCN10_29)*%
X79180000Y24050000D03*
%TO.P,U1,CN10_30,PB13/SPI2_SCK/USART3_CTS/LPUART1_CTS/TIM15_CH1N*%
%TO.N,/SPI2_SCK*%
X81720000Y24050000D03*
%TO.P,U1,CN10_31,PB3/JTDO-TRACESWO/SPI1_SCK/SPI3_SCK/USART1_RTS_DE*%
%TO.N,unconnected-(U1B-PB3{slash}JTDO-TRACESWO{slash}SPI1_SCK{slash}SPI3_SCK{slash}USART1_RTS_DE-PadCN10_31)*%
X79180000Y21510000D03*
D19*
%TO.P,U1,CN10_32,AGND*%
%TO.N,GND*%
X81720000Y21510000D03*
D18*
%TO.P,U1,CN10_33,PA10/USART1_RX/TIM17_BKIN*%
%TO.N,/GPIO_Extra_SPI_CS*%
X79180000Y18970000D03*
%TO.P,U1,CN10_34,PC4/ADC12_IN13/USART3_TX*%
%TO.N,/AIn_StrainV_8*%
X81720000Y18970000D03*
%TO.P,U1,CN10_35,PA2/ADC12_IN7/USART2_TX/TIM15_CH1*%
%TO.N,unconnected-(U1B-PA2{slash}ADC12_IN7{slash}USART2_TX{slash}TIM15_CH1-PadCN10_35)*%
X79180000Y16430000D03*
%TO.P,U1,CN10_36,NC_CN10_36*%
%TO.N,unconnected-(U1B-NC_CN10_36-PadCN10_36)*%
X81720000Y16430000D03*
%TO.P,U1,CN10_37,PA3/ADC12_IN8/USART2_RX/TIM15_CH2*%
%TO.N,unconnected-(U1B-PA3{slash}ADC12_IN8{slash}USART2_RX{slash}TIM15_CH2-PadCN10_37)*%
X79180000Y13890000D03*
%TO.P,U1,CN10_38,NC_CN10_38*%
%TO.N,unconnected-(U1B-NC_CN10_38-PadCN10_38)*%
X81720000Y13890000D03*
%TO.P,U1,CN11_1,GND_CN11_1*%
%TO.N,unconnected-(U1C-GND_CN11_1-PadCN11_1)*%
X81720000Y87550000D03*
%TO.P,U1,CN11_2,GND_CN11_2*%
%TO.N,unconnected-(U1C-GND_CN11_2-PadCN11_2)*%
X81720000Y85010000D03*
%TO.P,U1,CN12_1,GND_CN12_1*%
%TO.N,unconnected-(U1C-GND_CN12_1-PadCN12_1)*%
X18220000Y87550000D03*
%TO.P,U1,CN12_2,GND_CN12_2*%
%TO.N,unconnected-(U1C-GND_CN12_2-PadCN12_2)*%
X18220000Y85010000D03*
%TD*%
D13*
%TO.P,J13,1,Pin_1*%
%TO.N,GND*%
X93500000Y18000000D03*
D14*
%TO.P,J13,2,Pin_2*%
%TO.N,Net-(J13-Pin_2)*%
X90960000Y18000000D03*
%TO.P,J13,3,Pin_3*%
%TO.N,Net-(J13-Pin_3)*%
X93500000Y20540000D03*
%TO.P,J13,4,Pin_4*%
%TO.N,unconnected-(J13-Pin_4-Pad4)*%
X90960000Y20540000D03*
%TO.P,J13,5,Pin_5*%
%TO.N,unconnected-(J13-Pin_5-Pad5)*%
X93500000Y23080000D03*
%TO.P,J13,6,Pin_6*%
%TO.N,unconnected-(J13-Pin_6-Pad6)*%
X90960000Y23080000D03*
%TD*%
%TO.P,U4,1,VIN*%
%TO.N,+3.3V*%
X33460000Y96000000D03*
D15*
%TO.P,U4,2,GND*%
%TO.N,GND*%
X36000000Y96000000D03*
D16*
%TO.P,U4,3,EN*%
%TO.N,/GPIO_ANT_Enable*%
X38540000Y96000000D03*
%TO.P,U4,4,G0_DIO0*%
%TO.N,/GPInterruptPC8_ANT_DIO0*%
X41080000Y96000000D03*
%TO.P,U4,5,SCK*%
%TO.N,/SPI2_SCK*%
X43620000Y96000000D03*
%TO.P,U4,6,MISO*%
%TO.N,/SPI2_MISO*%
X46160000Y96000000D03*
%TO.P,U4,7,MOSI*%
%TO.N,/SPI2_MOSI*%
X48700000Y96000000D03*
%TO.P,U4,8,CS*%
%TO.N,/GPIO_ANT_SPI_CS*%
X51240000Y96000000D03*
%TO.P,U4,9,RST*%
%TO.N,/GPIO_ANT_Reset*%
X53780000Y96000000D03*
D14*
%TO.P,U4,10,G1_DIO1*%
%TO.N,unconnected-(U4-G1_DIO1-Pad10)*%
X33460000Y121400000D03*
D16*
%TO.P,U4,11,G2_DIO2*%
%TO.N,unconnected-(U4-G2_DIO2-Pad11)*%
X36000000Y121400000D03*
%TO.P,U4,12,G3_DIO3*%
%TO.N,unconnected-(U4-G3_DIO3-Pad12)*%
X38540000Y121400000D03*
%TO.P,U4,13,G4_DIO4*%
%TO.N,unconnected-(U4-G4_DIO4-Pad13)*%
X41080000Y121400000D03*
%TO.P,U4,14,G5_DIO5*%
%TO.N,unconnected-(U4-G5_DIO5-Pad14)*%
X43620000Y121400000D03*
%TO.P,U4,15,ANT*%
%TO.N,unconnected-(U4-ANT-Pad15)*%
X52560800Y117945600D03*
%TD*%
D17*
%TO.P,J7,1,Pin_1*%
%TO.N,GND*%
X6500000Y62363333D03*
D14*
%TO.P,J7,2,Pin_2*%
%TO.N,Net-(J7-Pin_2)*%
X9040000Y62363333D03*
%TO.P,J7,3,Pin_3*%
%TO.N,Net-(J7-Pin_3)*%
X6500000Y59823333D03*
%TO.P,J7,4,Pin_4*%
%TO.N,unconnected-(J7-Pin_4-Pad4)*%
X9040000Y59823333D03*
%TO.P,J7,5,Pin_5*%
%TO.N,unconnected-(J7-Pin_5-Pad5)*%
X6500000Y57283333D03*
%TO.P,J7,6,Pin_6*%
%TO.N,unconnected-(J7-Pin_6-Pad6)*%
X9040000Y57283333D03*
%TD*%
D15*
%TO.P,J20,1,Pin_1*%
%TO.N,GND*%
X15680000Y4000000D03*
%TO.P,J20,2,Pin_2*%
X18220000Y4000000D03*
D16*
%TO.P,J20,3,Pin_3*%
%TO.N,Net-(J20-Pin_3)*%
X20760000Y4000000D03*
%TO.P,J20,4,Pin_4*%
X23300000Y4000000D03*
%TD*%
D17*
%TO.P,J9,1,Pin_1*%
%TO.N,GND*%
X6500000Y23090000D03*
D14*
%TO.P,J9,2,Pin_2*%
%TO.N,Net-(J9-Pin_2)*%
X9040000Y23090000D03*
%TO.P,J9,3,Pin_3*%
%TO.N,Net-(J9-Pin_3)*%
X6500000Y20550000D03*
%TO.P,J9,4,Pin_4*%
%TO.N,unconnected-(J9-Pin_4-Pad4)*%
X9040000Y20550000D03*
%TO.P,J9,5,Pin_5*%
%TO.N,unconnected-(J9-Pin_5-Pad5)*%
X6500000Y18010000D03*
%TO.P,J9,6,Pin_6*%
%TO.N,unconnected-(J9-Pin_6-Pad6)*%
X9040000Y18010000D03*
%TD*%
D20*
%TO.P,D14,1,K*%
%TO.N,/AIn_StrainV_7*%
X86150000Y38016667D03*
%TO.P,D14,2,A*%
%TO.N,GND*%
X86150000Y34716667D03*
%TD*%
%TO.P,D6,1,K*%
%TO.N,/AIn_StrainV_3*%
X13850000Y38026667D03*
%TO.P,D6,2,A*%
%TO.N,GND*%
X13850000Y34726667D03*
%TD*%
%TO.P,D15,1,K*%
%TO.N,+3.3V*%
X86150000Y26000000D03*
%TO.P,D15,2,A*%
%TO.N,/AIn_StrainV_8*%
X86150000Y22700000D03*
%TD*%
D21*
%TO.P,C4,1*%
%TO.N,+VBattery_or_7V*%
X53541467Y24145398D03*
%TO.P,C4,2*%
%TO.N,GND*%
X53541467Y22070398D03*
%TD*%
D20*
%TO.P,D9,1,K*%
%TO.N,+3.3V*%
X86150000Y84910000D03*
%TO.P,D9,2,A*%
%TO.N,/AIn_StrainV_5*%
X86150000Y81610000D03*
%TD*%
%TO.P,D8,1,K*%
%TO.N,/AIn_StrainV_4*%
X13850000Y18390000D03*
%TO.P,D8,2,A*%
%TO.N,GND*%
X13850000Y15090000D03*
%TD*%
D22*
%TO.P,C16,1*%
%TO.N,/AIn_StrainV_6*%
X76867500Y44370000D03*
%TO.P,C16,2*%
%TO.N,GND*%
X75142500Y44370000D03*
%TD*%
D23*
%TO.P,R20,1*%
%TO.N,/AIn_StrainV_5*%
X69925000Y54530000D03*
%TO.P,R20,2*%
%TO.N,GND*%
X71925000Y54530000D03*
%TD*%
D24*
%TO.P,C14,1*%
%TO.N,GND*%
X60405500Y50054000D03*
%TO.P,C14,2*%
%TO.N,Net-(U3-REGOUT)*%
X58330500Y50054000D03*
%TD*%
D25*
%TO.P,C1,1*%
%TO.N,+5V*%
X22012500Y78367500D03*
%TO.P,C1,2*%
%TO.N,GND*%
X22012500Y81492500D03*
%TD*%
D20*
%TO.P,D12,1,K*%
%TO.N,/AIn_StrainV_6*%
X86150000Y57653333D03*
%TO.P,D12,2,A*%
%TO.N,GND*%
X86150000Y54353333D03*
%TD*%
D26*
%TO.P,R13,1*%
%TO.N,/AIn_StrainV_3*%
X13850000Y40186667D03*
%TO.P,R13,2*%
%TO.N,Net-(J8-Pin_2)*%
X11850000Y40186667D03*
%TD*%
D20*
%TO.P,D13,1,K*%
%TO.N,+3.3V*%
X86150000Y45636667D03*
%TO.P,D13,2,A*%
%TO.N,/AIn_StrainV_7*%
X86150000Y42336667D03*
%TD*%
D23*
%TO.P,R22,1*%
%TO.N,/AIn_StrainV_6*%
X69925000Y44370000D03*
%TO.P,R22,2*%
%TO.N,GND*%
X71925000Y44370000D03*
%TD*%
%TO.P,R5,1*%
%TO.N,Net-(Q1-G)*%
X33490000Y11350000D03*
%TO.P,R5,2*%
%TO.N,+VBattery*%
X35490000Y11350000D03*
%TD*%
D27*
%TO.P,Q1,1,D*%
%TO.N,Net-(Q1-D)*%
X33450000Y7098000D03*
%TO.P,Q1,2,G*%
%TO.N,Net-(Q1-G)*%
X33450000Y8998000D03*
%TO.P,Q1,3,S*%
%TO.N,+VBattery*%
X36070000Y8048000D03*
%TD*%
D26*
%TO.P,R9,1*%
%TO.N,GND*%
X25570000Y13890000D03*
%TO.P,R9,2*%
%TO.N,/AIn_BatteryV*%
X23570000Y13890000D03*
%TD*%
%TO.P,R18,1*%
%TO.N,/AIn_StrainV_4*%
X30015000Y18970000D03*
%TO.P,R18,2*%
%TO.N,GND*%
X28015000Y18970000D03*
%TD*%
D20*
%TO.P,D7,1,K*%
%TO.N,+3.3V*%
X13850000Y26010000D03*
%TO.P,D7,2,A*%
%TO.N,/AIn_StrainV_4*%
X13850000Y22710000D03*
%TD*%
D26*
%TO.P,R15,1*%
%TO.N,/AIn_StrainV_4*%
X13850000Y20550000D03*
%TO.P,R15,2*%
%TO.N,Net-(J9-Pin_2)*%
X11850000Y20550000D03*
%TD*%
%TO.P,R14,1*%
%TO.N,/AIn_StrainV_2*%
X30015000Y24050000D03*
%TO.P,R14,2*%
%TO.N,GND*%
X28015000Y24050000D03*
%TD*%
%TO.P,R12,1*%
%TO.N,/AIn_StrainV_1*%
X30015000Y26590000D03*
%TO.P,R12,2*%
%TO.N,GND*%
X28015000Y26590000D03*
%TD*%
D23*
%TO.P,R6,1*%
%TO.N,/AIn_BatteryV*%
X23570000Y8810000D03*
%TO.P,R6,2*%
%TO.N,Net-(Q1-D)*%
X25570000Y8810000D03*
%TD*%
D21*
%TO.P,C10,1*%
%TO.N,+3.3V*%
X61400000Y47154500D03*
%TO.P,C10,2*%
%TO.N,GND*%
X61400000Y45079500D03*
%TD*%
D26*
%TO.P,R7,1*%
%TO.N,GND*%
X35440000Y18970000D03*
%TO.P,R7,2*%
%TO.N,/GPIO_BatteryV_Enable*%
X33440000Y18970000D03*
%TD*%
D23*
%TO.P,R24,1*%
%TO.N,/AIn_StrainV_7*%
X69925000Y31670000D03*
%TO.P,R24,2*%
%TO.N,GND*%
X71925000Y31670000D03*
%TD*%
D28*
%TO.P,C6,1*%
%TO.N,/AIn_BatteryV*%
X23532500Y11350000D03*
%TO.P,C6,2*%
%TO.N,GND*%
X25607500Y11350000D03*
%TD*%
D29*
%TO.P,Q3,1,D*%
%TO.N,Net-(Q3-D)*%
X27092500Y80880000D03*
%TO.P,Q3,2,G*%
%TO.N,/~{GPIO_StrainV_Enable_5VTolerant}*%
X27092500Y78980000D03*
%TO.P,Q3,3,S*%
%TO.N,+5V*%
X24472500Y79930000D03*
%TD*%
D20*
%TO.P,D11,1,K*%
%TO.N,+3.3V*%
X86150000Y65273333D03*
%TO.P,D11,2,A*%
%TO.N,/AIn_StrainV_6*%
X86150000Y61973333D03*
%TD*%
D30*
%TO.P,U2,1,CB*%
%TO.N,Net-(U2-CB)*%
X51038500Y19517501D03*
D31*
%TO.P,U2,2,GND*%
%TO.N,GND*%
X50838500Y18567500D03*
D32*
X49661950Y18567500D03*
D33*
%TO.P,U2,3,FB*%
%TO.N,/BuckFB*%
X51038500Y17610048D03*
D30*
%TO.P,U2,4,EN*%
%TO.N,Net-(U2-EN)*%
X48285400Y17617499D03*
%TO.P,U2,5,VIN*%
X48285400Y18567500D03*
%TO.P,U2,6,SW*%
%TO.N,/BuckSW*%
X48285400Y19517501D03*
%TD*%
D20*
%TO.P,D10,1,K*%
%TO.N,/AIn_StrainV_5*%
X86150000Y77290000D03*
%TO.P,D10,2,A*%
%TO.N,GND*%
X86150000Y73990000D03*
%TD*%
%TO.P,D3,1,K*%
%TO.N,+3.3V*%
X13850000Y65283333D03*
%TO.P,D3,2,A*%
%TO.N,/AIn_StrainV_2*%
X13850000Y61983333D03*
%TD*%
D25*
%TO.P,C5,1*%
%TO.N,+VBattery_or_7V*%
X23935000Y31377500D03*
%TO.P,C5,2*%
%TO.N,GND*%
X23935000Y34502500D03*
%TD*%
D24*
%TO.P,C7,1*%
%TO.N,Net-(Q3-D)*%
X27110000Y83740000D03*
%TO.P,C7,2*%
%TO.N,GND*%
X25035000Y83740000D03*
%TD*%
D21*
%TO.P,C2,1*%
%TO.N,Net-(U2-EN)*%
X46116467Y17065000D03*
%TO.P,C2,2*%
%TO.N,GND*%
X46116467Y14990000D03*
%TD*%
D22*
%TO.P,C17,1*%
%TO.N,/AIn_StrainV_7*%
X76867500Y31670000D03*
%TO.P,C17,2*%
%TO.N,GND*%
X75142500Y31670000D03*
%TD*%
D34*
%TO.P,R1,1*%
%TO.N,+VBattery*%
X43610000Y10604000D03*
D35*
%TO.P,R1,2*%
%TO.N,Net-(U2-EN)*%
X43610000Y12804000D03*
D34*
%TO.P,R1,3*%
%TO.N,+VBattery_or_7V*%
X41410000Y10604000D03*
%TD*%
D23*
%TO.P,R23,1*%
%TO.N,/AIn_StrainV_8*%
X86150000Y20540000D03*
%TO.P,R23,2*%
%TO.N,Net-(J13-Pin_2)*%
X88150000Y20540000D03*
%TD*%
D26*
%TO.P,R2,1*%
%TO.N,/AIn_StrainV_1*%
X13850000Y79460000D03*
%TO.P,R2,2*%
%TO.N,Net-(J6-Pin_2)*%
X11850000Y79460000D03*
%TD*%
D36*
%TO.P,R3,1*%
%TO.N,/BuckFB*%
X56828000Y15027500D03*
%TO.P,R3,2*%
%TO.N,+VBattery_or_7V*%
X56828000Y17027500D03*
%TD*%
D22*
%TO.P,C15,1*%
%TO.N,/AIn_StrainV_5*%
X76867500Y54530000D03*
%TO.P,C15,2*%
%TO.N,GND*%
X75142500Y54530000D03*
%TD*%
D27*
%TO.P,Q2,1,D*%
%TO.N,Net-(Q1-G)*%
X33450000Y14530000D03*
%TO.P,Q2,2,G*%
%TO.N,/GPIO_BatteryV_Enable*%
X33450000Y16430000D03*
%TO.P,Q2,3,S*%
%TO.N,GND*%
X36070000Y15480000D03*
%TD*%
D20*
%TO.P,D5,1,K*%
%TO.N,+3.3V*%
X13850000Y45646667D03*
%TO.P,D5,2,A*%
%TO.N,/AIn_StrainV_3*%
X13850000Y42346667D03*
%TD*%
D37*
%TO.P,C9,1*%
%TO.N,/AIn_StrainV_2*%
X23072500Y24050000D03*
%TO.P,C9,2*%
%TO.N,GND*%
X24797500Y24050000D03*
%TD*%
D38*
%TO.P,L1,1*%
%TO.N,/BuckSW*%
X44270467Y20655948D03*
%TO.P,L1,2*%
%TO.N,+VBattery_or_7V*%
X44270467Y24961248D03*
%TD*%
D37*
%TO.P,C13,1*%
%TO.N,/AIn_StrainV_4*%
X23072500Y18970000D03*
%TO.P,C13,2*%
%TO.N,GND*%
X24797500Y18970000D03*
%TD*%
D23*
%TO.P,R26,1*%
%TO.N,/AIn_StrainV_8*%
X69925000Y18970000D03*
%TO.P,R26,2*%
%TO.N,GND*%
X71925000Y18970000D03*
%TD*%
D20*
%TO.P,D1,1,K*%
%TO.N,+3.3V*%
X13850000Y84920000D03*
%TO.P,D1,2,A*%
%TO.N,/AIn_StrainV_1*%
X13850000Y81620000D03*
%TD*%
D39*
%TO.P,R4,1*%
%TO.N,GND*%
X53541467Y17027500D03*
%TO.P,R4,2*%
%TO.N,/BuckFB*%
X53541467Y15027500D03*
%TD*%
D26*
%TO.P,R16,1*%
%TO.N,/AIn_StrainV_3*%
X30015000Y21510000D03*
%TO.P,R16,2*%
%TO.N,GND*%
X28015000Y21510000D03*
%TD*%
%TO.P,R11,1*%
%TO.N,/AIn_StrainV_2*%
X13850000Y59823333D03*
%TO.P,R11,2*%
%TO.N,Net-(J7-Pin_2)*%
X11850000Y59823333D03*
%TD*%
D23*
%TO.P,R19,1*%
%TO.N,/AIn_StrainV_6*%
X86150000Y59813333D03*
%TO.P,R19,2*%
%TO.N,Net-(J11-Pin_2)*%
X88150000Y59813333D03*
%TD*%
D37*
%TO.P,C8,1*%
%TO.N,/AIn_StrainV_1*%
X23072500Y26590000D03*
%TO.P,C8,2*%
%TO.N,GND*%
X24797500Y26590000D03*
%TD*%
D25*
%TO.P,C19,1*%
%TO.N,+VBattery*%
X38530000Y12274444D03*
%TO.P,C19,2*%
%TO.N,GND*%
X38530000Y15399444D03*
%TD*%
D20*
%TO.P,D4,1,K*%
%TO.N,/AIn_StrainV_2*%
X13850000Y57663333D03*
%TO.P,D4,2,A*%
%TO.N,GND*%
X13850000Y54363333D03*
%TD*%
D26*
%TO.P,R8,1*%
%TO.N,/~{GPIO_StrainV_Enable_5VTolerant}*%
X27102500Y76120000D03*
%TO.P,R8,2*%
%TO.N,+5V*%
X25102500Y76120000D03*
%TD*%
D22*
%TO.P,C12,1*%
%TO.N,+3.3V*%
X56066000Y49772000D03*
%TO.P,C12,2*%
%TO.N,GND*%
X54341000Y49772000D03*
%TD*%
D23*
%TO.P,R21,1*%
%TO.N,/AIn_StrainV_7*%
X86150000Y40176667D03*
%TO.P,R21,2*%
%TO.N,Net-(J12-Pin_2)*%
X88150000Y40176667D03*
%TD*%
D20*
%TO.P,D2,1,K*%
%TO.N,/AIn_StrainV_1*%
X13850000Y77300000D03*
%TO.P,D2,2,A*%
%TO.N,GND*%
X13850000Y74000000D03*
%TD*%
D23*
%TO.P,R17,1*%
%TO.N,/AIn_StrainV_5*%
X86150000Y79450000D03*
%TO.P,R17,2*%
%TO.N,Net-(J10-Pin_2)*%
X88150000Y79450000D03*
%TD*%
D24*
%TO.P,C3,1*%
%TO.N,Net-(U2-CB)*%
X50371350Y21306800D03*
%TO.P,C3,2*%
%TO.N,/BuckSW*%
X48296350Y21306800D03*
%TD*%
D20*
%TO.P,D16,1,K*%
%TO.N,/AIn_StrainV_8*%
X86150000Y18380000D03*
%TO.P,D16,2,A*%
%TO.N,GND*%
X86150000Y15080000D03*
%TD*%
D22*
%TO.P,C18,1*%
%TO.N,/AIn_StrainV_8*%
X76867500Y18970000D03*
%TO.P,C18,2*%
%TO.N,GND*%
X75142500Y18970000D03*
%TD*%
D40*
%TO.P,U3,1,NC*%
%TO.N,unconnected-(U3-NC-Pad1)*%
X55748000Y45312000D03*
%TO.P,U3,2,NC*%
%TO.N,unconnected-(U3-NC-Pad2)*%
X55748000Y45712000D03*
%TO.P,U3,3,NC*%
%TO.N,unconnected-(U3-NC-Pad3)*%
X55748000Y46112000D03*
%TO.P,U3,4,NC*%
%TO.N,unconnected-(U3-NC-Pad4)*%
X55748000Y46512000D03*
%TO.P,U3,5,NC*%
%TO.N,unconnected-(U3-NC-Pad5)*%
X55748000Y46912000D03*
%TO.P,U3,6,NC*%
%TO.N,unconnected-(U3-NC-Pad6)*%
X55748000Y47312000D03*
D41*
%TO.P,U3,7,AUX_CL*%
%TO.N,unconnected-(U3-AUX_CL-Pad7)*%
X56420000Y47984000D03*
%TO.P,U3,8,VDDIO*%
%TO.N,+3.3V*%
X56820000Y47984000D03*
%TO.P,U3,9,AD0/SDO*%
%TO.N,/SPI2_MISO*%
X57220000Y47984000D03*
%TO.P,U3,10,REGOUT*%
%TO.N,Net-(U3-REGOUT)*%
X57620000Y47984000D03*
%TO.P,U3,11,FSYNC_or_GND*%
%TO.N,GND*%
X58020000Y47984000D03*
%TO.P,U3,12,INT*%
%TO.N,/GPInterruptPB6_MPU*%
X58420000Y47984000D03*
D40*
%TO.P,U3,13,VDD*%
%TO.N,+3.3V*%
X59092000Y47312000D03*
%TO.P,U3,14,NC*%
%TO.N,unconnected-(U3-NC-Pad14)*%
X59092000Y46912000D03*
%TO.P,U3,15,NC*%
%TO.N,unconnected-(U3-NC-Pad15)*%
X59092000Y46512000D03*
%TO.P,U3,16,NC*%
%TO.N,unconnected-(U3-NC-Pad16)*%
X59092000Y46112000D03*
%TO.P,U3,17,NC*%
%TO.N,unconnected-(U3-NC-Pad17)*%
X59092000Y45712000D03*
%TO.P,U3,18,GND*%
%TO.N,GND*%
X59092000Y45312000D03*
D41*
%TO.P,U3,19,RESV_NC*%
%TO.N,unconnected-(U3-RESV_NC-Pad19)*%
X58420000Y44640000D03*
%TO.P,U3,20,RESV_GND*%
%TO.N,GND*%
X58020000Y44640000D03*
%TO.P,U3,21,AUX_DA*%
%TO.N,unconnected-(U3-AUX_DA-Pad21)*%
X57620000Y44640000D03*
%TO.P,U3,22,nCS*%
%TO.N,/~{GPIO_MPU_SPI_CS}*%
X57220000Y44640000D03*
%TO.P,U3,23,SCL/SCLK*%
%TO.N,/SPI2_SCK*%
X56820000Y44640000D03*
%TO.P,U3,24,SDA/SDI*%
%TO.N,/SPI2_MOSI*%
X56420000Y44640000D03*
D42*
%TO.P,U3,25,ThermalPad_typically_GND*%
%TO.N,GND*%
X57420000Y46312000D03*
%TD*%
D37*
%TO.P,C11,1*%
%TO.N,/AIn_StrainV_3*%
X23072500Y21510000D03*
%TO.P,C11,2*%
%TO.N,GND*%
X24797500Y21510000D03*
%TD*%
D43*
%TO.N,+3.3V*%
X86150000Y66798333D03*
X13850000Y27535000D03*
X56066000Y51550000D03*
X13850000Y86445000D03*
X86150000Y86435000D03*
X63305000Y47154500D03*
X86150000Y47161667D03*
X13850000Y47171667D03*
X86150000Y27525000D03*
X13850000Y66808333D03*
%TO.N,Net-(Q3-D)*%
X1000000Y23090000D03*
X99000000Y76910000D03*
X99000000Y57273333D03*
X99000000Y37636667D03*
X1000000Y82000000D03*
X1000000Y62363333D03*
X99000000Y18000000D03*
X1000000Y42678333D03*
%TO.N,GND*%
X86150000Y72465000D03*
X58860000Y39290000D03*
X26375000Y18970000D03*
X27745000Y13890000D03*
X60405500Y51620000D03*
X32190000Y89650000D03*
X19810000Y81492500D03*
X26375000Y21510000D03*
X26375000Y24050000D03*
X52510000Y89650000D03*
X73565000Y54530000D03*
X44890000Y89650000D03*
X55050000Y89650000D03*
X47430000Y89650000D03*
X86150000Y33191667D03*
X49096467Y16027500D03*
X37270000Y89650000D03*
X39810000Y89650000D03*
X49970000Y89650000D03*
X49970000Y63420000D03*
X50366467Y16027500D03*
X26375000Y26590000D03*
X13850000Y13565000D03*
X57590000Y35480000D03*
X47430000Y65960000D03*
X67750000Y22780000D03*
X66480000Y29130000D03*
X73565000Y31670000D03*
X65210000Y10350000D03*
X27745000Y11350000D03*
X13850000Y52838333D03*
X54341000Y51550000D03*
X13850000Y33201667D03*
X73565000Y44370000D03*
X46116467Y13525000D03*
X67750000Y10350000D03*
X42350000Y89650000D03*
X63305000Y45079500D03*
X56167600Y41830000D03*
X63940000Y26590000D03*
X69020000Y24050000D03*
X34730000Y89650000D03*
X86150000Y52828333D03*
X73565000Y18970000D03*
X38540000Y17065000D03*
X55050000Y38020000D03*
X54176467Y18567500D03*
X62670000Y10350000D03*
X13850000Y72475000D03*
X52906467Y18567500D03*
X70290000Y10350000D03*
X86150000Y13555000D03*
D44*
%TO.N,+VBattery_or_7V*%
X56828000Y24130000D03*
D43*
%TO.N,/SPI2_MISO*%
X49970000Y62150000D03*
X66480000Y22780000D03*
X69020000Y25320000D03*
X55050000Y39290000D03*
X58860000Y35480000D03*
X46160000Y65960000D03*
%TO.N,/SPI2_MOSI*%
X63940000Y25320000D03*
X58860000Y38020000D03*
X55050000Y41830000D03*
X67750000Y29130000D03*
D44*
%TO.N,/BuckFB*%
X53541467Y12852500D03*
%TD*%
D45*
%TO.N,+3.3V*%
X13850000Y45646667D02*
X13850000Y47171667D01*
X86150000Y47161667D02*
X86150000Y45636667D01*
D10*
X61400000Y47154500D02*
X61242500Y47312000D01*
D45*
X13850000Y65283333D02*
X13850000Y66808333D01*
D10*
X56066000Y49772000D02*
X56820000Y49018000D01*
D45*
X61400000Y47154500D02*
X63305000Y47154500D01*
X13850000Y27535000D02*
X13850000Y26010000D01*
X86150000Y84910000D02*
X86150000Y86435000D01*
D10*
X61242500Y47312000D02*
X59092000Y47312000D01*
X56820000Y49018000D02*
X56820000Y47984000D01*
D45*
X86150000Y27525000D02*
X86150000Y26000000D01*
X13850000Y84920000D02*
X13850000Y86445000D01*
X86150000Y65273333D02*
X86150000Y66798333D01*
X56066000Y49772000D02*
X56066000Y51550000D01*
%TO.N,+5V*%
X29650000Y66252500D02*
X22012500Y73890000D01*
X22012500Y78367500D02*
X22910000Y78367500D01*
X22012500Y73890000D02*
X22012500Y78367500D01*
X20760000Y39290000D02*
X29650000Y48180000D01*
X25102500Y76120000D02*
X25102500Y79300000D01*
X25102500Y79300000D02*
X24472500Y79930000D01*
X29650000Y48180000D02*
X29650000Y66252500D01*
X22012500Y78367500D02*
X22855000Y78367500D01*
X22910000Y78367500D02*
X24472500Y79930000D01*
%TO.N,/AIn_BatteryV*%
X23570000Y13890000D02*
X20760000Y13890000D01*
X23570000Y8810000D02*
X23570000Y13890000D01*
%TO.N,Net-(Q3-D)*%
X99000000Y73410000D02*
X99000000Y62500000D01*
X99000000Y37636667D02*
X99000000Y56410000D01*
X1980000Y98980000D02*
X27110000Y98980000D01*
X99000000Y98000000D02*
X99000000Y95410000D01*
X27110000Y83740000D02*
X27110000Y98980000D01*
X32000000Y98980000D02*
X27110000Y98980000D01*
X99000000Y18000000D02*
X99000000Y56410000D01*
X99000000Y57273333D02*
X99000000Y73410000D01*
X27110000Y80897500D02*
X27092500Y80880000D01*
X32000000Y98980000D02*
X98020000Y98980000D01*
X1000000Y23090000D02*
X1000000Y98000000D01*
X98020000Y98980000D02*
X99000000Y98000000D01*
X99000000Y95410000D02*
X99000000Y81000000D01*
X99000000Y81000000D02*
X99000000Y73410000D01*
X27110000Y83740000D02*
X27110000Y80897500D01*
X99000000Y62500000D02*
X99000000Y56410000D01*
X1000000Y98000000D02*
X1980000Y98980000D01*
D46*
%TO.N,/AIn_StrainV_1*%
X28745000Y27860000D02*
X30015000Y26590000D01*
X16950000Y27860000D02*
X16696000Y28114000D01*
D45*
X13850000Y81620000D02*
X13850000Y77300000D01*
D46*
X24342500Y27860000D02*
X28745000Y27860000D01*
X14880000Y79460000D02*
X13850000Y79460000D01*
X23072500Y26590000D02*
X24342500Y27860000D01*
X20760000Y26590000D02*
X23072500Y26590000D01*
X20760000Y26590000D02*
X19490000Y27860000D01*
X16696000Y28114000D02*
X16696000Y77644000D01*
X16696000Y77644000D02*
X14880000Y79460000D01*
X19490000Y27860000D02*
X16950000Y27860000D01*
%TO.N,/AIn_StrainV_2*%
X24316000Y25320000D02*
X28745000Y25320000D01*
D45*
X13850000Y57663333D02*
X13850000Y61983333D01*
D46*
X15934000Y26336000D02*
X16950000Y25320000D01*
X20760000Y24050000D02*
X23072500Y24050000D01*
X23072500Y24050000D02*
X23072500Y24076500D01*
X15934000Y58086000D02*
X15934000Y26336000D01*
X23072500Y24076500D02*
X24316000Y25320000D01*
X28745000Y25320000D02*
X30015000Y24050000D01*
X14196667Y59823333D02*
X15934000Y58086000D01*
X13850000Y59823333D02*
X14196667Y59823333D01*
X16950000Y25320000D02*
X19490000Y25320000D01*
X19490000Y25320000D02*
X20760000Y24050000D01*
%TO.N,/AIn_StrainV_3*%
X17585000Y22780000D02*
X19490000Y22780000D01*
X19490000Y22780000D02*
X20760000Y21510000D01*
X23072500Y21510000D02*
X20760000Y21510000D01*
X15299000Y25066000D02*
X17585000Y22780000D01*
X23072500Y21510000D02*
X24342500Y22780000D01*
X28745000Y22780000D02*
X30015000Y21510000D01*
X24342500Y22780000D02*
X28745000Y22780000D01*
D45*
X13850000Y38026667D02*
X13850000Y42346667D01*
D46*
X15299000Y38737667D02*
X15299000Y25066000D01*
X13850000Y40186667D02*
X15299000Y38737667D01*
D45*
%TO.N,GND*%
X22012500Y81492500D02*
X19810000Y81492500D01*
X25570000Y13890000D02*
X27745000Y13890000D01*
D10*
X58391600Y45340400D02*
X61139100Y45340400D01*
X59166500Y48815000D02*
X60405500Y50054000D01*
D45*
X38449444Y15480000D02*
X38530000Y15399444D01*
D10*
X61167500Y45312000D02*
X61400000Y45079500D01*
X57420000Y46312000D02*
X58391600Y45340400D01*
D45*
X13850000Y34726667D02*
X13850000Y33201667D01*
X38530000Y17055000D02*
X38540000Y17065000D01*
D46*
X24797500Y21510000D02*
X28015000Y21510000D01*
D10*
X57420000Y46312000D02*
X58020000Y45712000D01*
D45*
X86150000Y73990000D02*
X86150000Y72465000D01*
D10*
X59092000Y45312000D02*
X61167500Y45312000D01*
D45*
X61400000Y45079500D02*
X63305000Y45079500D01*
D10*
X58020000Y45712000D02*
X58020000Y45448400D01*
D46*
X24797500Y18970000D02*
X28015000Y18970000D01*
X24797500Y26590000D02*
X28015000Y26590000D01*
D45*
X22787500Y81492500D02*
X25035000Y83740000D01*
D10*
X58020000Y48484018D02*
X58350982Y48815000D01*
D45*
X60405500Y51620000D02*
X60405500Y50054000D01*
X46116467Y14990000D02*
X46116467Y4000000D01*
D10*
X58350982Y48815000D02*
X59166500Y48815000D01*
D45*
X54341000Y49772000D02*
X54341000Y51550000D01*
X86150000Y15080000D02*
X86150000Y13555000D01*
D10*
X58020000Y47984000D02*
X58020000Y48484018D01*
D45*
X13850000Y15090000D02*
X13850000Y13565000D01*
X49096467Y16027500D02*
X49096467Y16166534D01*
X15680000Y4000000D02*
X18220000Y4000000D01*
D46*
X24797500Y24050000D02*
X28015000Y24050000D01*
D10*
X58020000Y47984000D02*
X58020000Y46912000D01*
X61139100Y45340400D02*
X58128000Y45340400D01*
D45*
X86150000Y34716667D02*
X86150000Y33191667D01*
D10*
X58128000Y45340400D02*
X58020000Y45448400D01*
D45*
X49661950Y18567500D02*
X49661950Y16732017D01*
X49096467Y16166534D02*
X49661950Y16732017D01*
D46*
X75142500Y18970000D02*
X71925000Y18970000D01*
D45*
X22012500Y81492500D02*
X22787500Y81492500D01*
D10*
X61400000Y45079500D02*
X61139100Y45340400D01*
D45*
X36070000Y15480000D02*
X38449444Y15480000D01*
X76200000Y4000000D02*
X86360000Y4000000D01*
D10*
X58020000Y46912000D02*
X57420000Y46312000D01*
D45*
X50838500Y18567500D02*
X52906467Y18567500D01*
D46*
X75142500Y54530000D02*
X71925000Y54530000D01*
D45*
X35440000Y18970000D02*
X35440000Y16110000D01*
X86150000Y54353333D02*
X86150000Y52828333D01*
X38530000Y15399444D02*
X38530000Y17055000D01*
X13850000Y52838333D02*
X13850000Y54363333D01*
X13850000Y74000000D02*
X13850000Y72475000D01*
X35440000Y16110000D02*
X36070000Y15480000D01*
X49661950Y16732017D02*
X50366467Y16027500D01*
X25607500Y11350000D02*
X27745000Y11350000D01*
X23935000Y34502500D02*
X23935000Y36750000D01*
D46*
X75142500Y44370000D02*
X71925000Y44370000D01*
D45*
X50838500Y18567500D02*
X49661950Y18567500D01*
X53541467Y22070398D02*
X53541467Y17027500D01*
D46*
X75142500Y31670000D02*
X71925000Y31670000D01*
D10*
X58020000Y45448400D02*
X58020000Y44640000D01*
D45*
%TO.N,+VBattery_or_7V*%
X52725617Y24961248D02*
X53541467Y24145398D01*
X44270467Y24961248D02*
X52725617Y24961248D01*
X41410000Y17370000D02*
X38540000Y20240000D01*
X32190000Y31377500D02*
X37854215Y31377500D01*
X38540000Y20240000D02*
X38540000Y30691715D01*
X41410000Y10604000D02*
X41410000Y17370000D01*
X23935000Y31377500D02*
X32190000Y31377500D01*
X23935000Y31377500D02*
X21052500Y31377500D01*
X37854215Y31377500D02*
X44270467Y24961248D01*
X53556865Y24130000D02*
X53541467Y24145398D01*
X56828000Y17027500D02*
X56828000Y24130000D01*
X21052500Y31377500D02*
X20760000Y31670000D01*
X56828000Y24130000D02*
X53556865Y24130000D01*
X38540000Y30691715D02*
X37854215Y31377500D01*
D46*
%TO.N,/AIn_StrainV_4*%
X14160000Y20240000D02*
X19490000Y20240000D01*
X20760000Y18970000D02*
X23072500Y18970000D01*
X23072500Y18970000D02*
X24342500Y20240000D01*
X28745000Y20240000D02*
X30015000Y18970000D01*
D45*
X13850000Y22710000D02*
X13850000Y18390000D01*
D46*
X13850000Y20550000D02*
X14160000Y20240000D01*
X20760000Y18970000D02*
X19490000Y20240000D01*
X24342500Y20240000D02*
X28745000Y20240000D01*
%TO.N,/AIn_StrainV_5*%
X84260000Y78025000D02*
X84260000Y57070000D01*
X84260000Y57070000D02*
X81720000Y54530000D01*
X75597500Y53260000D02*
X71195000Y53260000D01*
X80450000Y53260000D02*
X78137500Y53260000D01*
D45*
X86150000Y77290000D02*
X86150000Y81610000D01*
D46*
X86150000Y79450000D02*
X85685000Y79450000D01*
X76867500Y54530000D02*
X75597500Y53260000D01*
X78137500Y53260000D02*
X76867500Y54530000D01*
X80450000Y53260000D02*
X81720000Y54530000D01*
X85685000Y79450000D02*
X84260000Y78025000D01*
X69925000Y54530000D02*
X71195000Y53260000D01*
%TO.N,/AIn_StrainV_6*%
X84895000Y47545000D02*
X82990000Y45640000D01*
X69925000Y44370000D02*
X71195000Y45640000D01*
X85733333Y59813333D02*
X84895000Y58975000D01*
X86150000Y59813333D02*
X85733333Y59813333D01*
X80450000Y45640000D02*
X79180000Y44370000D01*
X84895000Y58975000D02*
X84895000Y47545000D01*
X75597500Y45640000D02*
X76867500Y44370000D01*
X79180000Y44370000D02*
X76867500Y44370000D01*
X71195000Y45640000D02*
X75597500Y45640000D01*
X82990000Y45640000D02*
X80450000Y45640000D01*
D45*
X86150000Y61973333D02*
X86150000Y57653333D01*
D46*
%TO.N,/AIn_StrainV_7*%
X75597500Y32940000D02*
X71195000Y32940000D01*
X78137500Y32940000D02*
X76867500Y31670000D01*
X84260000Y34210000D02*
X84260000Y38655000D01*
D45*
X86150000Y42336667D02*
X86150000Y38016667D01*
D46*
X86150000Y40176667D02*
X85781667Y40176667D01*
X76867500Y31670000D02*
X75597500Y32940000D01*
X80450000Y32940000D02*
X81720000Y31670000D01*
X81720000Y31670000D02*
X84260000Y34210000D01*
X80450000Y32940000D02*
X78137500Y32940000D01*
X81739167Y31689167D02*
X81720000Y31670000D01*
X85781667Y40176667D02*
X84260000Y38655000D01*
X69925000Y31670000D02*
X71195000Y32940000D01*
%TO.N,/AIn_StrainV_8*%
X83290000Y20540000D02*
X81720000Y18970000D01*
X78137500Y20240000D02*
X76867500Y18970000D01*
X75597500Y20240000D02*
X71195000Y20240000D01*
X76867500Y18970000D02*
X75597500Y20240000D01*
X80450000Y20240000D02*
X81720000Y18970000D01*
X86150000Y20540000D02*
X83290000Y20540000D01*
D45*
X86150000Y22700000D02*
X86150000Y18380000D01*
D46*
X80450000Y20240000D02*
X78137500Y20240000D01*
X71195000Y20240000D02*
X69925000Y18970000D01*
D10*
%TO.N,/SPI2_MISO*%
X46160000Y65960000D02*
X46160000Y48180000D01*
X49970000Y62150000D02*
X57220000Y54900000D01*
X46160000Y96000000D02*
X46160000Y65960000D01*
X81720000Y26590000D02*
X80450000Y25320000D01*
X69020000Y25320000D02*
X58860000Y35480000D01*
X66480000Y22780000D02*
X66480000Y4000000D01*
X46160000Y48180000D02*
X55050000Y39290000D01*
X80450000Y25320000D02*
X69020000Y25320000D01*
X57220000Y54900000D02*
X57220000Y47984000D01*
%TO.N,Net-(U3-REGOUT)*%
X57620000Y49343500D02*
X57620000Y47984000D01*
X58330500Y50054000D02*
X57620000Y49343500D01*
%TO.N,/SPI2_SCK*%
X43620000Y96000000D02*
X43620000Y76120000D01*
X80450000Y22780000D02*
X81720000Y24050000D01*
X56820000Y34980000D02*
X56820000Y42330000D01*
X69020000Y22780000D02*
X80450000Y22780000D01*
X69020000Y4000000D02*
X69020000Y22780000D01*
X56820000Y42330000D02*
X56820000Y44640000D01*
X43620000Y48180000D02*
X43620000Y76120000D01*
X56820000Y34980000D02*
X43620000Y48180000D01*
X69020000Y22780000D02*
X56820000Y34980000D01*
%TO.N,/SPI2_MOSI*%
X63940000Y4000000D02*
X63940000Y25320000D01*
X54415000Y42465000D02*
X55050000Y41830000D01*
X69020000Y27860000D02*
X58860000Y38020000D01*
X48700000Y96000000D02*
X48700000Y76120000D01*
X48700000Y48180000D02*
X54415000Y42465000D01*
X48700000Y76120000D02*
X48700000Y48180000D01*
X80450000Y27860000D02*
X81720000Y29130000D01*
X54415000Y42635000D02*
X54415000Y42465000D01*
X80450000Y27860000D02*
X69020000Y27860000D01*
X56420000Y44640000D02*
X54415000Y42635000D01*
D45*
%TO.N,Net-(Q1-D)*%
X33450000Y7098000D02*
X27282000Y7098000D01*
X27282000Y7098000D02*
X25570000Y8810000D01*
%TO.N,+VBattery*%
X36070000Y8048000D02*
X37022000Y8048000D01*
X38530000Y12274444D02*
X38530000Y6540000D01*
X35490000Y11350000D02*
X37605556Y11350000D01*
X43610000Y4000000D02*
X43610000Y10604000D01*
X37605556Y11350000D02*
X38530000Y12274444D01*
X38530000Y6540000D02*
X41070000Y4000000D01*
X43610000Y4000000D02*
X41070000Y4000000D01*
X37022000Y8048000D02*
X38530000Y6540000D01*
%TO.N,/GPIO_BatteryV_Enable*%
X20760000Y16430000D02*
X33450000Y16430000D01*
X33450000Y18960000D02*
X33440000Y18970000D01*
X33450000Y16430000D02*
X33450000Y18960000D01*
D46*
%TO.N,/BuckFB*%
X51224057Y17610048D02*
X51038500Y17610048D01*
X53541467Y15027500D02*
X53541467Y15292638D01*
X53541467Y15292638D02*
X51224057Y17610048D01*
D45*
X53541467Y15027500D02*
X53541467Y12852500D01*
X56828000Y15027500D02*
X53541467Y15027500D01*
D10*
%TO.N,/~{GPIO_StrainV_Enable_5VTolerant}*%
X18220000Y39290000D02*
X19490000Y38020000D01*
X22030000Y38020000D02*
X31364534Y47354534D01*
X19490000Y38020000D02*
X22030000Y38020000D01*
X27092500Y76130000D02*
X27102500Y76120000D01*
X31364534Y66785466D02*
X27102500Y71047500D01*
X27102500Y71047500D02*
X27102500Y76120000D01*
X31364534Y47354534D02*
X31364534Y66785466D01*
X27092500Y78980000D02*
X27092500Y76130000D01*
%TO.N,/GPIO_ANT_Reset*%
X77910000Y71870000D02*
X53780000Y96000000D01*
X77910000Y60880000D02*
X77910000Y71870000D01*
X79180000Y59610000D02*
X77910000Y60880000D01*
%TO.N,/GPIO_ANT_Enable*%
X82990000Y58340000D02*
X81720000Y57070000D01*
X80513500Y63356500D02*
X82990000Y60880000D01*
X82990000Y60880000D02*
X82990000Y58340000D01*
X38540000Y96000000D02*
X40504000Y97964000D01*
X40504000Y97964000D02*
X57463000Y97964000D01*
X57463000Y97964000D02*
X80513500Y74913500D01*
X80513500Y74913500D02*
X80513500Y63356500D01*
D46*
%TO.N,/GPInterruptPB6_MPU*%
X63940000Y48180000D02*
X58616000Y48180000D01*
X58616000Y48180000D02*
X58420000Y47984000D01*
X79180000Y39290000D02*
X72830000Y39290000D01*
X72830000Y39290000D02*
X63940000Y48180000D01*
D10*
%TO.N,/~{GPIO_MPU_SPI_CS}*%
X57220000Y44139982D02*
X64609982Y36750000D01*
X57220000Y44640000D02*
X57220000Y44139982D01*
X64609982Y36750000D02*
X79180000Y36750000D01*
%TO.N,/GPIO_ANT_SPI_CS*%
X51240000Y96000000D02*
X76640000Y70600000D01*
X76640000Y59610000D02*
X79180000Y57070000D01*
X76640000Y70600000D02*
X76640000Y59610000D01*
%TO.N,/GPIO_Extra_SPI_CS*%
X74100000Y2460000D02*
X74100000Y13890000D01*
X61400000Y4000000D02*
X64210000Y1190000D01*
X64210000Y1190000D02*
X72830000Y1190000D01*
X72830000Y1190000D02*
X74100000Y2460000D01*
X74100000Y13890000D02*
X79180000Y18970000D01*
D47*
%TO.N,Net-(U2-CB)*%
X51038500Y19517501D02*
X51038500Y19800467D01*
X51038500Y19800467D02*
X50366467Y20472500D01*
X50366467Y20472500D02*
X50371350Y20477383D01*
X50371350Y20477383D02*
X50371350Y21306800D01*
D45*
%TO.N,Net-(U2-EN)*%
X47618967Y18567500D02*
X46116467Y17065000D01*
X43610000Y12804000D02*
X43610000Y16733533D01*
X46116467Y17065000D02*
X43941467Y17065000D01*
X48285400Y18567500D02*
X47618967Y18567500D01*
X43610000Y16733533D02*
X43941467Y17065000D01*
X46116467Y17065000D02*
X46742867Y17691400D01*
X46742867Y17691400D02*
X48285400Y17691400D01*
%TO.N,Net-(Q1-G)*%
X33450000Y8998000D02*
X33450000Y14530000D01*
%TO.N,Net-(J20-Pin_3)*%
X23300000Y4000000D02*
X20760000Y4000000D01*
D46*
%TO.N,/GPInterruptPC8_ANT_DIO0*%
X81720000Y59610000D02*
X79180000Y62150000D01*
X42409000Y97329000D02*
X41080000Y96000000D01*
X79180000Y73453000D02*
X55304000Y97329000D01*
X55304000Y97329000D02*
X42409000Y97329000D01*
X79180000Y62150000D02*
X79180000Y73453000D01*
D45*
%TO.N,Net-(J6-Pin_2)*%
X9040000Y82000000D02*
X9310000Y82000000D01*
X9310000Y82000000D02*
X11850000Y79460000D01*
%TO.N,Net-(J7-Pin_2)*%
X9310000Y62363333D02*
X11850000Y59823333D01*
X9040000Y62363333D02*
X9310000Y62363333D01*
%TO.N,Net-(J8-Pin_2)*%
X9040000Y42726667D02*
X9310000Y42726667D01*
X9310000Y42726667D02*
X11850000Y40186667D01*
%TO.N,Net-(J9-Pin_2)*%
X9310000Y23090000D02*
X11850000Y20550000D01*
X9040000Y23090000D02*
X9310000Y23090000D01*
%TO.N,Net-(J10-Pin_2)*%
X90960000Y76910000D02*
X90690000Y76910000D01*
X90690000Y76910000D02*
X88150000Y79450000D01*
%TO.N,Net-(J11-Pin_2)*%
X90690000Y57273333D02*
X88150000Y59813333D01*
X90960000Y57273333D02*
X90690000Y57273333D01*
%TO.N,Net-(J12-Pin_2)*%
X90690000Y37636667D02*
X88150000Y40176667D01*
X90960000Y37636667D02*
X90690000Y37636667D01*
%TO.N,Net-(J13-Pin_2)*%
X90960000Y18000000D02*
X90690000Y18000000D01*
X90690000Y18000000D02*
X88150000Y20540000D01*
%TD*%
M02*
