M48
; DRILL file {KiCad 9.0.3} date 2025-08-16T16:26:42-0600
; FORMAT={-:-/ absolute / metric / decimal}
; #@! TF.CreationDate,2025-08-16T16:26:42-06:00
; #@! TF.GenerationSoftware,Kicad,Pcbnew,9.0.3
; #@! TF.FileFunction,Plated,1,4,PTH
FMAT,2
METRIC
; #@! TA.AperFunction,Plated,PTH,ViaDrill
T1C0.400
; #@! TA.AperFunction,Plated,PTH,ComponentDrill
T2C1.000
; #@! TA.AperFunction,Plated,PTH,ComponentDrill
T3C1.016
%
G90
G05
T1
X1.0Y82.0
X1.0Y62.363
X1.0Y42.678
X1.0Y23.09
X13.85Y86.445
X13.85Y72.475
X13.85Y66.808
X13.85Y52.838
X13.85Y47.172
X13.85Y33.202
X13.85Y27.535
X13.85Y13.565
X19.81Y81.492
X26.375Y26.59
X26.375Y24.05
X26.375Y21.51
X26.375Y18.97
X27.745Y13.89
X27.745Y11.35
X32.19Y89.65
X34.73Y89.65
X37.27Y89.65
X38.54Y17.065
X39.81Y89.65
X42.35Y89.65
X44.89Y89.65
X46.116Y13.525
X46.16Y65.96
X47.43Y89.65
X47.43Y65.96
X49.096Y16.027
X49.97Y89.65
X49.97Y63.42
X49.97Y62.15
X50.366Y16.027
X52.51Y89.65
X52.906Y18.567
X53.541Y12.852
X54.176Y18.567
X54.341Y51.55
X55.05Y89.65
X55.05Y41.83
X55.05Y39.29
X55.05Y38.02
X56.066Y51.55
X56.168Y41.83
X56.828Y24.13
X57.59Y35.48
X58.86Y39.29
X58.86Y38.02
X58.86Y35.48
X60.405Y51.62
X62.67Y10.35
X63.305Y47.154
X63.305Y45.079
X63.94Y26.59
X63.94Y25.32
X65.21Y10.35
X66.48Y29.13
X66.48Y22.78
X67.75Y29.13
X67.75Y22.78
X67.75Y10.35
X69.02Y25.32
X69.02Y24.05
X70.29Y10.35
X73.565Y54.53
X73.565Y44.37
X73.565Y31.67
X73.565Y18.97
X86.15Y86.435
X86.15Y72.465
X86.15Y66.798
X86.15Y52.828
X86.15Y47.162
X86.15Y33.192
X86.15Y27.525
X86.15Y13.555
X99.0Y76.91
X99.0Y57.273
X99.0Y37.637
X99.0Y18.0
T2
X6.5Y82.0
X6.5Y79.46
X6.5Y76.92
X6.5Y62.363
X6.5Y59.823
X6.5Y57.283
X6.5Y42.727
X6.5Y40.187
X6.5Y37.647
X6.5Y23.09
X6.5Y20.55
X6.5Y18.01
X9.04Y82.0
X9.04Y79.46
X9.04Y76.92
X9.04Y62.363
X9.04Y59.823
X9.04Y57.283
X9.04Y42.727
X9.04Y40.187
X9.04Y37.647
X9.04Y23.09
X9.04Y20.55
X9.04Y18.01
X15.68Y4.0
X18.22Y4.0
X20.76Y4.0
X23.3Y4.0
X33.46Y121.4
X33.46Y96.0
X36.0Y121.4
X36.0Y96.0
X38.53Y4.0
X38.54Y121.4
X38.54Y96.0
X41.07Y4.0
X41.08Y121.4
X41.08Y96.0
X43.61Y4.0
X43.62Y121.4
X43.62Y96.0
X46.15Y4.0
X46.16Y96.0
X48.7Y96.0
X51.24Y96.0
X52.561Y117.946
X53.78Y96.0
X61.4Y4.0
X63.94Y4.0
X66.48Y4.0
X69.02Y4.0
X71.56Y4.0
X76.2Y4.0
X78.74Y4.0
X81.28Y4.0
X83.82Y4.0
X86.36Y4.0
X90.96Y81.99
X90.96Y79.45
X90.96Y76.91
X90.96Y62.353
X90.96Y59.813
X90.96Y57.273
X90.96Y42.717
X90.96Y40.177
X90.96Y37.637
X90.96Y23.08
X90.96Y20.54
X90.96Y18.0
X93.5Y81.99
X93.5Y79.45
X93.5Y76.91
X93.5Y62.353
X93.5Y59.813
X93.5Y57.273
X93.5Y42.717
X93.5Y40.177
X93.5Y37.637
X93.5Y23.08
X93.5Y20.54
X93.5Y18.0
T3
X18.22Y87.55
X18.22Y85.01
X18.22Y59.61
X18.22Y57.07
X18.22Y54.53
X18.22Y51.99
X18.22Y49.45
X18.22Y46.91
X18.22Y44.37
X18.22Y41.83
X18.22Y39.29
X18.22Y36.75
X18.22Y34.21
X18.22Y31.67
X18.22Y29.13
X18.22Y26.59
X18.22Y24.05
X18.22Y21.51
X18.22Y18.97
X18.22Y16.43
X18.22Y13.89
X20.76Y59.61
X20.76Y57.07
X20.76Y54.53
X20.76Y51.99
X20.76Y49.45
X20.76Y46.91
X20.76Y44.37
X20.76Y41.83
X20.76Y39.29
X20.76Y36.75
X20.76Y34.21
X20.76Y31.67
X20.76Y29.13
X20.76Y26.59
X20.76Y24.05
X20.76Y21.51
X20.76Y18.97
X20.76Y16.43
X20.76Y13.89
X79.18Y59.61
X79.18Y57.07
X79.18Y54.53
X79.18Y51.99
X79.18Y49.45
X79.18Y46.91
X79.18Y44.37
X79.18Y41.83
X79.18Y39.29
X79.18Y36.75
X79.18Y34.21
X79.18Y31.67
X79.18Y29.13
X79.18Y26.59
X79.18Y24.05
X79.18Y21.51
X79.18Y18.97
X79.18Y16.43
X79.18Y13.89
X81.72Y87.55
X81.72Y85.01
X81.72Y59.61
X81.72Y57.07
X81.72Y54.53
X81.72Y51.99
X81.72Y49.45
X81.72Y46.91
X81.72Y44.37
X81.72Y41.83
X81.72Y39.29
X81.72Y36.75
X81.72Y34.21
X81.72Y31.67
X81.72Y29.13
X81.72Y26.59
X81.72Y24.05
X81.72Y21.51
X81.72Y18.97
X81.72Y16.43
X81.72Y13.89
M30
