%TF.GenerationSoftware,Altium Limited,Altium Designer,25.7.1 (20)*%
G04 Layer_Color=8421504*
%FSLAX45Y45*%
%MOMM*%
%TF.SameCoordinates,D7271FF7-ADEE-4A75-9EE6-9E67876EE782*%
%TF.FilePolarity,Positive*%
%TF.FileFunction,Paste,Top*%
%TF.Part,Single*%
G01*
G75*
%TA.AperFunction,SMDPad,CuDef*%
G04:AMPARAMS|DCode=32|XSize=0.958mm|YSize=1.858mm|CornerRadius=0.3035mm|HoleSize=0mm|Usage=FLASHONLY|Rotation=90.000|XOffset=0mm|YOffset=0mm|HoleType=Round|Shape=RoundedRectangle|*
%AMROUNDEDRECTD32*
21,1,0.95800,1.25100,0,0,90.0*
21,1,0.35100,1.85800,0,0,90.0*
1,1,0.60700,0.62550,0.17550*
1,1,0.60700,0.62550,-0.17550*
1,1,0.60700,-0.62550,-0.17550*
1,1,0.60700,-0.62550,0.17550*
%
%ADD32ROUNDEDRECTD32*%
%TA.AperFunction,ConnectorPad*%
%ADD33R,1.90800X1.75800*%
%TA.AperFunction,SMDPad,CuDef*%
%ADD34R,1.10800X1.70800*%
%ADD35R,1.75800X1.90800*%
%TA.AperFunction,ConnectorPad*%
%ADD36R,1.50800X1.85800*%
%TA.AperFunction,SMDPad,CuDef*%
%ADD37R,1.90800X1.75800*%
%ADD38R,1.50800X1.85800*%
D32*
X987386Y1318700D02*
D03*
X1432386Y1383700D02*
D03*
Y1513700D02*
D03*
X987386D02*
D03*
Y1383700D02*
D03*
X1432386Y1318700D02*
D03*
X987386Y1448700D02*
D03*
X1432386D02*
D03*
D33*
X1649319Y1678700D02*
D03*
Y1513700D02*
D03*
D34*
X1450000Y1065000D02*
D03*
Y815000D02*
D03*
X1355000Y1065000D02*
D03*
X1545000Y815000D02*
D03*
Y1065000D02*
D03*
X1355000Y815000D02*
D03*
D35*
X1009700Y1043940D02*
D03*
X786080Y881380D02*
D03*
X621080D02*
D03*
X1174700Y1043940D02*
D03*
D36*
X1790000Y610000D02*
D03*
X1610000D02*
D03*
D37*
X2082800Y685800D02*
D03*
Y850800D02*
D03*
D38*
X602820Y1301150D02*
D03*
Y1513700D02*
D03*
X1886880Y861060D02*
D03*
X1706880D02*
D03*
X1299886Y1705200D02*
D03*
X1119886D02*
D03*
X782820Y1513700D02*
D03*
Y1301150D02*
D03*
%TF.MD5,b538f1bbe2497069544a4a972b8683f3*%
M02*
