%TF.GenerationSoftware,Altium Limited,Altium Designer,25.7.1 (20)*%
G04 Layer_Physical_Order=2*
G04 Layer_Color=16711680*
%FSLAX45Y45*%
%MOMM*%
%TF.SameCoordinates,8EC0096B-1770-4E53-A1A5-517F8E17CF1D*%
%TF.FilePolarity,Positive*%
%TF.FileFunction,Copper,L2,Bot,Signal*%
%TF.Part,Single*%
G01*
G75*
%TA.AperFunction,ComponentPad*%
%ADD20C,1.60000*%
%ADD21C,1.72500*%
G04:AMPARAMS|DCode=22|XSize=1.6mm|YSize=1.6mm|CornerRadius=0.4mm|HoleSize=0mm|Usage=FLASHONLY|Rotation=270.000|XOffset=0mm|YOffset=0mm|HoleType=Round|Shape=RoundedRectangle|*
%AMROUNDEDRECTD22*
21,1,1.60000,0.80000,0,0,270.0*
21,1,0.80000,1.60000,0,0,270.0*
1,1,0.80000,-0.40000,-0.40000*
1,1,0.80000,-0.40000,0.40000*
1,1,0.80000,0.40000,0.40000*
1,1,0.80000,0.40000,-0.40000*
%
%ADD22ROUNDEDRECTD22*%
%ADD23R,1.72500X1.72500*%
%TA.AperFunction,WasherPad*%
%ADD24C,3.20000*%
%TA.AperFunction,ViaPad*%
%ADD25C,0.70000*%
G36*
X2323044Y2408119D02*
X2346157Y2398546D01*
X2366958Y2384647D01*
X2384647Y2366958D01*
X2398546Y2346157D01*
X2408119Y2323044D01*
X2413000Y2298508D01*
Y2286000D01*
Y254000D01*
Y241492D01*
X2408119Y216955D01*
X2398546Y193843D01*
X2384647Y173042D01*
X2366958Y155352D01*
X2346157Y141454D01*
X2323044Y131880D01*
X2298508Y127000D01*
X241492D01*
X216955Y131880D01*
X193843Y141454D01*
X173042Y155352D01*
X155352Y173042D01*
X141454Y193843D01*
X131880Y216955D01*
X127000Y241492D01*
Y254000D01*
Y2286000D01*
Y2298508D01*
X131880Y2323044D01*
X141454Y2346157D01*
X155352Y2366958D01*
X173042Y2384647D01*
X193843Y2398546D01*
X216955Y2408119D01*
X241492Y2413000D01*
X2298508D01*
X2323044Y2408119D01*
D02*
G37*
%LPC*%
G36*
X2150058Y2364400D02*
X2114602D01*
X2079826Y2357483D01*
X2047068Y2343914D01*
X2017587Y2324215D01*
X1992515Y2299143D01*
X1972816Y2269662D01*
X1959247Y2236904D01*
X1952330Y2202128D01*
Y2166672D01*
X1959247Y2131896D01*
X1972816Y2099138D01*
X1992515Y2069657D01*
X2017587Y2044585D01*
X2047068Y2024886D01*
X2079826Y2011317D01*
X2114602Y2004400D01*
X2150058D01*
X2184834Y2011317D01*
X2217592Y2024886D01*
X2247073Y2044585D01*
X2272145Y2069657D01*
X2291844Y2099138D01*
X2305413Y2131896D01*
X2312330Y2166672D01*
Y2202128D01*
X2305413Y2236904D01*
X2291844Y2269662D01*
X2272145Y2299143D01*
X2247073Y2324215D01*
X2217592Y2343914D01*
X2184834Y2357483D01*
X2150058Y2364400D01*
D02*
G37*
G36*
X373328D02*
X337872D01*
X303096Y2357483D01*
X270338Y2343914D01*
X240857Y2324215D01*
X215785Y2299143D01*
X196086Y2269662D01*
X182517Y2236904D01*
X175600Y2202128D01*
Y2166672D01*
X182517Y2131896D01*
X196086Y2099138D01*
X215785Y2069657D01*
X240857Y2044585D01*
X270338Y2024886D01*
X303096Y2011317D01*
X337872Y2004400D01*
X373328D01*
X408104Y2011317D01*
X440862Y2024886D01*
X470343Y2044585D01*
X495415Y2069657D01*
X515114Y2099138D01*
X528683Y2131896D01*
X535600Y2166672D01*
Y2202128D01*
X528683Y2236904D01*
X515114Y2269662D01*
X495415Y2299143D01*
X470343Y2324215D01*
X440862Y2343914D01*
X408104Y2357483D01*
X373328Y2364400D01*
D02*
G37*
G36*
X2072000Y1756964D02*
X2044701D01*
Y1663701D01*
X2137964D01*
Y1691000D01*
X2135717Y1708073D01*
X2129127Y1723982D01*
X2118644Y1737644D01*
X2104982Y1748127D01*
X2089073Y1754717D01*
X2072000Y1756964D01*
D02*
G37*
G36*
X2019301D02*
X1992000D01*
X1974927Y1754717D01*
X1959018Y1748127D01*
X1945356Y1737644D01*
X1934873Y1723982D01*
X1928283Y1708073D01*
X1926036Y1691000D01*
Y1663701D01*
X2019301D01*
Y1756964D01*
D02*
G37*
G36*
X464390Y1762330D02*
X251890D01*
Y1549830D01*
X464390D01*
Y1762330D01*
D02*
G37*
G36*
X2137964Y1638301D02*
X2044701D01*
Y1545036D01*
X2072000D01*
X2089073Y1547283D01*
X2104982Y1553873D01*
X2118644Y1564356D01*
X2129127Y1578018D01*
X2135717Y1593927D01*
X2137964Y1611000D01*
Y1638301D01*
D02*
G37*
G36*
X2019301D02*
X1926036D01*
Y1611000D01*
X1928283Y1593927D01*
X1934873Y1578018D01*
X1945356Y1564356D01*
X1959018Y1553873D01*
X1974927Y1547283D01*
X1992000Y1545036D01*
X2019301D01*
Y1638301D01*
D02*
G37*
G36*
X372839Y1513730D02*
X370841D01*
Y1414781D01*
X469790D01*
Y1416779D01*
X462181Y1445175D01*
X447482Y1470635D01*
X426695Y1491422D01*
X401235Y1506121D01*
X372839Y1513730D01*
D02*
G37*
G36*
X345441D02*
X343441D01*
X315045Y1506121D01*
X289585Y1491422D01*
X268798Y1470635D01*
X254099Y1445175D01*
X246490Y1416779D01*
Y1414781D01*
X345441D01*
Y1513730D01*
D02*
G37*
G36*
X2045165Y1497000D02*
X2018835D01*
X1993402Y1490185D01*
X1970599Y1477020D01*
X1951980Y1458401D01*
X1938815Y1435598D01*
X1932000Y1410165D01*
Y1383835D01*
X1938815Y1358402D01*
X1951980Y1335599D01*
X1970599Y1316980D01*
X1993402Y1303815D01*
X2018835Y1297000D01*
X2045165D01*
X2070598Y1303815D01*
X2093401Y1316980D01*
X2112020Y1335599D01*
X2125185Y1358402D01*
X2132000Y1383835D01*
Y1410165D01*
X2125185Y1435598D01*
X2112020Y1458401D01*
X2093401Y1477020D01*
X2070598Y1490185D01*
X2045165Y1497000D01*
D02*
G37*
G36*
X469790Y1389381D02*
X370841D01*
Y1290430D01*
X372839D01*
X401235Y1298039D01*
X426695Y1312738D01*
X447482Y1333525D01*
X462181Y1358985D01*
X469790Y1387381D01*
Y1389381D01*
D02*
G37*
G36*
X345441D02*
X246490D01*
Y1387381D01*
X254099Y1358985D01*
X268798Y1333525D01*
X289585Y1312738D01*
X315045Y1298039D01*
X343441Y1290430D01*
X345441D01*
Y1389381D01*
D02*
G37*
G36*
X2045165Y1243000D02*
X2018835D01*
X1993402Y1236185D01*
X1970599Y1223020D01*
X1951980Y1204401D01*
X1938815Y1181598D01*
X1932000Y1156165D01*
Y1129835D01*
X1938815Y1104402D01*
X1951980Y1081599D01*
X1970599Y1062980D01*
X1993402Y1049815D01*
X2018835Y1043000D01*
X2045165D01*
X2070598Y1049815D01*
X2093401Y1062980D01*
X2112020Y1081599D01*
X2125185Y1104402D01*
X2132000Y1129835D01*
Y1156165D01*
X2125185Y1181598D01*
X2112020Y1204401D01*
X2093401Y1223020D01*
X2070598Y1236185D01*
X2045165Y1243000D01*
D02*
G37*
G36*
X372128Y1254330D02*
X344152D01*
X317129Y1247089D01*
X292901Y1233101D01*
X273119Y1213319D01*
X259131Y1189091D01*
X251890Y1162068D01*
Y1134092D01*
X259131Y1107069D01*
X273119Y1082841D01*
X292901Y1063059D01*
X317129Y1049071D01*
X344152Y1041830D01*
X372128D01*
X399151Y1049071D01*
X423379Y1063059D01*
X443161Y1082841D01*
X457149Y1107069D01*
X464390Y1134092D01*
Y1162068D01*
X457149Y1189091D01*
X443161Y1213319D01*
X423379Y1233101D01*
X399151Y1247089D01*
X372128Y1254330D01*
D02*
G37*
G36*
Y1000330D02*
X344152D01*
X317129Y993089D01*
X292901Y979101D01*
X273119Y959319D01*
X259131Y935091D01*
X251890Y908068D01*
Y880092D01*
X259131Y853069D01*
X273119Y828841D01*
X292901Y809059D01*
X317129Y795071D01*
X344152Y787830D01*
X372128D01*
X399151Y795071D01*
X423379Y809059D01*
X443161Y828841D01*
X457149Y853069D01*
X464390Y880092D01*
Y908068D01*
X457149Y935091D01*
X443161Y959319D01*
X423379Y979101D01*
X399151Y993089D01*
X372128Y1000330D01*
D02*
G37*
G36*
X2147518Y510180D02*
X2112062D01*
X2077286Y503263D01*
X2044528Y489694D01*
X2015047Y469995D01*
X1989975Y444923D01*
X1970276Y415442D01*
X1956707Y382684D01*
X1949790Y347909D01*
Y312452D01*
X1956707Y277676D01*
X1970276Y244918D01*
X1989975Y215437D01*
X2015047Y190365D01*
X2044528Y170666D01*
X2077286Y157097D01*
X2112062Y150180D01*
X2147518D01*
X2182294Y157097D01*
X2215052Y170666D01*
X2244533Y190365D01*
X2269605Y215437D01*
X2289304Y244918D01*
X2302873Y277676D01*
X2309790Y312452D01*
Y347909D01*
X2302873Y382684D01*
X2289304Y415442D01*
X2269605Y444923D01*
X2244533Y469995D01*
X2215052Y489694D01*
X2182294Y503263D01*
X2147518Y510180D01*
D02*
G37*
G36*
X373328D02*
X337872D01*
X303096Y503263D01*
X270338Y489694D01*
X240857Y469995D01*
X215785Y444923D01*
X196086Y415442D01*
X182517Y382684D01*
X175600Y347909D01*
Y312452D01*
X182517Y277676D01*
X196086Y244918D01*
X215785Y215437D01*
X240857Y190365D01*
X270338Y170666D01*
X303096Y157097D01*
X337872Y150180D01*
X373328D01*
X408104Y157097D01*
X440862Y170666D01*
X470343Y190365D01*
X495415Y215437D01*
X515114Y244918D01*
X528683Y277676D01*
X535600Y312452D01*
Y347909D01*
X528683Y382684D01*
X515114Y415442D01*
X495415Y444923D01*
X470343Y469995D01*
X440862Y489694D01*
X408104Y503263D01*
X373328Y510180D01*
D02*
G37*
%LPD*%
D20*
X2032000Y1143000D02*
D03*
Y1397000D02*
D03*
D21*
X358140Y894080D02*
D03*
Y1402080D02*
D03*
Y1148080D02*
D03*
D22*
X2032000Y1651000D02*
D03*
D23*
X358140Y1656080D02*
D03*
D24*
X2129790Y330180D02*
D03*
X355600D02*
D03*
X2132330Y2184400D02*
D03*
X355600D02*
D03*
D25*
X1643380Y1803400D02*
D03*
X2214880Y683260D02*
D03*
X1619250Y370136D02*
D03*
X1447800Y1201420D02*
D03*
X980440Y1231900D02*
D03*
X995680Y909320D02*
D03*
X1445260Y723900D02*
D03*
X772160Y736600D02*
D03*
%TF.MD5,9bb1424a815aad6a9c73878d3aecbb77*%
M02*
