%TF.GenerationSoftware,KiCad,Pcbnew,9.0.3*%
%TF.CreationDate,2025-08-17T09:50:08-06:00*%
%TF.ProjectId,Amplifier,416d706c-6966-4696-9572-2e6b69636164,rev?*%
%TF.SameCoordinates,Original*%
%TF.FileFunction,Soldermask,Top*%
%TF.FilePolarity,Negative*%
%FSLAX46Y46*%
G04 Gerber Fmt 4.6, Leading zero omitted, Abs format (unit mm)*
G04 Created by KiCad (PCBNEW 9.0.3) date 2025-08-17 09:50:08*
%MOMM*%
%LPD*%
G01*
G04 APERTURE LIST*
G04 Aperture macros list*
%AMRoundRect*
0 Rectangle with rounded corners*
0 $1 Rounding radius*
0 $2 $3 $4 $5 $6 $7 $8 $9 X,Y pos of 4 corners*
0 Add a 4 corners polygon primitive as box body*
4,1,4,$2,$3,$4,$5,$6,$7,$8,$9,$2,$3,0*
0 Add four circle primitives for the rounded corners*
1,1,$1+$1,$2,$3*
1,1,$1+$1,$4,$5*
1,1,$1+$1,$6,$7*
1,1,$1+$1,$8,$9*
0 Add four rect primitives between the rounded corners*
20,1,$1+$1,$2,$3,$4,$5,0*
20,1,$1+$1,$4,$5,$6,$7,0*
20,1,$1+$1,$6,$7,$8,$9,0*
20,1,$1+$1,$8,$9,$2,$3,0*%
%AMOutline4P*
0 Free polygon, 4 corners , with rotation*
0 The origin of the aperture is its center*
0 number of corners: always 4*
0 $1 to $8 corner X, Y*
0 $9 Rotation angle, in degrees counterclockwise*
0 create outline with 4 corners*
4,1,4,$1,$2,$3,$4,$5,$6,$7,$8,$1,$2,$9*%
G04 Aperture macros list end*
%ADD10RoundRect,0.250000X-0.337500X-0.475000X0.337500X-0.475000X0.337500X0.475000X-0.337500X0.475000X0*%
%ADD11RoundRect,0.250000X0.600000X0.600000X-0.600000X0.600000X-0.600000X-0.600000X0.600000X-0.600000X0*%
%ADD12C,1.700000*%
%ADD13RoundRect,0.072500X-0.712500X-0.217500X0.712500X-0.217500X0.712500X0.217500X-0.712500X0.217500X0*%
%ADD14RoundRect,0.250000X0.450000X-0.350000X0.450000X0.350000X-0.450000X0.350000X-0.450000X-0.350000X0*%
%ADD15Outline4P,-1.000000X-0.500000X1.000000X-0.500000X1.000000X0.500000X-1.000000X0.500000X180.000000*%
%ADD16RoundRect,0.250000X0.350000X0.450000X-0.350000X0.450000X-0.350000X-0.450000X0.350000X-0.450000X0*%
%ADD17RoundRect,0.250000X-0.450000X0.350000X-0.450000X-0.350000X0.450000X-0.350000X0.450000X0.350000X0*%
%ADD18RoundRect,0.150000X-0.150000X0.512500X-0.150000X-0.512500X0.150000X-0.512500X0.150000X0.512500X0*%
%ADD19RoundRect,0.250000X-0.350000X-0.450000X0.350000X-0.450000X0.350000X0.450000X-0.350000X0.450000X0*%
%ADD20RoundRect,0.250000X0.337500X0.475000X-0.337500X0.475000X-0.337500X-0.475000X0.337500X-0.475000X0*%
G04 APERTURE END LIST*
D10*
%TO.C,C2*%
X145612500Y-117474000D03*
X147687500Y-117474000D03*
%TD*%
D11*
%TO.C,S1*%
X155000000Y-117400000D03*
D12*
X152460000Y-117400000D03*
X155000000Y-114860000D03*
X152460000Y-114860000D03*
X155000000Y-112320000D03*
X152460000Y-112320000D03*
%TD*%
D13*
%TO.C,U1*%
X135250000Y-113775000D03*
X135250000Y-114425000D03*
X135250000Y-115075000D03*
X135250000Y-115725000D03*
X139550000Y-115725000D03*
X139550000Y-115075000D03*
X139550000Y-114425000D03*
X139550000Y-113775000D03*
%TD*%
D14*
%TO.C,R5*%
X145650000Y-114500000D03*
X145650000Y-112500000D03*
%TD*%
D15*
%TO.C,S2*%
X130975000Y-117625000D03*
X130975000Y-115875000D03*
X130975000Y-114125000D03*
X130975000Y-112375000D03*
%TD*%
D16*
%TO.C,R3*%
X143737500Y-112000000D03*
X141737500Y-112000000D03*
%TD*%
D17*
%TO.C,R6*%
X147650000Y-112500000D03*
X147650000Y-114500000D03*
%TD*%
D18*
%TO.C,U2*%
X143600000Y-114586500D03*
X142650000Y-114586500D03*
X141700000Y-114586500D03*
X141700000Y-116861500D03*
X142650000Y-116861500D03*
X143600000Y-116861500D03*
%TD*%
D19*
%TO.C,R2*%
X133900000Y-112000000D03*
X135900000Y-112000000D03*
%TD*%
D16*
%TO.C,R1*%
X139650000Y-112000000D03*
X137650000Y-112000000D03*
%TD*%
D20*
%TO.C,C1*%
X139687500Y-117500000D03*
X137612500Y-117500000D03*
%TD*%
D16*
%TO.C,R4*%
X135823100Y-117500000D03*
X133823100Y-117500000D03*
%TD*%
M02*
