%TF.GenerationSoftware,KiCad,Pcbnew,9.0.3*%
%TF.CreationDate,2025-08-17T09:50:08-06:00*%
%TF.ProjectId,Amplifier,416d706c-6966-4696-9572-2e6b69636164,rev?*%
%TF.SameCoordinates,Original*%
%TF.FileFunction,Copper,L1,Top*%
%TF.FilePolarity,Positive*%
%FSLAX46Y46*%
G04 Gerber Fmt 4.6, Leading zero omitted, Abs format (unit mm)*
G04 Created by KiCad (PCBNEW 9.0.3) date 2025-08-17 09:50:08*
%MOMM*%
%LPD*%
G01*
G04 APERTURE LIST*
G04 Aperture macros list*
%AMRoundRect*
0 Rectangle with rounded corners*
0 $1 Rounding radius*
0 $2 $3 $4 $5 $6 $7 $8 $9 X,Y pos of 4 corners*
0 Add a 4 corners polygon primitive as box body*
4,1,4,$2,$3,$4,$5,$6,$7,$8,$9,$2,$3,0*
0 Add four circle primitives for the rounded corners*
1,1,$1+$1,$2,$3*
1,1,$1+$1,$4,$5*
1,1,$1+$1,$6,$7*
1,1,$1+$1,$8,$9*
0 Add four rect primitives between the rounded corners*
20,1,$1+$1,$2,$3,$4,$5,0*
20,1,$1+$1,$4,$5,$6,$7,0*
20,1,$1+$1,$6,$7,$8,$9,0*
20,1,$1+$1,$8,$9,$2,$3,0*%
%AMOutline4P*
0 Free polygon, 4 corners , with rotation*
0 The origin of the aperture is its center*
0 number of corners: always 4*
0 $1 to $8 corner X, Y*
0 $9 Rotation angle, in degrees counterclockwise*
0 create outline with 4 corners*
4,1,4,$1,$2,$3,$4,$5,$6,$7,$8,$1,$2,$9*%
G04 Aperture macros list end*
%TA.AperFunction,SMDPad,CuDef*%
%ADD10RoundRect,0.250000X-0.337500X-0.475000X0.337500X-0.475000X0.337500X0.475000X-0.337500X0.475000X0*%
%TD*%
%TA.AperFunction,ComponentPad*%
%ADD11RoundRect,0.250000X0.600000X0.600000X-0.600000X0.600000X-0.600000X-0.600000X0.600000X-0.600000X0*%
%TD*%
%TA.AperFunction,ComponentPad*%
%ADD12C,1.700000*%
%TD*%
%TA.AperFunction,SMDPad,CuDef*%
%ADD13RoundRect,0.060000X-0.675000X-0.180000X0.675000X-0.180000X0.675000X0.180000X-0.675000X0.180000X0*%
%TD*%
%TA.AperFunction,SMDPad,CuDef*%
%ADD14RoundRect,0.250000X0.450000X-0.350000X0.450000X0.350000X-0.450000X0.350000X-0.450000X-0.350000X0*%
%TD*%
%TA.AperFunction,SMDPad,CuDef*%
%ADD15Outline4P,-1.000000X-0.500000X1.000000X-0.500000X1.000000X0.500000X-1.000000X0.500000X180.000000*%
%TD*%
%TA.AperFunction,SMDPad,CuDef*%
%ADD16RoundRect,0.250000X0.350000X0.450000X-0.350000X0.450000X-0.350000X-0.450000X0.350000X-0.450000X0*%
%TD*%
%TA.AperFunction,SMDPad,CuDef*%
%ADD17RoundRect,0.250000X-0.450000X0.350000X-0.450000X-0.350000X0.450000X-0.350000X0.450000X0.350000X0*%
%TD*%
%TA.AperFunction,SMDPad,CuDef*%
%ADD18RoundRect,0.150000X-0.150000X0.512500X-0.150000X-0.512500X0.150000X-0.512500X0.150000X0.512500X0*%
%TD*%
%TA.AperFunction,SMDPad,CuDef*%
%ADD19RoundRect,0.250000X-0.350000X-0.450000X0.350000X-0.450000X0.350000X0.450000X-0.350000X0.450000X0*%
%TD*%
%TA.AperFunction,SMDPad,CuDef*%
%ADD20RoundRect,0.250000X0.337500X0.475000X-0.337500X0.475000X-0.337500X-0.475000X0.337500X-0.475000X0*%
%TD*%
%TA.AperFunction,ViaPad*%
%ADD21C,0.600000*%
%TD*%
%TA.AperFunction,Conductor*%
%ADD22C,0.200000*%
%TD*%
G04 APERTURE END LIST*
D10*
%TO.P,C2,1*%
%TO.N,+5V*%
X145612500Y-117474000D03*
%TO.P,C2,2*%
%TO.N,GND*%
X147687500Y-117474000D03*
%TD*%
D11*
%TO.P,S1,1,Pin_1*%
%TO.N,GND*%
X155000000Y-117400000D03*
D12*
%TO.P,S1,2,Pin_2*%
%TO.N,Net-(S1-Pin_2)*%
X152460000Y-117400000D03*
%TO.P,S1,3,Pin_3*%
%TO.N,+5V*%
X155000000Y-114860000D03*
%TO.P,S1,4,Pin_4*%
%TO.N,unconnected-(S1-Pin_4-Pad4)*%
X152460000Y-114860000D03*
%TO.P,S1,5,Pin_5*%
%TO.N,unconnected-(S1-Pin_5-Pad5)*%
X155000000Y-112320000D03*
%TO.P,S1,6,Pin_6*%
%TO.N,unconnected-(S1-Pin_6-Pad6)*%
X152460000Y-112320000D03*
%TD*%
D13*
%TO.P,U1,1,RG*%
%TO.N,Net-(R1-Pad2)*%
X135250000Y-113775000D03*
%TO.P,U1,2,VIN-*%
%TO.N,Net-(U1-VIN-)*%
X135250000Y-114425000D03*
%TO.P,U1,3,VIN+*%
%TO.N,Net-(U1-VIN+)*%
X135250000Y-115075000D03*
%TO.P,U1,4,V-*%
%TO.N,GND*%
X135250000Y-115725000D03*
%TO.P,U1,5,REF*%
%TO.N,Net-(U1-REF)*%
X139550000Y-115725000D03*
%TO.P,U1,6,VOUT*%
%TO.N,Net-(U1-VOUT)*%
X139550000Y-115075000D03*
%TO.P,U1,7,V+*%
%TO.N,+5V*%
X139550000Y-114425000D03*
%TO.P,U1,8,RG*%
%TO.N,Net-(R1-Pad1)*%
X139550000Y-113775000D03*
%TD*%
D14*
%TO.P,R5,1*%
%TO.N,+5V*%
X145650000Y-114500000D03*
%TO.P,R5,2*%
%TO.N,Net-(U2-IN+)*%
X145650000Y-112500000D03*
%TD*%
D15*
%TO.P,S2,1,Pin_1*%
%TO.N,+5V*%
X130975000Y-117625000D03*
%TO.P,S2,2,Pin_2*%
%TO.N,/strainAIN_D+*%
X130975000Y-115875000D03*
%TO.P,S2,3,Pin_3*%
%TO.N,GND*%
X130975000Y-114125000D03*
%TO.P,S2,4,Pin_4*%
%TO.N,/strainAIN_D-*%
X130975000Y-112375000D03*
%TD*%
D16*
%TO.P,R3,1*%
%TO.N,Net-(S1-Pin_2)*%
X143737500Y-112000000D03*
%TO.P,R3,2*%
%TO.N,Net-(U1-VOUT)*%
X141737500Y-112000000D03*
%TD*%
D17*
%TO.P,R6,1*%
%TO.N,Net-(U2-IN+)*%
X147650000Y-112500000D03*
%TO.P,R6,2*%
%TO.N,GND*%
X147650000Y-114500000D03*
%TD*%
D18*
%TO.P,U2,1,OUT*%
%TO.N,Net-(U1-REF)*%
X143600000Y-114586500D03*
%TO.P,U2,2,V-*%
%TO.N,GND*%
X142650000Y-114586500D03*
%TO.P,U2,3,IN+*%
%TO.N,Net-(U2-IN+)*%
X141700000Y-114586500D03*
%TO.P,U2,4,IN-*%
%TO.N,Net-(U1-REF)*%
X141700000Y-116861500D03*
%TO.P,U2,5*%
%TO.N,GND*%
X142650000Y-116861500D03*
%TO.P,U2,6,V+*%
%TO.N,+5V*%
X143600000Y-116861500D03*
%TD*%
D19*
%TO.P,R2,1*%
%TO.N,/strainAIN_D-*%
X133900000Y-112000000D03*
%TO.P,R2,2*%
%TO.N,Net-(U1-VIN-)*%
X135900000Y-112000000D03*
%TD*%
D16*
%TO.P,R1,1*%
%TO.N,Net-(R1-Pad1)*%
X139650000Y-112000000D03*
%TO.P,R1,2*%
%TO.N,Net-(R1-Pad2)*%
X137650000Y-112000000D03*
%TD*%
D20*
%TO.P,C1,1*%
%TO.N,+5V*%
X139687500Y-117500000D03*
%TO.P,C1,2*%
%TO.N,GND*%
X137612500Y-117500000D03*
%TD*%
D16*
%TO.P,R4,1*%
%TO.N,Net-(U1-VIN+)*%
X135823100Y-117500000D03*
%TO.P,R4,2*%
%TO.N,/strainAIN_D+*%
X133823100Y-117500000D03*
%TD*%
D21*
%TO.N,GND*%
X133200000Y-114900000D03*
X136731000Y-115158200D03*
X147650000Y-115900000D03*
%TD*%
D22*
%TO.N,+5V*%
X147000000Y-118861500D02*
X147000000Y-118900000D01*
X139650000Y-117500000D02*
X138150000Y-116000000D01*
X145612500Y-117474000D02*
X147000000Y-118861500D01*
X138150000Y-115090001D02*
X138815001Y-114425000D01*
X138815001Y-114425000D02*
X139550000Y-114425000D01*
X139700000Y-117500000D02*
X141000000Y-118800000D01*
X156500000Y-116360000D02*
X156500000Y-118400000D01*
X138150000Y-116000000D02*
X138150000Y-115090001D01*
X144400000Y-118800000D02*
X141000000Y-118800000D01*
X144212500Y-117474000D02*
X143600000Y-116861500D01*
X156000000Y-118900000D02*
X148500000Y-118900000D01*
X139687500Y-117500000D02*
X139687500Y-117537500D01*
X156500000Y-118400000D02*
X156000000Y-118900000D01*
X145612500Y-114537500D02*
X145650000Y-114500000D01*
X139687500Y-117500000D02*
X138387500Y-118800000D01*
X147000000Y-118900000D02*
X148500000Y-118900000D01*
X145612500Y-117587500D02*
X144400000Y-118800000D01*
X132475000Y-118800000D02*
X130975000Y-117300000D01*
X145612500Y-117474000D02*
X145612500Y-117587500D01*
X138387500Y-118800000D02*
X132475000Y-118800000D01*
X155000000Y-114860000D02*
X156500000Y-116360000D01*
X139687500Y-117500000D02*
X139650000Y-117500000D01*
X139687500Y-117500000D02*
X139700000Y-117500000D01*
X145612500Y-117474000D02*
X144212500Y-117474000D01*
X145612500Y-117474000D02*
X145612500Y-114537500D01*
%TO.N,GND*%
X144549000Y-113500000D02*
X144400000Y-113649000D01*
X142650000Y-116861500D02*
X142650000Y-116199001D01*
X136731000Y-115158200D02*
X136731000Y-115331000D01*
X144400000Y-115300000D02*
X144400000Y-113649000D01*
X132425000Y-114125000D02*
X133200000Y-114900000D01*
X144251000Y-113500000D02*
X144400000Y-113649000D01*
X147650000Y-117436500D02*
X147687500Y-117474000D01*
X142650000Y-113924001D02*
X142650000Y-114586500D01*
X136375000Y-115725000D02*
X135250000Y-115725000D01*
X147650000Y-114500000D02*
X146650000Y-113500000D01*
X147650000Y-115900000D02*
X147650000Y-117436500D01*
X142949001Y-115900000D02*
X143800000Y-115900000D01*
X143074001Y-113500000D02*
X144251000Y-113500000D01*
X143800000Y-115900000D02*
X144400000Y-115300000D01*
X136731000Y-115158200D02*
X136731000Y-115369000D01*
X142650000Y-116199001D02*
X142949001Y-115900000D01*
X136731000Y-115331000D02*
X137612500Y-116212500D01*
X144549000Y-113500000D02*
X143074001Y-113500000D01*
X130975000Y-114125000D02*
X132425000Y-114125000D01*
X136781800Y-115158200D02*
X136800000Y-115176400D01*
X143074001Y-113500000D02*
X142650000Y-113924001D01*
X136731000Y-115369000D02*
X136375000Y-115725000D01*
X146650000Y-113500000D02*
X144549000Y-113500000D01*
X147650000Y-114500000D02*
X147650000Y-115900000D01*
X137612500Y-116212500D02*
X137612500Y-117500000D01*
X136800000Y-115176400D02*
X136800000Y-115300000D01*
X136731000Y-115158200D02*
X136781800Y-115158200D01*
%TO.N,Net-(R1-Pad1)*%
X139550000Y-113775000D02*
X139550000Y-112100000D01*
X139550000Y-112100000D02*
X139650000Y-112000000D01*
%TO.N,Net-(R1-Pad2)*%
X135250000Y-113775000D02*
X135875000Y-113775000D01*
X135875000Y-113775000D02*
X137650000Y-112000000D01*
%TO.N,/strainAIN_D-*%
X133100000Y-112800000D02*
X133900000Y-112000000D01*
X130975000Y-112800000D02*
X133100000Y-112800000D01*
%TO.N,Net-(U1-VIN-)*%
X134150000Y-113500000D02*
X135650000Y-112000000D01*
X135650000Y-112000000D02*
X135900000Y-112000000D01*
X134150000Y-114000000D02*
X134150000Y-113500000D01*
X134575000Y-114425000D02*
X134150000Y-114000000D01*
X135250000Y-114425000D02*
X134575000Y-114425000D01*
%TO.N,/strainAIN_D+*%
X133823100Y-117423100D02*
X132400000Y-116000000D01*
X133823100Y-117500000D02*
X133823100Y-117423100D01*
X132400000Y-116000000D02*
X130401000Y-116000000D01*
%TO.N,Net-(U1-VIN+)*%
X134515001Y-115075000D02*
X135250000Y-115075000D01*
X135823100Y-117500000D02*
X135400000Y-117500000D01*
X134150000Y-116250000D02*
X134150000Y-115440001D01*
X134150000Y-115440001D02*
X134515001Y-115075000D01*
X135400000Y-117500000D02*
X134150000Y-116250000D01*
%TO.N,Net-(U2-IN+)*%
X141700000Y-114586500D02*
X141700000Y-113924001D01*
X142624001Y-113000000D02*
X145150000Y-113000000D01*
X147498000Y-112348000D02*
X147650000Y-112500000D01*
X145150000Y-113000000D02*
X145650000Y-112500000D01*
X141700000Y-113924001D02*
X142624001Y-113000000D01*
X147650000Y-112500000D02*
X145650000Y-112500000D01*
%TO.N,Net-(U1-VOUT)*%
X139550000Y-115075000D02*
X139593000Y-115118000D01*
X140900000Y-112837500D02*
X140900000Y-114500000D01*
X141737500Y-112000000D02*
X140900000Y-112837500D01*
X140900000Y-114500000D02*
X140325000Y-115075000D01*
X140325000Y-115075000D02*
X139550000Y-115075000D01*
%TO.N,Net-(U1-REF)*%
X141700000Y-116500000D02*
X142697600Y-115502400D01*
X141700000Y-116861500D02*
X140563500Y-115725000D01*
X140563500Y-115725000D02*
X139550000Y-115725000D01*
X143600000Y-115248999D02*
X143600000Y-114586500D01*
X142697600Y-115502400D02*
X143346599Y-115502400D01*
X141700000Y-116861500D02*
X141700000Y-116500000D01*
X143346599Y-115502400D02*
X143600000Y-115248999D01*
X141700000Y-116725001D02*
X141700000Y-117387500D01*
%TO.N,Net-(S1-Pin_2)*%
X143737500Y-111912500D02*
X143737500Y-112000000D01*
X151000000Y-115940000D02*
X151000000Y-112400000D01*
X143400000Y-112000000D02*
X143800000Y-111600000D01*
X149725000Y-111125000D02*
X144612500Y-111125000D01*
X151000000Y-112400000D02*
X149725000Y-111125000D01*
X144612500Y-111125000D02*
X143737500Y-112000000D01*
X152460000Y-117400000D02*
X151000000Y-115940000D01*
%TD*%
M02*
