%TF.GenerationSoftware,KiCad,Pcbnew,9.0.3*%
%TF.CreationDate,2025-08-16T16:24:49-06:00*%
%TF.ProjectId,Amplifier,416d706c-6966-4696-9572-2e6b69636164,rev?*%
%TF.SameCoordinates,Original*%
%TF.FileFunction,Copper,L2,Bot*%
%TF.FilePolarity,Positive*%
%FSLAX46Y46*%
G04 Gerber Fmt 4.6, Leading zero omitted, Abs format (unit mm)*
G04 Created by KiCad (PCBNEW 9.0.3) date 2025-08-16 16:24:49*
%MOMM*%
%LPD*%
G01*
G04 APERTURE LIST*
G04 Aperture macros list*
%AMRoundRect*
0 Rectangle with rounded corners*
0 $1 Rounding radius*
0 $2 $3 $4 $5 $6 $7 $8 $9 X,Y pos of 4 corners*
0 Add a 4 corners polygon primitive as box body*
4,1,4,$2,$3,$4,$5,$6,$7,$8,$9,$2,$3,0*
0 Add four circle primitives for the rounded corners*
1,1,$1+$1,$2,$3*
1,1,$1+$1,$4,$5*
1,1,$1+$1,$6,$7*
1,1,$1+$1,$8,$9*
0 Add four rect primitives between the rounded corners*
20,1,$1+$1,$2,$3,$4,$5,0*
20,1,$1+$1,$4,$5,$6,$7,0*
20,1,$1+$1,$6,$7,$8,$9,0*
20,1,$1+$1,$8,$9,$2,$3,0*%
G04 Aperture macros list end*
%TA.AperFunction,ComponentPad*%
%ADD10RoundRect,0.250000X0.600000X0.600000X-0.600000X0.600000X-0.600000X-0.600000X0.600000X-0.600000X0*%
%TD*%
%TA.AperFunction,ComponentPad*%
%ADD11C,1.700000*%
%TD*%
%TA.AperFunction,ViaPad*%
%ADD12C,0.600000*%
%TD*%
G04 APERTURE END LIST*
D10*
%TO.P,S1,1,Pin_1*%
%TO.N,GND*%
X155000000Y-117400000D03*
D11*
%TO.P,S1,2,Pin_2*%
%TO.N,Net-(S1-Pin_2)*%
X152460000Y-117400000D03*
%TO.P,S1,3,Pin_3*%
%TO.N,+5V*%
X155000000Y-114860000D03*
%TO.P,S1,4,Pin_4*%
%TO.N,unconnected-(S1-Pin_4-Pad4)*%
X152460000Y-114860000D03*
%TO.P,S1,5,Pin_5*%
%TO.N,unconnected-(S1-Pin_5-Pad5)*%
X155000000Y-112320000D03*
%TO.P,S1,6,Pin_6*%
%TO.N,unconnected-(S1-Pin_6-Pad6)*%
X152460000Y-112320000D03*
%TD*%
D12*
%TO.N,GND*%
X147650000Y-115900000D03*
X136731000Y-115158200D03*
X133200000Y-114900000D03*
%TD*%
%TA.AperFunction,Conductor*%
%TO.N,GND*%
G36*
X156506061Y-110901097D02*
G01*
X156624317Y-110912744D01*
X156648145Y-110917483D01*
X156756005Y-110950202D01*
X156778453Y-110959501D01*
X156877849Y-111012629D01*
X156898059Y-111026133D01*
X156985179Y-111097630D01*
X157002369Y-111114820D01*
X157073866Y-111201940D01*
X157087370Y-111222150D01*
X157138122Y-111317100D01*
X157140495Y-111321538D01*
X157149798Y-111343997D01*
X157182514Y-111451848D01*
X157187256Y-111475688D01*
X157193688Y-111540996D01*
X157198903Y-111593937D01*
X157199500Y-111606092D01*
X157199500Y-118393907D01*
X157198903Y-118406061D01*
X157198903Y-118406062D01*
X157187256Y-118524311D01*
X157182514Y-118548151D01*
X157149798Y-118656002D01*
X157140495Y-118678461D01*
X157087370Y-118777849D01*
X157073866Y-118798059D01*
X157002369Y-118885179D01*
X156985179Y-118902369D01*
X156898059Y-118973866D01*
X156877849Y-118987370D01*
X156778461Y-119040495D01*
X156756002Y-119049798D01*
X156648151Y-119082514D01*
X156624311Y-119087256D01*
X156537215Y-119095834D01*
X156506060Y-119098903D01*
X156493907Y-119099500D01*
X131006093Y-119099500D01*
X130993939Y-119098903D01*
X130943081Y-119093893D01*
X130875688Y-119087256D01*
X130851848Y-119082514D01*
X130743997Y-119049798D01*
X130721541Y-119040496D01*
X130622150Y-118987370D01*
X130601940Y-118973866D01*
X130514820Y-118902369D01*
X130497630Y-118885179D01*
X130426133Y-118798059D01*
X130412629Y-118777849D01*
X130373441Y-118704534D01*
X130359501Y-118678453D01*
X130350201Y-118656002D01*
X130317483Y-118548145D01*
X130312744Y-118524317D01*
X130301097Y-118406061D01*
X130300500Y-118393907D01*
X130300500Y-117301218D01*
X151457100Y-117301218D01*
X151457100Y-117498781D01*
X151495638Y-117692527D01*
X151495641Y-117692536D01*
X151571237Y-117875043D01*
X151571243Y-117875054D01*
X151680997Y-118039314D01*
X151820685Y-118179002D01*
X151820688Y-118179004D01*
X151984949Y-118288759D01*
X152167465Y-118364359D01*
X152167467Y-118364359D01*
X152167472Y-118364361D01*
X152361218Y-118402899D01*
X152361221Y-118402900D01*
X152361223Y-118402900D01*
X152558779Y-118402900D01*
X152558780Y-118402899D01*
X152623363Y-118390053D01*
X152752527Y-118364361D01*
X152752530Y-118364359D01*
X152752535Y-118364359D01*
X152935051Y-118288759D01*
X153099312Y-118179004D01*
X153239004Y-118039312D01*
X153348759Y-117875051D01*
X153424359Y-117692535D01*
X153462900Y-117498777D01*
X153462900Y-117301223D01*
X153462900Y-117301220D01*
X153462899Y-117301218D01*
X153424361Y-117107472D01*
X153424358Y-117107463D01*
X153348762Y-116924956D01*
X153348761Y-116924955D01*
X153348759Y-116924949D01*
X153239004Y-116760688D01*
X153239002Y-116760685D01*
X153099314Y-116620997D01*
X152935054Y-116511243D01*
X152935053Y-116511242D01*
X152935051Y-116511241D01*
X152935048Y-116511239D01*
X152935043Y-116511237D01*
X152752536Y-116435641D01*
X152752527Y-116435638D01*
X152558780Y-116397100D01*
X152558777Y-116397100D01*
X152361223Y-116397100D01*
X152361220Y-116397100D01*
X152167472Y-116435638D01*
X152167463Y-116435641D01*
X151984956Y-116511237D01*
X151984945Y-116511243D01*
X151820685Y-116620997D01*
X151680997Y-116760685D01*
X151571243Y-116924945D01*
X151571237Y-116924956D01*
X151495641Y-117107463D01*
X151495638Y-117107472D01*
X151457100Y-117301218D01*
X130300500Y-117301218D01*
X130300500Y-114761218D01*
X151457100Y-114761218D01*
X151457100Y-114958781D01*
X151495638Y-115152527D01*
X151495641Y-115152536D01*
X151571237Y-115335043D01*
X151571243Y-115335054D01*
X151680997Y-115499314D01*
X151820685Y-115639002D01*
X151820688Y-115639004D01*
X151984949Y-115748759D01*
X152167465Y-115824359D01*
X152167467Y-115824359D01*
X152167472Y-115824361D01*
X152361218Y-115862899D01*
X152361221Y-115862900D01*
X152361223Y-115862900D01*
X152558779Y-115862900D01*
X152558780Y-115862899D01*
X152623363Y-115850053D01*
X152752527Y-115824361D01*
X152752530Y-115824359D01*
X152752535Y-115824359D01*
X152935051Y-115748759D01*
X153099312Y-115639004D01*
X153239004Y-115499312D01*
X153348759Y-115335051D01*
X153424359Y-115152535D01*
X153462900Y-114958777D01*
X153462900Y-114761223D01*
X153462900Y-114761220D01*
X153462899Y-114761218D01*
X153997100Y-114761218D01*
X153997100Y-114958781D01*
X154035638Y-115152527D01*
X154035641Y-115152536D01*
X154111237Y-115335043D01*
X154111243Y-115335054D01*
X154220997Y-115499314D01*
X154360685Y-115639002D01*
X154360688Y-115639004D01*
X154524949Y-115748759D01*
X154707465Y-115824359D01*
X154707467Y-115824359D01*
X154707472Y-115824361D01*
X154901218Y-115862899D01*
X154901221Y-115862900D01*
X154901223Y-115862900D01*
X155098779Y-115862900D01*
X155098780Y-115862899D01*
X155163363Y-115850053D01*
X155292527Y-115824361D01*
X155292530Y-115824359D01*
X155292535Y-115824359D01*
X155475051Y-115748759D01*
X155639312Y-115639004D01*
X155779004Y-115499312D01*
X155888759Y-115335051D01*
X155964359Y-115152535D01*
X156002900Y-114958777D01*
X156002900Y-114761223D01*
X156002900Y-114761220D01*
X156002899Y-114761218D01*
X155964361Y-114567472D01*
X155964358Y-114567463D01*
X155888762Y-114384956D01*
X155888761Y-114384955D01*
X155888759Y-114384949D01*
X155779004Y-114220688D01*
X155779002Y-114220685D01*
X155639314Y-114080997D01*
X155475054Y-113971243D01*
X155475053Y-113971242D01*
X155475051Y-113971241D01*
X155475048Y-113971239D01*
X155475043Y-113971237D01*
X155292536Y-113895641D01*
X155292527Y-113895638D01*
X155098780Y-113857100D01*
X155098777Y-113857100D01*
X154901223Y-113857100D01*
X154901220Y-113857100D01*
X154707472Y-113895638D01*
X154707463Y-113895641D01*
X154524956Y-113971237D01*
X154524945Y-113971243D01*
X154360685Y-114080997D01*
X154220997Y-114220685D01*
X154111243Y-114384945D01*
X154111237Y-114384956D01*
X154035641Y-114567463D01*
X154035638Y-114567472D01*
X153997100Y-114761218D01*
X153462899Y-114761218D01*
X153424361Y-114567472D01*
X153424358Y-114567463D01*
X153348762Y-114384956D01*
X153348761Y-114384955D01*
X153348759Y-114384949D01*
X153239004Y-114220688D01*
X153239002Y-114220685D01*
X153099314Y-114080997D01*
X152935054Y-113971243D01*
X152935053Y-113971242D01*
X152935051Y-113971241D01*
X152935048Y-113971239D01*
X152935043Y-113971237D01*
X152752536Y-113895641D01*
X152752527Y-113895638D01*
X152558780Y-113857100D01*
X152558777Y-113857100D01*
X152361223Y-113857100D01*
X152361220Y-113857100D01*
X152167472Y-113895638D01*
X152167463Y-113895641D01*
X151984956Y-113971237D01*
X151984945Y-113971243D01*
X151820685Y-114080997D01*
X151680997Y-114220685D01*
X151571243Y-114384945D01*
X151571237Y-114384956D01*
X151495641Y-114567463D01*
X151495638Y-114567472D01*
X151457100Y-114761218D01*
X130300500Y-114761218D01*
X130300500Y-112221218D01*
X151457100Y-112221218D01*
X151457100Y-112418781D01*
X151495638Y-112612527D01*
X151495641Y-112612536D01*
X151571237Y-112795043D01*
X151571243Y-112795054D01*
X151680997Y-112959314D01*
X151820685Y-113099002D01*
X151820688Y-113099004D01*
X151984949Y-113208759D01*
X152167465Y-113284359D01*
X152167467Y-113284359D01*
X152167472Y-113284361D01*
X152361218Y-113322899D01*
X152361221Y-113322900D01*
X152361223Y-113322900D01*
X152558779Y-113322900D01*
X152558780Y-113322899D01*
X152623363Y-113310053D01*
X152752527Y-113284361D01*
X152752530Y-113284359D01*
X152752535Y-113284359D01*
X152935051Y-113208759D01*
X153099312Y-113099004D01*
X153239004Y-112959312D01*
X153348759Y-112795051D01*
X153424359Y-112612535D01*
X153462900Y-112418777D01*
X153462900Y-112221223D01*
X153462900Y-112221220D01*
X153462899Y-112221218D01*
X153997100Y-112221218D01*
X153997100Y-112418781D01*
X154035638Y-112612527D01*
X154035641Y-112612536D01*
X154111237Y-112795043D01*
X154111243Y-112795054D01*
X154220997Y-112959314D01*
X154360685Y-113099002D01*
X154360688Y-113099004D01*
X154524949Y-113208759D01*
X154707465Y-113284359D01*
X154707467Y-113284359D01*
X154707472Y-113284361D01*
X154901218Y-113322899D01*
X154901221Y-113322900D01*
X154901223Y-113322900D01*
X155098779Y-113322900D01*
X155098780Y-113322899D01*
X155163363Y-113310053D01*
X155292527Y-113284361D01*
X155292530Y-113284359D01*
X155292535Y-113284359D01*
X155475051Y-113208759D01*
X155639312Y-113099004D01*
X155779004Y-112959312D01*
X155888759Y-112795051D01*
X155964359Y-112612535D01*
X156002900Y-112418777D01*
X156002900Y-112221223D01*
X156002900Y-112221220D01*
X156002899Y-112221218D01*
X155964361Y-112027472D01*
X155964358Y-112027463D01*
X155888762Y-111844956D01*
X155888761Y-111844955D01*
X155888759Y-111844949D01*
X155779004Y-111680688D01*
X155779002Y-111680685D01*
X155639314Y-111540997D01*
X155475054Y-111431243D01*
X155475053Y-111431242D01*
X155475051Y-111431241D01*
X155475048Y-111431239D01*
X155475043Y-111431237D01*
X155292536Y-111355641D01*
X155292527Y-111355638D01*
X155098780Y-111317100D01*
X155098777Y-111317100D01*
X154901223Y-111317100D01*
X154901220Y-111317100D01*
X154707472Y-111355638D01*
X154707463Y-111355641D01*
X154524956Y-111431237D01*
X154524945Y-111431243D01*
X154360685Y-111540997D01*
X154220997Y-111680685D01*
X154111243Y-111844945D01*
X154111237Y-111844956D01*
X154035641Y-112027463D01*
X154035638Y-112027472D01*
X153997100Y-112221218D01*
X153462899Y-112221218D01*
X153424361Y-112027472D01*
X153424358Y-112027463D01*
X153348762Y-111844956D01*
X153348761Y-111844955D01*
X153348759Y-111844949D01*
X153239004Y-111680688D01*
X153239002Y-111680685D01*
X153099314Y-111540997D01*
X152935054Y-111431243D01*
X152935053Y-111431242D01*
X152935051Y-111431241D01*
X152935048Y-111431239D01*
X152935043Y-111431237D01*
X152752536Y-111355641D01*
X152752527Y-111355638D01*
X152558780Y-111317100D01*
X152558777Y-111317100D01*
X152361223Y-111317100D01*
X152361220Y-111317100D01*
X152167472Y-111355638D01*
X152167463Y-111355641D01*
X151984956Y-111431237D01*
X151984945Y-111431243D01*
X151820685Y-111540997D01*
X151680997Y-111680685D01*
X151571243Y-111844945D01*
X151571237Y-111844956D01*
X151495641Y-112027463D01*
X151495638Y-112027472D01*
X151457100Y-112221218D01*
X130300500Y-112221218D01*
X130300500Y-111606092D01*
X130301097Y-111593938D01*
X130301097Y-111593937D01*
X130312744Y-111475678D01*
X130317483Y-111451856D01*
X130350203Y-111343990D01*
X130359499Y-111321549D01*
X130412632Y-111222144D01*
X130426133Y-111201940D01*
X130497635Y-111114814D01*
X130514814Y-111097635D01*
X130601942Y-111026131D01*
X130622144Y-111012632D01*
X130721549Y-110959499D01*
X130743990Y-110950203D01*
X130851856Y-110917483D01*
X130875682Y-110912744D01*
X130975730Y-110902890D01*
X130993940Y-110901097D01*
X131006093Y-110900500D01*
X131047595Y-110900500D01*
X156452405Y-110900500D01*
X156493907Y-110900500D01*
X156506061Y-110901097D01*
G37*
%TD.AperFunction*%
%TD*%
M02*
