%TF.GenerationSoftware,Altium Limited,Altium Designer,25.7.1 (20)*%
G04 Layer_Physical_Order=1*
G04 Layer_Color=255*
%FSLAX45Y45*%
%MOMM*%
%TF.SameCoordinates,8EC0096B-1770-4E53-A1A5-517F8E17CF1D*%
%TF.FilePolarity,Positive*%
%TF.FileFunction,Copper,L1,Top,Signal*%
%TF.Part,Single*%
G01*
G75*
%TA.AperFunction,SMDPad,CuDef*%
%ADD10R,1.00000X1.35000*%
%ADD11R,1.40000X1.25000*%
%ADD12R,1.25000X1.40000*%
%ADD13R,0.60000X1.20000*%
G04:AMPARAMS|DCode=14|XSize=0.45mm|YSize=1.35mm|CornerRadius=0.0495mm|HoleSize=0mm|Usage=FLASHONLY|Rotation=90.000|XOffset=0mm|YOffset=0mm|HoleType=Round|Shape=RoundedRectangle|*
%AMROUNDEDRECTD14*
21,1,0.45000,1.25100,0,0,90.0*
21,1,0.35100,1.35000,0,0,90.0*
1,1,0.09900,0.62550,0.17550*
1,1,0.09900,0.62550,-0.17550*
1,1,0.09900,-0.62550,-0.17550*
1,1,0.09900,-0.62550,0.17550*
%
%ADD14ROUNDEDRECTD14*%
%ADD15R,1.35000X1.00000*%
%TA.AperFunction,Conductor*%
%ADD16C,0.40000*%
%ADD17C,1.00000*%
%ADD18C,0.50000*%
%ADD19C,0.30000*%
%TA.AperFunction,ComponentPad*%
%ADD20C,1.60000*%
%ADD21C,1.72500*%
G04:AMPARAMS|DCode=22|XSize=1.6mm|YSize=1.6mm|CornerRadius=0.4mm|HoleSize=0mm|Usage=FLASHONLY|Rotation=270.000|XOffset=0mm|YOffset=0mm|HoleType=Round|Shape=RoundedRectangle|*
%AMROUNDEDRECTD22*
21,1,1.60000,0.80000,0,0,270.0*
21,1,0.80000,1.60000,0,0,270.0*
1,1,0.80000,-0.40000,-0.40000*
1,1,0.80000,-0.40000,0.40000*
1,1,0.80000,0.40000,0.40000*
1,1,0.80000,0.40000,-0.40000*
%
%ADD22ROUNDEDRECTD22*%
%ADD23R,1.72500X1.72500*%
%TA.AperFunction,WasherPad*%
%ADD24C,3.20000*%
%TA.AperFunction,ViaPad*%
%ADD25C,0.70000*%
G36*
X1498436Y1697105D02*
Y1678700D01*
X1499886Y1677250D01*
Y1496150D01*
X1499886Y1496150D01*
X1380662Y1493025D01*
X1366336Y1506981D01*
Y1529800D01*
X1364886Y1531250D01*
X1374886Y1541250D01*
Y1610200D01*
X1349886Y1635200D01*
Y1637700D01*
X1249886D01*
Y1772700D01*
X1422841D01*
X1498436Y1697105D01*
D02*
G37*
G36*
X1169886Y1637700D02*
X1053207D01*
X1031707Y1616200D01*
Y1554429D01*
X1054886Y1531250D01*
Y1496150D01*
X1049936Y1491200D01*
X924836D01*
X919886Y1496150D01*
Y1513700D01*
Y1705200D01*
X987386Y1772700D01*
X1169886D01*
Y1637700D01*
D02*
G37*
G36*
X566420Y1579880D02*
X652780D01*
Y1447800D01*
X556260D01*
X553720Y1445260D01*
X424180Y1574800D01*
X287020D01*
X276860Y1584960D01*
Y1734820D01*
X406400D01*
X408940Y1737360D01*
X566420Y1579880D01*
D02*
G37*
G36*
X880760Y1491222D02*
X919886Y1466250D01*
X924428Y1470792D01*
X924836Y1470711D01*
X1049936D01*
X1054886Y1451605D01*
Y1427480D01*
X891540D01*
X832820Y1446200D01*
X732820D01*
Y1581200D01*
X832820D01*
X880760Y1491222D01*
D02*
G37*
G36*
X2161540Y1292860D02*
X1663700D01*
X1592580Y1363980D01*
X1376078D01*
X1362414Y1378585D01*
X1363980Y1402080D01*
X1496060D01*
X1498600Y1404620D01*
X1501140Y1402080D01*
X1595120D01*
X1612900Y1419860D01*
X1930400D01*
Y1484848D01*
X1932940Y1485900D01*
X2161540D01*
Y1292860D01*
D02*
G37*
G36*
X1049556Y1400870D02*
X1053117Y1387959D01*
X1053436Y1386175D01*
Y1362650D01*
X926286D01*
X925324Y1361688D01*
X924836D01*
X922380Y1361200D01*
X914886D01*
X910089Y1356403D01*
X906848Y1354237D01*
X904682Y1350996D01*
X857820Y1304134D01*
Y1258650D01*
X832820Y1233650D01*
X732820D01*
Y1368650D01*
X921336Y1404750D01*
X1035486D01*
X1049556Y1400870D01*
D02*
G37*
G36*
X2463800Y1795780D02*
Y792480D01*
X2458720Y787400D01*
X1986280D01*
Y500380D01*
X1912620Y426720D01*
Y185420D01*
X1783080Y55880D01*
X944880D01*
X215900Y784860D01*
Y1023620D01*
X464820D01*
X538480Y949960D01*
X683260D01*
Y673100D01*
X734060Y622300D01*
X982980D01*
X1112520Y751840D01*
Y1137920D01*
X1130416Y1143000D01*
X1379220D01*
Y1026160D01*
X1378168Y1023620D01*
X1323340D01*
Y988060D01*
X1259840Y924560D01*
Y541020D01*
X1521460Y279400D01*
X1701800D01*
X1752600Y330200D01*
Y706120D01*
X1818640Y772160D01*
Y904240D01*
X1816100Y906780D01*
X1905000Y995680D01*
Y1259840D01*
X1976058D01*
X1978243Y1256763D01*
X1972474Y1230338D01*
X1967283Y1227341D01*
X1947659Y1207717D01*
X1933783Y1183683D01*
X1926600Y1156876D01*
Y1155701D01*
X2032001D01*
X2137400D01*
Y1156876D01*
X2130217Y1183683D01*
X2116341Y1207717D01*
X2096717Y1227341D01*
X2091526Y1230338D01*
X2085757Y1256763D01*
X2087942Y1259840D01*
X2199640D01*
Y1798320D01*
X1887220D01*
Y1447800D01*
X1630889D01*
X1623235Y1466278D01*
X1649285Y1492328D01*
X1654680D01*
X1662484Y1493880D01*
X1669099Y1498301D01*
X1673520Y1504916D01*
X1674984Y1512281D01*
X1675874Y1513612D01*
X1677426Y1521416D01*
X1675874Y1529219D01*
X1671454Y1535835D01*
X1664838Y1540255D01*
X1657034Y1541808D01*
X1649231Y1540255D01*
X1642615Y1535835D01*
X1639657Y1532877D01*
X1633035Y1531560D01*
X1626419Y1527139D01*
X1626419Y1527138D01*
X1597784Y1498504D01*
X1579470Y1506541D01*
X1582420Y1577340D01*
X1717040D01*
X1735900Y1596200D01*
X1739318D01*
Y1599618D01*
X1757680Y1617980D01*
Y1831340D01*
X1912620Y1986280D01*
X2273300D01*
X2463800Y1795780D01*
D02*
G37*
G36*
X652780Y1234440D02*
X558800D01*
X393700Y1069340D01*
X276860D01*
Y1226820D01*
X279400Y1229360D01*
X436880D01*
Y1252220D01*
X553720Y1369060D01*
X652780D01*
Y1234440D01*
D02*
G37*
G36*
X1663700Y1254760D02*
Y1115060D01*
X1569720Y1021080D01*
X1511300D01*
Y1140460D01*
X1549400Y1178560D01*
Y1242060D01*
X1493520Y1297940D01*
X1366520D01*
Y1341120D01*
X1577340D01*
X1663700Y1254760D01*
D02*
G37*
G36*
X1737360Y772160D02*
X1684020Y718820D01*
Y609600D01*
X1551940D01*
X1511300Y650240D01*
Y774700D01*
Y891540D01*
X1623060D01*
X1638300Y906780D01*
X1737360D01*
Y772160D01*
D02*
G37*
%LPC*%
G36*
X2137400Y1130301D02*
X2044701D01*
Y1037600D01*
X2045876D01*
X2072683Y1044783D01*
X2096717Y1058659D01*
X2116341Y1078283D01*
X2130217Y1102317D01*
X2137400Y1129124D01*
Y1130301D01*
D02*
G37*
G36*
X2019301D02*
X1926600D01*
Y1129124D01*
X1933783Y1102317D01*
X1947659Y1078283D01*
X1967283Y1058659D01*
X1991317Y1044783D01*
X2018124Y1037600D01*
X2019301D01*
Y1130301D01*
D02*
G37*
G36*
X372016Y999480D02*
X370841D01*
Y906781D01*
X463540D01*
Y907956D01*
X456357Y934763D01*
X442481Y958797D01*
X422857Y978421D01*
X398823Y992297D01*
X372016Y999480D01*
D02*
G37*
G36*
X345441D02*
X344264D01*
X317457Y992297D01*
X293423Y978421D01*
X273799Y958797D01*
X259923Y934763D01*
X252740Y907956D01*
Y906781D01*
X345441D01*
Y999480D01*
D02*
G37*
G36*
X463540Y881381D02*
X370841D01*
Y788680D01*
X372016D01*
X398823Y795863D01*
X422857Y809739D01*
X442481Y829363D01*
X456357Y853397D01*
X463540Y880204D01*
Y881381D01*
D02*
G37*
G36*
X345441D02*
X252740D01*
Y880204D01*
X259923Y853397D01*
X273799Y829363D01*
X293423Y809739D01*
X317457Y795863D01*
X344264Y788680D01*
X345441D01*
Y881381D01*
D02*
G37*
%LPD*%
D10*
X1688000Y838954D02*
D03*
X1868000D02*
D03*
X1299886Y1705200D02*
D03*
X1119886D02*
D03*
X782820Y1513700D02*
D03*
Y1301150D02*
D03*
X602820D02*
D03*
Y1513700D02*
D03*
D11*
X2082800Y850800D02*
D03*
X1649319Y1513700D02*
D03*
Y1678700D02*
D03*
X2082800Y685800D02*
D03*
D12*
X621080Y881380D02*
D03*
X1173480Y1069340D02*
D03*
X1008480D02*
D03*
X786080Y881380D02*
D03*
D13*
X1351698Y1082161D02*
D03*
X1541698Y832161D02*
D03*
X1446698Y1082161D02*
D03*
Y832161D02*
D03*
X1541698Y1082161D02*
D03*
X1351698Y832161D02*
D03*
D14*
X1432386Y1448700D02*
D03*
X987386Y1318700D02*
D03*
X1432386Y1383700D02*
D03*
Y1513700D02*
D03*
X987386D02*
D03*
Y1383700D02*
D03*
X1432386Y1318700D02*
D03*
X987386Y1448700D02*
D03*
D15*
X1616710Y659696D02*
D03*
Y479696D02*
D03*
D16*
X1432386Y1448700D02*
X1576818D01*
X1640838Y1512720D01*
X1654680D01*
X1649319Y1513700D02*
X1657034Y1521416D01*
X1643933Y1681197D02*
X1646431Y1678700D01*
X1649319D01*
D17*
X1643380Y1681750D02*
Y1803400D01*
X1643933Y1681197D02*
X1648189Y1685453D01*
X1643380Y1681750D02*
X1646431Y1678700D01*
X2082800Y685800D02*
X2214880D01*
X995980Y1056840D02*
X1008480Y1069340D01*
X995980Y909620D02*
Y1056840D01*
X995680Y909320D02*
X995980Y909620D01*
X773580Y868880D02*
X786080Y881380D01*
X773580Y738020D02*
Y868880D01*
X772160Y736600D02*
X773580Y738020D01*
D18*
X1447249Y1200869D02*
X1447800Y1201420D01*
X1447249Y1082712D02*
Y1200869D01*
X1446698Y1082161D02*
X1447249Y1082712D01*
X1445979Y724619D02*
Y831442D01*
X1616710Y479696D02*
X1617980Y478426D01*
X1445979Y831442D02*
X1446698Y832161D01*
X1617980Y371406D02*
X1619250Y370136D01*
X1617980Y371406D02*
Y478426D01*
X1445260Y723900D02*
X1445979Y724619D01*
X1536698Y1077161D02*
X1541698Y1082161D01*
X1348740Y828040D02*
X1356698Y835998D01*
Y914738D01*
X1406622Y964662D01*
X1505682D01*
X1536698Y995678D01*
Y1077161D01*
D19*
X980440Y1311754D02*
X987386Y1318700D01*
X980440Y1231900D02*
Y1311754D01*
X772160Y880050D02*
X773299Y881190D01*
D20*
X2032000Y1143000D02*
D03*
Y1397000D02*
D03*
D21*
X358140Y894080D02*
D03*
Y1402080D02*
D03*
Y1148080D02*
D03*
D22*
X2032000Y1651000D02*
D03*
D23*
X358140Y1656080D02*
D03*
D24*
X2129790Y330180D02*
D03*
X355600D02*
D03*
X2132330Y2184400D02*
D03*
X355600D02*
D03*
D25*
X1643380Y1803400D02*
D03*
X2214880Y683260D02*
D03*
X1619250Y370136D02*
D03*
X1447800Y1201420D02*
D03*
X980440Y1231900D02*
D03*
X995680Y909320D02*
D03*
X1445260Y723900D02*
D03*
X772160Y736600D02*
D03*
%TF.MD5,d2a9baab9f7db904ce81e2eb6ad6bf57*%
M02*
