%TF.GenerationSoftware,Altium Limited,Altium Designer,25.7.1 (20)*%
G04 Layer_Color=2752767*
%FSLAX45Y45*%
%MOMM*%
%TF.SameCoordinates,D7271FF7-ADEE-4A75-9EE6-9E67876EE782*%
%TF.FilePolarity,Positive*%
%TF.FileFunction,Drawing*%
%TF.Part,Single*%
G01*
G75*
%TA.AperFunction,NonConductor*%
%ADD48C,0.12700*%
%ADD49C,0.16933*%
D48*
X335280Y1358900D02*
Y1460500D01*
X436880D01*
Y1358900D01*
X335280D01*
X1589200Y1759200D02*
Y1860800D01*
X1690800D01*
Y1759200D01*
X1589200D01*
X1399200Y1129200D02*
Y1230800D01*
X1500800D01*
Y1129200D01*
X1399200D01*
X2163740Y633900D02*
Y735500D01*
X2265340D01*
Y633900D01*
X2163740D01*
X932180Y1178560D02*
Y1280160D01*
X1033780D01*
Y1178560D01*
X932180D01*
X734060Y690880D02*
Y792480D01*
X835660D01*
Y690880D01*
X734060D01*
X955040Y868680D02*
Y970280D01*
X1056640D01*
Y868680D01*
X955040D01*
X1399540Y650240D02*
Y751840D01*
X1501140D01*
Y650240D01*
X1399540D01*
X1846580Y556260D02*
Y657860D01*
X1948180D01*
Y556260D01*
X1846580D01*
D49*
X2082800Y1651000D02*
G03*
X2082800Y1651000I-50800J0D01*
G01*
Y1143000D02*
G03*
X2082800Y1143000I-50800J0D01*
G01*
Y1397000D02*
G03*
X2082800Y1397000I-50800J0D01*
G01*
%TF.MD5,5f474692329c4fe7693a9885236247f1*%
M02*
