%TF.GenerationSoftware,Altium Limited,Altium Designer,25.7.1 (20)*%
G04 Layer_Color=255*
%FSLAX45Y45*%
%MOMM*%
%TF.SameCoordinates,8EC0096B-1770-4E53-A1A5-517F8E17CF1D*%
%TF.FilePolarity,Positive*%
%TF.FileFunction,Pads,Top*%
%TF.Part,Single*%
G01*
G75*
%TA.AperFunction,SMDPad,CuDef*%
%ADD10R,1.00000X1.35000*%
%ADD11R,1.40000X1.25000*%
%ADD12R,1.25000X1.40000*%
%ADD13R,0.60000X1.20000*%
G04:AMPARAMS|DCode=14|XSize=0.45mm|YSize=1.35mm|CornerRadius=0.0495mm|HoleSize=0mm|Usage=FLASHONLY|Rotation=90.000|XOffset=0mm|YOffset=0mm|HoleType=Round|Shape=RoundedRectangle|*
%AMROUNDEDRECTD14*
21,1,0.45000,1.25100,0,0,90.0*
21,1,0.35100,1.35000,0,0,90.0*
1,1,0.09900,0.62550,0.17550*
1,1,0.09900,0.62550,-0.17550*
1,1,0.09900,-0.62550,-0.17550*
1,1,0.09900,-0.62550,0.17550*
%
%ADD14ROUNDEDRECTD14*%
%ADD15R,1.35000X1.00000*%
%TA.AperFunction,ComponentPad*%
%ADD20C,1.60000*%
%ADD21C,1.72500*%
G04:AMPARAMS|DCode=22|XSize=1.6mm|YSize=1.6mm|CornerRadius=0.4mm|HoleSize=0mm|Usage=FLASHONLY|Rotation=270.000|XOffset=0mm|YOffset=0mm|HoleType=Round|Shape=RoundedRectangle|*
%AMROUNDEDRECTD22*
21,1,1.60000,0.80000,0,0,270.0*
21,1,0.80000,1.60000,0,0,270.0*
1,1,0.80000,-0.40000,-0.40000*
1,1,0.80000,-0.40000,0.40000*
1,1,0.80000,0.40000,0.40000*
1,1,0.80000,0.40000,-0.40000*
%
%ADD22ROUNDEDRECTD22*%
%ADD23R,1.72500X1.72500*%
%TA.AperFunction,WasherPad*%
%ADD24C,3.20000*%
D10*
X1688000Y838954D02*
D03*
X1868000D02*
D03*
X1299886Y1705200D02*
D03*
X1119886D02*
D03*
X782820Y1513700D02*
D03*
Y1301150D02*
D03*
X602820D02*
D03*
Y1513700D02*
D03*
D11*
X2082800Y850800D02*
D03*
X1649319Y1513700D02*
D03*
Y1678700D02*
D03*
X2082800Y685800D02*
D03*
D12*
X621080Y881380D02*
D03*
X1173480Y1069340D02*
D03*
X1008480D02*
D03*
X786080Y881380D02*
D03*
D13*
X1351698Y1082161D02*
D03*
X1541698Y832161D02*
D03*
X1446698Y1082161D02*
D03*
Y832161D02*
D03*
X1541698Y1082161D02*
D03*
X1351698Y832161D02*
D03*
D14*
X1432386Y1448700D02*
D03*
X987386Y1318700D02*
D03*
X1432386Y1383700D02*
D03*
Y1513700D02*
D03*
X987386D02*
D03*
Y1383700D02*
D03*
X1432386Y1318700D02*
D03*
X987386Y1448700D02*
D03*
D15*
X1616710Y659696D02*
D03*
Y479696D02*
D03*
D20*
X2032000Y1143000D02*
D03*
Y1397000D02*
D03*
D21*
X358140Y894080D02*
D03*
Y1402080D02*
D03*
Y1148080D02*
D03*
D22*
X2032000Y1651000D02*
D03*
D23*
X358140Y1656080D02*
D03*
D24*
X2129790Y330180D02*
D03*
X355600D02*
D03*
X2132330Y2184400D02*
D03*
X355600D02*
D03*
%TF.MD5,b4321c405e6f942b94e0d5837b5259dd*%
M02*
