%TF.GenerationSoftware,Altium Limited,Altium Designer,25.7.1 (20)*%
G04 Layer_Color=32896*
%FSLAX45Y45*%
%MOMM*%
%TF.SameCoordinates,D7271FF7-ADEE-4A75-9EE6-9E67876EE782*%
%TF.FilePolarity,Positive*%
%TF.FileFunction,Legend,Bot*%
%TF.Part,Single*%
G01*
G75*
%TA.AperFunction,NonConductor*%
%ADD30C,0.25400*%
D30*
X2074616Y954734D02*
X2087112Y967230D01*
X2112104D01*
X2124600Y954734D01*
Y942238D01*
X2112104Y929742D01*
X2087112D01*
X2074616Y917246D01*
Y904750D01*
X2087112Y892254D01*
X2112104D01*
X2124600Y904750D01*
X2049624Y967230D02*
X1999640D01*
X2024632D01*
Y892254D01*
X1974648D02*
Y967230D01*
X1937160D01*
X1924664Y954734D01*
Y929742D01*
X1937160Y917246D01*
X1974648D01*
X1949656D02*
X1924664Y892254D01*
X1899672D02*
Y942238D01*
X1874680Y967230D01*
X1849688Y942238D01*
Y892254D01*
Y929742D01*
X1899672D01*
X1824696Y967230D02*
X1799704D01*
X1812200D01*
Y892254D01*
X1824696D01*
X1799704D01*
X1762216D02*
Y967230D01*
X1712232Y892254D01*
Y967230D01*
X1612264Y892254D02*
Y942238D01*
X1587272Y967230D01*
X1562280Y942238D01*
Y892254D01*
Y929742D01*
X1612264D01*
X1537288Y892254D02*
Y967230D01*
X1512296Y942238D01*
X1487304Y967230D01*
Y892254D01*
X1462312D02*
Y967230D01*
X1424824D01*
X1412328Y954734D01*
Y929742D01*
X1424824Y917246D01*
X1462312D01*
X1387336Y967230D02*
Y892254D01*
X1337352D01*
X1312360Y967230D02*
X1287368D01*
X1299864D01*
Y892254D01*
X1312360D01*
X1287368D01*
X1199897Y967230D02*
X1249880D01*
Y929742D01*
X1224888D01*
X1249880D01*
Y892254D01*
X1174904Y967230D02*
X1149912D01*
X1162408D01*
Y892254D01*
X1174904D01*
X1149912D01*
X1062441Y967230D02*
X1112424D01*
Y892254D01*
X1062441D01*
X1112424Y929742D02*
X1087432D01*
X1037449Y892254D02*
Y967230D01*
X999961D01*
X987465Y954734D01*
Y929742D01*
X999961Y917246D01*
X1037449D01*
X1012456D02*
X987465Y892254D01*
X887497Y967230D02*
Y917246D01*
X862504Y892254D01*
X837513Y917246D01*
Y967230D01*
X812521Y892254D02*
X787529D01*
X800025D01*
Y967230D01*
X812521Y954734D01*
X2124600Y741323D02*
Y816299D01*
X2087112D01*
X2074616Y803803D01*
Y778811D01*
X2087112Y766315D01*
X2124600D01*
X2049624Y816299D02*
X1999640D01*
Y803803D01*
X2049624Y753819D01*
Y741323D01*
X1999640D01*
X1899672D02*
Y791307D01*
X1874680Y816299D01*
X1849688Y791307D01*
Y741323D01*
Y778811D01*
X1899672D01*
X1824696Y741323D02*
Y816299D01*
X1774712Y741323D01*
Y816299D01*
X1749720D02*
Y741323D01*
X1712232D01*
X1699736Y753819D01*
Y803803D01*
X1712232Y816299D01*
X1749720D01*
X1599768D02*
Y741323D01*
X1562280D01*
X1549784Y753819D01*
Y803803D01*
X1562280Y816299D01*
X1599768D01*
X1524792Y741323D02*
Y816299D01*
X1499800Y791307D01*
X1474808Y816299D01*
Y741323D01*
X2124600Y565400D02*
Y640376D01*
X2087112D01*
X2074616Y627880D01*
Y602888D01*
X2087112Y590392D01*
X2124600D01*
X2037128Y640376D02*
X2012136D01*
X1999640Y627880D01*
Y590392D01*
X2037128D01*
X2049624Y602888D01*
X2037128Y615384D01*
X1999640D01*
X1974648Y640376D02*
Y590392D01*
Y615384D01*
X1962152Y627880D01*
X1949656Y640376D01*
X1937160D01*
X1899672D02*
Y590392D01*
Y615384D01*
X1887176Y627880D01*
X1874680Y640376D01*
X1862184D01*
X1824696D02*
Y602888D01*
X1812200Y590392D01*
X1774712D01*
Y577896D01*
X1787208Y565400D01*
X1799704D01*
X1774712Y590392D02*
Y640376D01*
X1749720Y590392D02*
Y602888D01*
X1737224D01*
Y590392D01*
X1749720D01*
X1687240Y640376D02*
X1637256D01*
X1687240Y590392D01*
X1637256D01*
X1612264Y665368D02*
Y590392D01*
Y627880D01*
X1599768Y640376D01*
X1574776D01*
X1562280Y627880D01*
Y590392D01*
X1537288Y640376D02*
Y602888D01*
X1524792Y590392D01*
X1487304D01*
Y640376D01*
X1449816Y590392D02*
X1424824D01*
X1412328Y602888D01*
Y627880D01*
X1424824Y640376D01*
X1449816D01*
X1462312Y627880D01*
Y602888D01*
X1449816Y590392D01*
X1349848Y615384D02*
Y627880D01*
X1362344D01*
Y615384D01*
X1349848D01*
X1337352Y627880D01*
Y652872D01*
X1349848Y665368D01*
X1374840D01*
X1387336Y652872D01*
Y602888D01*
X1374840Y590392D01*
X1337352D01*
X1312360Y665368D02*
Y590392D01*
Y627880D01*
X1299864Y640376D01*
X1274872D01*
X1262376Y627880D01*
Y590392D01*
X1224888D02*
X1199897D01*
X1187400Y602888D01*
Y627880D01*
X1199897Y640376D01*
X1224888D01*
X1237384Y627880D01*
Y602888D01*
X1224888Y590392D01*
X1149912Y652872D02*
Y640376D01*
X1162408D01*
X1137416D01*
X1149912D01*
Y602888D01*
X1137416Y590392D01*
X1099928D02*
Y640376D01*
X1087432D01*
X1074936Y627880D01*
Y590392D01*
Y627880D01*
X1062441Y640376D01*
X1049945Y627880D01*
Y590392D01*
X1012456Y640376D02*
X987465D01*
X974969Y627880D01*
Y590392D01*
X1012456D01*
X1024952Y602888D01*
X1012456Y615384D01*
X974969D01*
X949977Y590392D02*
X924984D01*
X937480D01*
Y640376D01*
X949977D01*
X887497Y590392D02*
X862504D01*
X875001D01*
Y665368D01*
X887497D01*
X825017Y590392D02*
Y602888D01*
X812521D01*
Y590392D01*
X825017D01*
X712553Y640376D02*
X750041D01*
X762537Y627880D01*
Y602888D01*
X750041Y590392D01*
X712553D01*
X675065D02*
X650073D01*
X637577Y602888D01*
Y627880D01*
X650073Y640376D01*
X675065D01*
X687561Y627880D01*
Y602888D01*
X675065Y590392D01*
X612585D02*
Y640376D01*
X600089D01*
X587593Y627880D01*
Y590392D01*
Y627880D01*
X575097Y640376D01*
X562601Y627880D01*
Y590392D01*
%TF.MD5,948b4e7ec783f0081df8cbf2c51fbf78*%
M02*
