%TF.GenerationSoftware,Altium Limited,Altium Designer,25.7.1 (20)*%
G04 Layer_Color=128*
%FSLAX45Y45*%
%MOMM*%
%TF.SameCoordinates,D7271FF7-ADEE-4A75-9EE6-9E67876EE782*%
%TF.FilePolarity,Positive*%
%TF.FileFunction,Drillmap*%
%TF.Part,Single*%
G01*
G75*
%TA.AperFunction,NonConductor*%
%ADD48C,0.12700*%
D48*
X371080Y1409700D02*
X401080D01*
X386080Y1394700D02*
Y1424700D01*
X1977000Y1651000D02*
X2087000D01*
X2032000Y1596000D02*
Y1706000D01*
X1977000Y1143000D02*
X2087000D01*
X2032000Y1088000D02*
Y1198000D01*
X1977000Y1397000D02*
X2087000D01*
X2032000Y1342000D02*
Y1452000D01*
X1625000Y1810000D02*
X1655000D01*
X1640000Y1795000D02*
Y1825000D01*
X1435000Y1180000D02*
X1465000D01*
X1450000Y1165000D02*
Y1195000D01*
X2199540Y684700D02*
X2229540D01*
X2214540Y669700D02*
Y699700D01*
X967980Y1229360D02*
X997980D01*
X982980Y1214360D02*
Y1244360D01*
X769860Y741680D02*
X799860D01*
X784860Y726680D02*
Y756680D01*
X990840Y919480D02*
X1020840D01*
X1005840Y904480D02*
Y934480D01*
X1435340Y701040D02*
X1465340D01*
X1450340Y686040D02*
Y716040D01*
X1882380Y607060D02*
X1912380D01*
X1897380Y592060D02*
Y622060D01*
%TF.MD5,e25ed18a8c30803b52205d1cd4da270d*%
M02*
